<svg xmlns="http://www.w3.org/2000/svg" viewBox="0 0 749.01 809.56"><defs><style>.cls-1{fill:#0d2b9a;}.cls-2{fill:#fff;}.cls-3,.cls-4{fill:#bd1622;stroke-width:10px;}.cls-3,.cls-4,.cls-6,.cls-7{stroke:#fff;}.cls-3{stroke-miterlimit:10;}.cls-5{isolation:isolate;}.cls-6,.cls-7{fill:none;}.cls-6{stroke-width:7px;}.cls-7{stroke-width:8px;}</style></defs><g id="Lag_2" data-name="Lag 2"><g id="Lag_1-2" data-name="Lag 1"><path class="cls-1" d="M263.22,388.22a13.48,13.48,0,0,0,1-1c5-4.94,6.42-12.74,9-19a2.78,2.78,0,0,1,1.86-1.69v-.13a2.5,2.5,0,0,1-1.45-2.36v-3.47a2.86,2.86,0,0,1-1.22-3.86,3.48,3.48,0,0,1,.34-.51,27,27,0,0,0-7.21,3.57l-.86.58A171.58,171.58,0,0,1,263.17,388,1.74,1.74,0,0,0,263.22,388.22Z"/><path class="cls-1" d="M272.18,385.42a27.77,27.77,0,0,0,2.63-4.74,23.57,23.57,0,0,0,1.51-5.21A66.51,66.51,0,0,1,272.18,385.42Z"/><path class="cls-1" d="M272.93,350.65a5.45,5.45,0,0,0-3.2-1c-1.76.15-3,2.16-3.88,3.53A27.09,27.09,0,0,1,272.93,350.65Z"/><path class="cls-1" d="M176.18,429.82l216.6,155.79L527.72,0Zm111.34-58.94a7.61,7.61,0,0,0-1.4-1.32,2.74,2.74,0,0,1-3.84.38l-.09-.08a.17.17,0,0,1,0,.1,26.7,26.7,0,0,1-1.08,9.15c-1.69,6.3-5.78,11.17-9.69,16.23a41.37,41.37,0,0,0-4.07,6c.45,1.28.91,2.57,1.35,3.88a2.42,2.42,0,0,1-1.41,3.12,3.59,3.59,0,0,1-.47.12,16.78,16.78,0,0,1,.89,5.11,2.78,2.78,0,0,1-2.72,2.71h0v.09c2.74-.5,4.77,3.53,1.93,5-1.59.82-1.67,2.21-2.32,3.74a9.21,9.21,0,0,1-3.18,3.89c-1.46,1.13-3.4-.11-4-1.53a2.88,2.88,0,0,1-3.58-1.08,29.69,29.69,0,0,1-3.12-7.17c-3.19-3-4.54-8.49-6.67-11.88-1.8-2.85,2-5,4.28-3.3,3.8,3,5.23,7.2,6.66,11.46a2.48,2.48,0,0,0,1.12.37c.11-1.31.28-2.62.52-3.93l-.09-.21c-.18-.37-.35-.74-.52-1.12a3,3,0,0,1,1.35-3.8,54.58,54.58,0,0,1-4.48-20.57,74.93,74.93,0,0,1,2.35-20,7.88,7.88,0,0,1,1.53-5.86,50.74,50.74,0,0,1,2.3-6.43c0-1.53-.1-3.06-.15-4.57-.1-2.59,2.83-3.26,4.44-2,.37-.38.75-.74,1.15-1.08a8.24,8.24,0,0,1,8.32-1.45,5,5,0,0,1,3.67-1.91,2.54,2.54,0,0,1,.67-.06c.45,0,.9,0,1.34,0a2.77,2.77,0,0,1,2.73,2.73v2.17a3,3,0,0,1-.92,2l.39.38c4.87,4.89,9.42,11.37,11.32,18.09C292.72,370.68,289.27,373.08,287.52,370.88Z"/><polygon class="cls-1" points="327.29 297.25 216.28 809.56 527.28 441.08 327.29 297.25"/><path class="cls-2" d="M278.78,370.28A136.3,136.3,0,0,1,269,393.71l4.66,1.26a50.64,50.64,0,0,1,8.17-30.52l-4.65-1.26-1,9a2.51,2.51,0,0,0,2.5,2.5,2.55,2.55,0,0,0,2.5-2.5l1-9a2.53,2.53,0,0,0-1.84-2.41,2.58,2.58,0,0,0-2.82,1.15,55.21,55.21,0,0,0-8.86,33c.13,2.35,3.43,3.58,4.66,1.27a144.49,144.49,0,0,0,10.33-24.63c1-3.08-3.86-4.4-4.82-1.33Z"/><path class="cls-2" d="M279.19,368.29c3.22,0,3.22-5,0-5S276,368.29,279.19,368.29Z"/><path class="cls-2" d="M270.05,364.3a13,13,0,0,0,8.84-3.66,12.5,12.5,0,1,0-17.68,0,13,13,0,0,0,8.84,3.66Z"/><path class="cls-2" d="M257.93,348.48a26.86,26.86,0,0,0,0,14.61,12.49,12.49,0,0,0,20.89,5.51c3.33-3.4,5.19-8.79,3.66-13.48a15.65,15.65,0,0,0-5.52-8,15.13,15.13,0,0,0-20.24,1.78c-2.56,2.72-4,6-5.6,9.25l-4.4,8.94,23.29,6.3a18,18,0,0,1,.16-2.43l-.45,3.32a18.58,18.58,0,0,1,1.12-4l-1.26,3a19.45,19.45,0,0,1,2.45-4.21l-2,2.53a20.11,20.11,0,0,1,3.46-3.44l-2.53,2a19.27,19.27,0,0,1,3.9-2.27l-3,1.26a16.86,16.86,0,0,1,4-1.11l-3.33.44.7-.08-10.79-6.19a62.43,62.43,0,0,1,5.9,10.83l-1.26-3a66,66,0,0,1,4.45,16.5l-.45-3.32a66.14,66.14,0,0,1,0,17.1l.45-3.32a62.58,62.58,0,0,1-4.26,15.72l1.26-3a20.89,20.89,0,0,1-2.3,4.23l1.95-2.53a10.61,10.61,0,0,1-1.66,1.69l2.53-2a8.46,8.46,0,0,1-1.66.94l3-1.26a7.31,7.31,0,0,1-1.46.39l3.32-.44a7.42,7.42,0,0,1-1.49,0l3.33.45a6.61,6.61,0,0,1-1.08-.29l3,1.26a6.79,6.79,0,0,1-1.05-.6l2.53,2a25.87,25.87,0,0,1-3.89-4.4l2,2.53a56,56,0,0,1-7.1-12l1.26,3a38.28,38.28,0,0,1-2.58-9.2l.45,3.33a28.38,28.38,0,0,1-.09-7.25l-.44,3.33a22.91,22.91,0,0,1,1.48-5.51l-1.26,3a17.74,17.74,0,0,1,2.1-3.6l-2,2.53a16,16,0,0,1,2.16-2.19l-2.53,2a13.92,13.92,0,0,1,2.09-1.33l-3,1.26a3.36,3.36,0,0,1,.74-.24l-3.33.45h.38l-3.32-.45.37.06-3-1.26a1.37,1.37,0,0,1,.54.3l-2.53-2,.22.23-2-2.53a2.84,2.84,0,0,1,.33.56l-1.26-3c.91,2.29,1.12,5,1.6,7.44l1.6,8.08,1.26,3a9.61,9.61,0,0,0,3.22,3.51,12,12,0,0,0,7.58,2.68,14.75,14.75,0,0,0,6.3-1.71c3-1.58,4.58-4.48,5.75-7.47.6-1.54,1.21-3.09,1.85-4.62l-1.26,3a49.37,49.37,0,0,1,6.1-10.92l-2,2.53a81.61,81.61,0,0,0,5.49-7.35,25.82,25.82,0,0,0,3.55-11.06,19,19,0,0,0-10.2-18.69,32.62,32.62,0,0,0-8.1-2.78c-4-.79-8.07-1.2-12.07.09A17.16,17.16,0,0,0,257,351a17.77,17.77,0,0,0-4.31,7c-1.44,3.95-1,9.57,1.54,13a16,16,0,0,0,4.49,4.48,12.33,12.33,0,0,0,8,1.49,12.62,12.62,0,0,0,10.39-9c1.38-4.43,2.53-8.93,3.46-13.47a12.7,12.7,0,0,0-2.24-10.89c-2.2-2.85-6-5.32-9.82-4.93a33,33,0,0,0-13.23,3.85,36.48,36.48,0,0,0-5.47,3.94,19.74,19.74,0,0,0-2.85,3,30.12,30.12,0,0,0-3.86,5.64,54,54,0,0,0-2.76,7c-1,3.15-1.85,6.27-3.13,9.31l1.26-3c-1.06,2.49-2.2,5-3.08,7.53a36.52,36.52,0,0,0-1.58,8.23c-.47,4.75.34,9.61,1.26,14.26.71,3.58,1.47,7.19,2.53,10.68A38.71,38.71,0,0,0,243,420.72c2.89,3.95,6.32,7.68,10.86,9.76a25.7,25.7,0,0,0,10.38,2.7,20.38,20.38,0,0,0,10.36-2.63c8.56-4.66,12.31-14.7,14.09-23.71a123.24,123.24,0,0,0,2.37-29,12.58,12.58,0,0,0-10.84-12.28,12,12,0,0,0-8,1.48c-2.57,1.66-5.23,4.33-5.75,7.47A101.29,101.29,0,0,0,265,395.59h25c-.25-4.51-.66-9.27-2.29-13.52a28.27,28.27,0,0,0-5.43-9.28c-2.49-2.86-5.61-4.3-9-5.71-2.77-1.16-7.16-.18-9.63,1.26a12.5,12.5,0,0,0-4.48,17.1l2,2.53a12.55,12.55,0,0,0,5.52,3.22l.29.12-3-1.26a10.36,10.36,0,0,1,1.87,1.11l-2.53-2a10.34,10.34,0,0,1,1.89,1.79l-2-2.53a15.05,15.05,0,0,1,1.7,3l-1.26-3a26.48,26.48,0,0,1,1.61,6.49l-.44-3.32c.17,1.33.28,2.66.35,4a13.25,13.25,0,0,0,3.67,8.84,12.5,12.5,0,0,0,17.67,0h0a12.48,12.48,0,0,0,3.66-8.84,84,84,0,0,1,.66-15.37l-.45,3.32c.11-.79.23-1.59.36-2.38l-24.55-3.32a109.54,109.54,0,0,1-.89,19.41l.45-3.32c-.7,5-1.53,10.27-3.47,15l1.26-3a21.14,21.14,0,0,1-2.49,4.39l2-2.53a13.75,13.75,0,0,1-2.15,2.23l2.53-1.95a9.83,9.83,0,0,1-2,1.18l3-1.26a8.57,8.57,0,0,1-2,.54l3.32-.45a10.39,10.39,0,0,1-2.23,0l3.32.45a13.86,13.86,0,0,1-2.82-.77l3,1.26a15.34,15.34,0,0,1-3.26-1.88l2.53,1.95a19.29,19.29,0,0,1-3.22-3.23l1.95,2.53a25.6,25.6,0,0,1-3-5.23l1.26,3a54.06,54.06,0,0,1-2.63-8.72c-.72-3.15-1.44-6.32-1.88-9.52l.44,3.32a31.68,31.68,0,0,1-.11-7.6l-.45,3.32a31.88,31.88,0,0,1,2.37-7.75l-1.26,3a97,97,0,0,0,3.72-9.45c.71-2.36,1.32-4.74,2.24-7l-1.26,3a20,20,0,0,1,2.36-4.14l-2,2.53a19.48,19.48,0,0,1,3.44-3.41l-2.55,1.86a19.53,19.53,0,0,1,4.21-2.41l-3,1.26a19.05,19.05,0,0,1,4.32-1.17l-3.32.45c.25,0,.49-.07.74-.09l-12-15.82a135.71,135.71,0,0,1-3.46,13.47l22.85-3a3.62,3.62,0,0,1-.45-.76l1.26,3a2.91,2.91,0,0,1-.15-.58l.45,3.32a6.31,6.31,0,0,1,0-.87l-.45,3.32a5.71,5.71,0,0,1,.33-1.16l-1.26,3a5.53,5.53,0,0,1,.66-1.06l-2,2.53a6,6,0,0,1,.67-.66l-2.53,1.95a5.41,5.41,0,0,1,1.17-.66l-3,1.26a8.26,8.26,0,0,1,1.62-.37l-3.32.44a12.68,12.68,0,0,1,2.54.07l-3.33-.44a25.57,25.57,0,0,1,5.71,1.44l-3-1.26a10.41,10.41,0,0,1,2.24,1.24l-2.53-2a8.61,8.61,0,0,1,1.28,1.28l-2-2.53a7,7,0,0,1,.73,1.28l-1.26-3a7.79,7.79,0,0,1,.48,1.76l-.44-3.32a10.44,10.44,0,0,1,0,2.62l.45-3.32a12.75,12.75,0,0,1-.72,2.57l1.26-3a22.4,22.4,0,0,1-3.09,5l2-2.53c-2.7,3.48-5.44,6.83-7.46,10.76A134.1,134.1,0,0,0,256.63,390h24.09l-1.89-9.56c-.31-1.55-.59-3.11-.93-4.66a14.82,14.82,0,0,0-6.68-9.56,14.2,14.2,0,0,0-11.67-1.35,23.92,23.92,0,0,0-7.87,4.75,27.71,27.71,0,0,0-3.86,4.51,17.16,17.16,0,0,0-1.81,2.95,35.34,35.34,0,0,0-3.39,19.7,48.93,48.93,0,0,0,2.26,10.57,65.69,65.69,0,0,0,4.43,9.83,63.05,63.05,0,0,0,4.56,6.88c2.68,3.52,5.45,7.64,9.55,9.65a17.21,17.21,0,0,0,8.87,2,19.54,19.54,0,0,0,9.13-2.82,23.11,23.11,0,0,0,8.43-9.88,75.2,75.2,0,0,0,6.72-35.5c-.87-13.44-4.86-26.82-12.49-38a12.51,12.51,0,0,0-10.79-6.19A32.17,32.17,0,0,0,261,346.8a27.87,27.87,0,0,0-7.73,6A30.73,30.73,0,0,0,245,373.35a12.43,12.43,0,0,0,2.71,7.65,12,12,0,0,0,6.49,4.48,14.88,14.88,0,0,0,6.64,0,12.47,12.47,0,0,0,7.47-5.75l4-8.26c1.15-2.37,2.13-5,3.75-7.13l-2,2.53a6.83,6.83,0,0,1,1-.94l-2.53,2a3.25,3.25,0,0,1,.57-.33l-3,1.26a3.66,3.66,0,0,1,.91-.27l-3.32.45a2.44,2.44,0,0,1,.54,0l-3.32-.44a1.87,1.87,0,0,1,.52.17l-3-1.26a2.31,2.31,0,0,1,.48.28l-2.53-2a3.6,3.6,0,0,1,.59.58l-2-2.53a2.6,2.6,0,0,1,.28.45l-1.26-3a1.94,1.94,0,0,1,.16.48l-.44-3.32a1.24,1.24,0,0,1,0,.47l.45-3.32a1.41,1.41,0,0,1-.14.44l1.26-3-.14.2,2-2.53-.18.19,20.89,5.52a18.16,18.16,0,0,1-.47-2.19l.45,3.32a15.31,15.31,0,0,1,0-3.58l-.44,3.33a16.42,16.42,0,0,1,.47-2.19,12.83,12.83,0,0,0-1.26-9.64A12.5,12.5,0,0,0,263.72,341a13.16,13.16,0,0,0-5.74,7.47Z"/><path class="cls-2" d="M261.82,365.71a80.32,80.32,0,0,1-.71,8.63l.44-3.32a191.34,191.34,0,0,1-5.4,24,13,13,0,0,0,1.26,9.63,12.49,12.49,0,0,0,17.08,4.5h0a13.37,13.37,0,0,0,5.75-7.47l5-16c1.62-5.18,3.47-10.35,4.85-15.59,1.56-6,.42-12.26-4-16.78-2.34-2.42-5.49-4.27-8.23-6.24a15.54,15.54,0,0,0-5.48-2.86,13.72,13.72,0,0,0-15,6.22c-1.86,2.91-2,6.62-2.56,9.93l-3,18.56c-.53,3.27-.64,6.69,1.26,9.63a13,13,0,0,0,6,5.11,12,12,0,0,0,8.14.63c3-1,6.06-2.84,7.47-5.74a87.87,87.87,0,0,0,5.94-15.42,32.84,32.84,0,0,0,1.5-9.49,19.13,19.13,0,0,0-5.3-13.09,17.51,17.51,0,0,0-8.22-4.59,18.78,18.78,0,0,0-7.32,0,13.76,13.76,0,0,0-4.61,1.88,17.73,17.73,0,0,0-5.59,5.68c-1.92,3.09-2.46,6.54-2.8,10.08a43.18,43.18,0,0,0,.08,5.91c.14,3.3.11,6.72.93,9.94A15.79,15.79,0,0,0,260.34,391a12.75,12.75,0,0,0,15.38-8.73q2-6.87,3.5-13.86.76-3.56,1.41-7.14a57,57,0,0,0,1.23-8.81,17.3,17.3,0,0,0-4.59-12.28,15.44,15.44,0,0,0-15.34-4c-4.65,1.45-7.92,4.68-10.62,8.59-1.33,1.91-2.36,4.08-3.5,6.12l-4,7.16a53.11,53.11,0,0,1-3.7,6.2l2-2.53a11,11,0,0,1-1.71,1.76l2.53-2a6.59,6.59,0,0,1-1.43.83l3-1.26a6.67,6.67,0,0,1-1,.26l3.33-.45a3.82,3.82,0,0,1-.68.06l12,15.82c.38-1.07.8-2.13,1.24-3.18l-1.26,3a57.61,57.61,0,0,1,7.3-12.48l-2,2.53a45,45,0,0,1,7.28-7.63l-2.53,2a19.16,19.16,0,0,1,3.9-2.37l-3,1.26a14.64,14.64,0,0,1,3.1-.89l-3.32.45a12.17,12.17,0,0,1,3.19,0l-3.28-.43a10.61,10.61,0,0,1,2.28.65l-3-1.26a9.89,9.89,0,0,1,1.69,1l-2.53-2a11.51,11.51,0,0,1,1.88,1.94l-1.95-2.53a45.43,45.43,0,0,1,4.8,9.42l-1.26-3a32.59,32.59,0,0,1,2.32,7.86l-.44-3.32a25,25,0,0,1-.08,6.52L273,371c-.34,2.34-.88,4.64-1.44,6.93l8.73-8.73-.27.08,3.32-.45h-.27l3.32.44-.27-.07,3,1.26-.25-.14,2.53,2-.21-.19,1.95,2.53-.16-.23,1.26,3-.1-.25.45,3.32v-.28a13.22,13.22,0,0,0-3.66-8.84,12.51,12.51,0,0,0-17.68,0c-2.16,2.35-3.87,5.54-3.66,8.84A13.92,13.92,0,0,0,275,391a13.39,13.39,0,0,0,12,2.38,12.53,12.53,0,0,0,8.73-8.73,78.07,78.07,0,0,0,2-11.66,33,33,0,0,0-1.24-11.78,70.73,70.73,0,0,0-4.28-10.67,41.16,41.16,0,0,0-5.47-9,20.42,20.42,0,0,0-4.93-4.19,24.9,24.9,0,0,0-4-1.82,11.57,11.57,0,0,0-2.08-.62,21.93,21.93,0,0,0-6.71-.46,36.37,36.37,0,0,0-4.51.68,28.63,28.63,0,0,0-4.9,1.92c-6.54,3-11.4,8.9-15.67,14.49a68.49,68.49,0,0,0-9.8,18.63c-1.32,3.69,0,8,2.24,10.9a12.12,12.12,0,0,0,9.82,4.93,18.37,18.37,0,0,0,13-5.88,44.59,44.59,0,0,0,5.62-8.33l4.25-7.59a67.93,67.93,0,0,1,4.2-7.25l-1.95,2.53a10.41,10.41,0,0,1,1.59-1.66l-2.53,2a6.35,6.35,0,0,1,1.21-.7l-3,1.26a3.58,3.58,0,0,1,.64-.18l-3.32.45a2.29,2.29,0,0,1,.64,0l-3.32-.45a3.45,3.45,0,0,1,1,.27l-3-1.26a2.33,2.33,0,0,1,.5.31l-2.53-2a3.84,3.84,0,0,1,.59.62l-2-2.53a5.51,5.51,0,0,1,.4.76l-1.26-3a6.67,6.67,0,0,1,.29,1.17l-.45-3.32a11.56,11.56,0,0,1-.06,2.88l.44-3.32a192.26,192.26,0,0,1-5.56,24.88L267,366.83a1.9,1.9,0,0,1-.57-.18l3,1.26a2.92,2.92,0,0,1-.48-.29l2.53,1.95a2.59,2.59,0,0,1-.41-.4l2,2.53a4.82,4.82,0,0,1-.6-1l1.26,3a8.56,8.56,0,0,1-.48-1.87l.44,3.32c-.27-2.18-.24-4.43-.33-6.62a32.38,32.38,0,0,1,0-5.57l-.44,3.32a10.22,10.22,0,0,1,.62-2.37l-1.26,3a7.11,7.11,0,0,1,.72-1.22l-2,2.53a6.25,6.25,0,0,1,.57-.58l-2.53,2a5,5,0,0,1,.94-.56l-3,1.26a6.84,6.84,0,0,1,.89-.23l-3.32.45a3.86,3.86,0,0,1,.68,0l-3.33-.44a4.82,4.82,0,0,1,1,.22l-3-1.26a5.9,5.9,0,0,1,1.2.68l-2.53-1.95a7.27,7.27,0,0,1,1,1l-2-2.53a6.5,6.5,0,0,1,.7,1.23l-1.26-3a8.09,8.09,0,0,1,.41,1.61l-.44-3.32a11.65,11.65,0,0,1,0,2.64l.45-3.33a54.52,54.52,0,0,1-4,13.08l1.26-3c-.53,1.27-1.1,2.52-1.7,3.76l22.85,9.63,2.08-12.94,1-6.35a33.8,33.8,0,0,1,1.05-6l-1.26,3a1.38,1.38,0,0,1,.29-.46l-2,2.53.21-.16-5.52,3.22.25-.1-3.33.45h.33l-3.32-.44.31.09-3-1.26a31.34,31.34,0,0,1,3.37,2.36c1.13.82,2.27,1.62,3.39,2.45l-2.53-2a10.07,10.07,0,0,1,1.35,1.26l-2-2.53a4.92,4.92,0,0,1,.55.94l-1.26-3a3,3,0,0,1,.22.78l-.45-3.33a6.27,6.27,0,0,1,0,1.62l.45-3.33a67.61,67.61,0,0,1-2.35,7.9l-2.57,8.24L256.15,395l24.11,6.65c3.19-11.78,6.21-23.72,6.56-36a12.5,12.5,0,0,0-25,0Z"/><path class="cls-2" d="M271.54,397.14l.19-10.8a2.51,2.51,0,0,0-2.5-2.5,2.55,2.55,0,0,0-2.5,2.5l-.19,10.8a2.5,2.5,0,0,0,5,0Z"/><path class="cls-2" d="M234.2,384.54a137.7,137.7,0,0,1-.67,17.82h70a221.62,221.62,0,0,1-1-29.26l-68.75,9.3q.57,2.84,1,5.7l-1.25-9.3a87.1,87.1,0,0,1,.39,19.23,34.94,34.94,0,0,0,35,35l9.3-1.25a35,35,0,0,0,15.45-9l5.47-7.08A34.85,34.85,0,0,0,303.93,398a86.28,86.28,0,0,0,.23-12.76,150.74,150.74,0,0,0-2.84-21.48,39.09,39.09,0,0,0-16.08-20.91l-8.36-3.53a26.52,26.52,0,0,0-14-.63,17.47,17.47,0,0,0-8.83,2.39,26.26,26.26,0,0,0-11.27,7.24l-5.47,7.08a34.85,34.85,0,0,0-4.78,17.67,221.62,221.62,0,0,0,1,29.26,35,35,0,0,0,35,35l9.31-1.25a35.1,35.1,0,0,0,15.44-9l5.44-7.08a34.81,34.81,0,0,0,4.78-17.66,137.7,137.7,0,0,0,.67-17.82,35,35,0,0,0-35-35l-9.3,1.25a35.19,35.19,0,0,0-15.45,9L239,366.86a34.81,34.81,0,0,0-4.78,17.66Z"/><path class="cls-3" d="M170.87,445.07c2-49.24,2.31-98.55,3.1-147.84.23-14.18-4.57-18.37-17.91-13.21-17.2,6.66-33.62,15.37-50.2,23.57-9.66,4.78-10.43,11.31-1.8,18.07,9.34,7.33,11.75,16.64,10.87,28.23-2,26-2.82,52-4.4,78-.91,14.81-1,29.87-3.88,44.33-5.49,27.44-23.06,44.48-46,46.1,4.83-3.73,9.07-6.51,12.72-9.93,10.39-9.76,13.56-21.38,9.8-35.46-3.34-12.52-11.76-18.85-23.43-20.9-19.06-3.34-33.62,5-44.34,20.15C4.4,491.7.73,508.52,11.47,525.71c13.82,22.11,35.72,27.48,59.51,25C119.72,545.59,168.85,494,170.87,445.07Z"/><path class="cls-3" d="M252.86,409.83c.19.05.39.09.58.15a73.67,73.67,0,0,1-.74-15.49c0-2.78.19-5.57.21-8.2v-3.08A61.4,61.4,0,0,0,251.23,407,18.06,18.06,0,0,1,252.86,409.83Z"/><path class="cls-3" d="M266.38,384.66c.19-2.91.31-5.84.33-8.76,0-2.45,0-5-.19-7.49h-.46c0,1.29,0,2.58-.08,3.86,0,4.48-.12,9-.43,13.45C265.84,385.41,266.12,385,266.38,384.66Z"/><path class="cls-3" d="M252.21,426.75l-.74-.88a4.46,4.46,0,0,1-1.09-1.16,2.21,2.21,0,0,1-.18-.34,14.26,14.26,0,0,1-3.7-6.33,2.58,2.58,0,0,1,.19-1.85,8.38,8.38,0,0,1-2-1.45,2.73,2.73,0,0,1,.06-3.87,2.58,2.58,0,0,1,.86-.57,24.9,24.9,0,0,0-1.53-3,2.4,2.4,0,0,1,.52-3.35,2.33,2.33,0,0,1,.89-.41,63.16,63.16,0,0,1,5-29.64,2.94,2.94,0,0,1-4.4-3A22,22,0,0,1,258.65,355c.16-.39.33-.77.5-1.16v-.3a4.57,4.57,0,0,0-1.28,0c-1.66,1-3,1.9-3.64,2.35a37.53,37.53,0,0,0-4.61,3.93,37.37,37.37,0,0,0-4.9,11.16c-.25.86-.46,1.73-.67,2.6a2.41,2.41,0,0,1,2.15,3.28,82.89,82.89,0,0,0-4,35.67c.59,5,2.16,10,6.23,13.32a7.62,7.62,0,0,0,6.91,1.66l-.36-.16A2.64,2.64,0,0,1,252.21,426.75Z"/><path class="cls-3" d="M255.24,364.14a17.53,17.53,0,0,0-3.8,7.68,58.34,58.34,0,0,1,3.34-5.92,3.25,3.25,0,0,1,.4-.5A6.65,6.65,0,0,1,255.24,364.14Z"/><path class="cls-3" d="M268.72,351.87a2.18,2.18,0,0,0-.22-.43,6.14,6.14,0,0,0-.75-.69h-.09a11.08,11.08,0,0,0-1.18,1.46c.14.16.26.32.39.49A14.54,14.54,0,0,1,268.72,351.87Z"/><path class="cls-3" d="M273.21,368.23a2.89,2.89,0,0,1,.69-1,51.31,51.31,0,0,0-1.47-7.78,2.88,2.88,0,0,1-.29-1c-.2-.62-.41-1.22-.63-1.82a17.47,17.47,0,0,0-1.94.84,40.49,40.49,0,0,1,2.55,13.69C272.46,370.15,272.82,369.17,273.21,368.23Z"/><path class="cls-3" d="M272.23,385.34a27.53,27.53,0,0,0,2.43-4.34v-1A47.52,47.52,0,0,1,272.23,385.34Z"/><path class="cls-3" d="M271.38,395.34l-.63.82c-.45,3.89-1,7.77-1.49,11.64-.45,3.34-.61,7-1.2,10.53a2.32,2.32,0,0,1-.52,2.58,17.86,17.86,0,0,1-3.79,7.76,13.32,13.32,0,0,1-6.54,4.1c5.71.06,11.12-4.39,13.43-9.49,1.83-4,1.88-9.11,2.34-13.47.65-6.12,1.19-12.29,1.48-18.46C273.45,392.69,272.41,394,271.38,395.34Z"/><path class="cls-3" d="M270.64,317.88c-42.62-.34-82.95,34-91.19,77.63-7.58,40.16,20,73.62,60.73,73.57,44.54-.08,87.6-39.64,91.38-84.08C334.86,346.17,309.46,318.18,270.64,317.88Zm27.08,97.53a2.78,2.78,0,0,1-2.72,2.72c-1.34,0-2.92-1.26-2.73-2.72a37.93,37.93,0,0,0,.23-5.11c0-3.51,5.45-3.5,5.45,0A37.93,37.93,0,0,1,297.72,415.41Zm-1-45.62a160.38,160.38,0,0,1-3.46,24.08,2.34,2.34,0,0,1-2.12,1.94,8,8,0,0,0,.11.84,11.22,11.22,0,0,1,.58,8.6,16.12,16.12,0,0,1-.76,2A67,67,0,0,1,288.83,418a2.67,2.67,0,0,1-2.18,1.9V420c1.44,1.74,3.14,3.26,3.7,5.56a5.26,5.26,0,0,1-3,6.1c-3.49,1.69-9.12,2.22-12-.9a7.29,7.29,0,0,1-1.48-2.52,20.37,20.37,0,0,1-9.07,8.21,17.35,17.35,0,0,1-12.29,1.07c-4.88-1.52-8.21-5.27-11.19-9.23-12.88-17.08-14.85-41.48-4.58-60.14a33.25,33.25,0,0,1,23.55-23,2.51,2.51,0,0,1,1.9.16,2.29,2.29,0,0,1,2.33-1.26,13.23,13.23,0,0,1,3,.55,8.7,8.7,0,0,1,5.27.22,5,5,0,0,1,3.67-1.91,2.54,2.54,0,0,1,.67-.06,10,10,0,0,1,1.34,0,2.77,2.77,0,0,1,2.73,2.73v2.17a3,3,0,0,1-.92,2l.39.38.11.12c5.89-3.87,15.21-7.6,19.92-.88a13.26,13.26,0,0,1-.2,16,37.59,37.59,0,0,1-3.76,4.41Zm10.69-.76a2.78,2.78,0,0,1-2.36,2.67,2.75,2.75,0,0,1-3-1.95c-.26-.77-.49-1.54-.7-2.32a2.78,2.78,0,0,1,.83-2.74v-.77c0-3.51,5.45-3.5,5.45,0a37.47,37.47,0,0,1-.2,5.08Z"/><path class="cls-3" d="M281.53,385.66a13.29,13.29,0,0,1,1.39-7.66,27.53,27.53,0,0,1,4.91-6.82,3.26,3.26,0,0,1-.31-.33,7.61,7.61,0,0,0-1.4-1.32,2.74,2.74,0,0,1-3.84.38l-.09-.08a.17.17,0,0,1,0,.1,26.7,26.7,0,0,1-1.08,9.15,24.37,24.37,0,0,1-1,2.87,281.86,281.86,0,0,1-2.51,35.19,7,7,0,0,1,5.7-1v-1a2.51,2.51,0,0,1-1.76-1.82c-1.9-6.83-1-13.32,3.29-19a5,5,0,0,1,.49-.54,1.49,1.49,0,0,0-.11-.4C284.29,390.59,282,388.61,281.53,385.66Z"/><path class="cls-3" d="M291.54,351.44a27.6,27.6,0,0,0-7,3c.5.63,1,1.27,1.47,1.93v-.24a2.73,2.73,0,1,1,5.45-.33,1.82,1.82,0,0,1,0,.33V359a2.72,2.72,0,0,1-2.11,2.63,36.56,36.56,0,0,1,2.17,4.92q.35-6.19.34-12.42a2.66,2.66,0,0,1,2.64-2.66,2.56,2.56,0,0,1,.62.07A5,5,0,0,0,291.54,351.44Z"/><path class="cls-3" d="M284.3,425.46a4.71,4.71,0,0,1-3,.46,2.23,2.23,0,0,1-2-2.45,2,2,0,0,1,.06-.35,4.16,4.16,0,0,0,0,3.88c.37.57,0,.24.49.38a5.32,5.32,0,0,0,1.49.09,11.73,11.73,0,0,0,3.48-.61l.22-.06h0A3.2,3.2,0,0,0,284.3,425.46Z"/><path class="cls-3" d="M287.08,385.57a17.59,17.59,0,0,0,1.81,3q1.23-6.22,1.88-12.51c-.56.66-1.09,1.34-1.59,2.06C287.8,380.1,286.1,383.1,287.08,385.57Z"/><path class="cls-3" d="M297.33,354.34c0,2,0,4-.09,6a6.87,6.87,0,0,0,.35-5.37Z"/><path class="cls-3" d="M629.72,212.57c-16,6-31.77,12.93-47.28,20.22-8.35,3.92-7.68,9.67-2.39,17a38.68,38.68,0,0,1,6.65,18.42c.8,8.7-.84,17.61-1,26.44-.24,10-3.3,18.49-14.63,18-12.55-.59-11.69-10.74-11.18-19.88.87-15.3,2.31-30.64,1.86-45.91-.12-4.08-6.14-11.34-9.61-11.44-24.18-.7-42.66,11.5-60.35,28.56,21.13,16.33,12.54,37.44,11,56.53-.45,5.6-9.92,10.47-15.25,15.68-3-6-6.36-11.92-8.71-18.19-1.06-2.83-.08-6.44,0-9.69,1.06-31.61,2.32-63.22,3.12-94.84.33-13-5.4-18-17.15-12.88-16.55,7.15-32.24,16.32-48.09,25-6.9,3.79-7.13,8.63-1.35,14.49,4.14,4.18,10.18,9.61,10.07,14.36-.67,30.13-2.15,60.3-5.13,90.28-.49,4.9-9.76,8.93-15,13.37-2.5-5.85-7.21-11.71-7.15-17.53.34-34.41,1.91-68.81,2.81-103.22.38-14.28-3.31-17.93-16.32-13.22-16.49,6-32.27,13.95-48.17,21.46-7.65,3.61-9.32,9.31-2.21,15.07,9,7.25,11,16.47,10.22,27.34-2.39,35.69-4.06,71.44-6.75,107.12-1.52,20,6.85,28.13,26.34,22.56,23.74-6.78,42.63-21.11,57.56-40.75,12,13.77,20,16.36,37.35,7.18,16.62-8.78,31.69-20.49,47.85-31.18,22.46,20.29,47.93,13.69,78.78-22.06-1.26,22.84-14,39.86-36.28,44.49-13.44,2.8-27.72,1.31-41.47,3-4.11.5-7.73,5.13-11.58,7.87,3,3.93,5.51,10.9,8.89,11.33,35.7,4.51,70.52,1.83,103-15.83,20.61-11.23,34-27.26,34.66-51.7q1.44-53,2.46-106C645.44,213.37,639.05,209.1,629.72,212.57Z"/><path class="cls-3" d="M585.62,330.8c-30.85,35.75-56.32,42.35-78.78,22.06C490.68,363.55,475.61,375.26,459,384c-17.38,9.18-25.32,6.59-37.35-7.18-14.93,19.64-33.82,34-57.56,40.75-19.49,5.57-27.86-2.54-26.34-22.56,2.69-35.68,4.36-71.43,6.75-107.12.73-10.87-1.27-20.09-10.22-27.34-7.11-5.76-5.44-11.46,2.21-15.07,15.9-7.51,31.68-15.48,48.17-21.46,13-4.71,16.7-1.06,16.32,13.22-.9,34.41-2.47,68.81-2.81,103.22-.06,5.82,4.65,11.68,7.15,17.53,5.22-4.44,14.49-8.47,15-13.37,3-30,4.46-60.15,5.13-90.28.11-4.75-5.93-10.18-10.07-14.36-5.78-5.86-5.55-10.7,1.35-14.49,15.85-8.69,31.54-17.86,48.09-25,11.75-5.08,17.48-.17,17.15,12.88-.8,31.62-2.06,63.23-3.12,94.84-.11,3.25-1.09,6.86,0,9.69,2.35,6.27,5.74,12.15,8.71,18.19,5.33-5.21,14.8-10.08,15.25-15.68,1.54-19.09,10.13-40.2-11-56.53,17.69-17.06,36.17-29.26,60.35-28.56,3.47.1,9.49,7.36,9.61,11.44.45,15.27-1,30.61-1.86,45.91-.51,9.14-1.37,19.29,11.18,19.88,11.33.53,14.39-8,14.63-18,.21-8.83,1.85-17.74,1-26.44a38.68,38.68,0,0,0-6.65-18.42c-5.29-7.3-6-13,2.39-17,15.51-7.29,31.23-14.25,47.28-20.22,9.32-3.47,15.71.8,15.52,11.4q-1,53-2.46,106c-.67,24.44-14,40.47-34.66,51.7-32.43,17.66-67.25,20.34-103,15.83-3.38-.43-5.94-7.4-8.89-11.33,3.85-2.74,7.47-7.37,11.58-7.87,13.75-1.67,28-.18,41.47-3C571.64,370.66,584.36,353.64,585.62,330.8Z"/><path class="cls-3" d="M60.63,522.3c23-1.62,40.53-18.66,46-46.1,2.89-14.46,3-29.52,3.88-44.33,1.58-26,2.42-52,4.4-78,.88-11.59-1.53-20.9-10.87-28.23-8.63-6.76-7.86-13.29,1.8-18.07,16.58-8.2,33-16.91,50.2-23.57,13.34-5.16,18.14-1,17.91,13.21-.79,49.29-1.06,98.6-3.1,147.84-2,48.9-51.18,100.52-99.91,105.61-23.79,2.49-45.69-2.88-59.51-25-10.74-17.19-7.07-34,3.93-49.53C26.1,461,40.66,452.67,59.72,456c11.67,2,20.09,8.38,23.43,20.9,3.76,14.08.59,25.7-9.8,35.46C69.72,515.79,65.46,518.57,60.63,522.3Z"/><path class="cls-3" d="M268.72,351.87a2.18,2.18,0,0,0-.22-.43,6.14,6.14,0,0,0-.75-.69h-.09a11.45,11.45,0,0,0-.79.91c.23.24.45.49.67.74Z"/><path class="cls-3" d="M272.57,369.88c.21-.56.42-1.11.64-1.65a2.89,2.89,0,0,1,.69-1,51.31,51.31,0,0,0-1.47-7.78,2.88,2.88,0,0,1-.29-1c-.2-.62-.41-1.22-.63-1.82-.24.08-.47.18-.71.28a11.7,11.7,0,0,1,1.9,5.47C272.72,364.87,272.63,367.37,272.57,369.88Z"/><path class="cls-3" d="M272.22,385.35a27.68,27.68,0,0,0,2.44-4.35v-1A46,46,0,0,1,272.22,385.35Z"/><path class="cls-3" d="M271.38,395.34l-.18.23c-.81,9.61-2,19.19-3.5,28.67-.41,2.53-3.34,5.63-6.78,8a16.89,16.89,0,0,0,9.72-8.91c1.83-4,1.88-9.11,2.34-13.47.65-6.12,1.19-12.29,1.48-18.46C273.45,392.69,272.41,394,271.38,395.34Z"/><path class="cls-3" d="M284.3,425.46a4.71,4.71,0,0,1-3,.46,2.23,2.23,0,0,1-2-2.45,2,2,0,0,1,.06-.35,4.16,4.16,0,0,0,0,3.88c.37.57,0,.24.49.38a5.32,5.32,0,0,0,1.49.09,11.73,11.73,0,0,0,3.48-.61l.22-.06h0A3.2,3.2,0,0,0,284.3,425.46Z"/><path class="cls-3" d="M281.53,385.66a13.29,13.29,0,0,1,1.39-7.66,27.53,27.53,0,0,1,4.91-6.82,3.26,3.26,0,0,1-.31-.33,7.61,7.61,0,0,0-1.4-1.32,2.74,2.74,0,0,1-3.84.38l-.09-.08a.17.17,0,0,1,0,.1,26.7,26.7,0,0,1-1.08,9.15,24.37,24.37,0,0,1-1,2.87,281.86,281.86,0,0,1-2.51,35.19,7,7,0,0,1,5.7-1v-1a2.51,2.51,0,0,1-1.76-1.82c-1.9-6.83-1-13.32,3.29-19a5,5,0,0,1,.49-.54,1.49,1.49,0,0,0-.11-.4C284.29,390.59,282,388.61,281.53,385.66Z"/><path class="cls-3" d="M291.54,351.44a27.6,27.6,0,0,0-7,3c.5.63,1,1.27,1.47,1.93v-.24a2.73,2.73,0,1,1,5.45-.33,1.82,1.82,0,0,1,0,.33V359a2.72,2.72,0,0,1-2.11,2.63,36.56,36.56,0,0,1,2.17,4.92q.35-6.19.34-12.42a2.66,2.66,0,0,1,2.64-2.66,2.56,2.56,0,0,1,.62.07A5,5,0,0,0,291.54,351.44Z"/><path class="cls-3" d="M270.64,317.88c-42.62-.34-82.95,34-91.19,77.63-7.58,40.16,20,73.62,60.73,73.57,44.54-.08,87.6-39.64,91.38-84.08C334.86,346.17,309.46,318.18,270.64,317.88Zm27.08,97.53a2.78,2.78,0,0,1-2.72,2.72c-1.34,0-2.92-1.26-2.73-2.72a37.93,37.93,0,0,0,.23-5.11c0-3.51,5.45-3.5,5.45,0A37.93,37.93,0,0,1,297.72,415.41Zm-1-45.62a160.38,160.38,0,0,1-3.46,24.08,2.34,2.34,0,0,1-2.12,1.94,8,8,0,0,0,.11.84,11.22,11.22,0,0,1,.58,8.6,16.12,16.12,0,0,1-.76,2A67,67,0,0,1,288.83,418a2.67,2.67,0,0,1-2.18,1.9V420c1.44,1.74,3.14,3.26,3.7,5.56a5.26,5.26,0,0,1-3,6.1c-3.49,1.69-9.12,2.22-12-.9a7.29,7.29,0,0,1-1.48-2.52,20.37,20.37,0,0,1-9.07,8.21,17.35,17.35,0,0,1-12.29,1.07c-4.88-1.52-8.21-5.27-11.19-9.23-12.88-17.08-14.85-41.48-4.58-60.14a33.25,33.25,0,0,1,23.55-23,2.54,2.54,0,0,1,1.91.16,2.24,2.24,0,0,1,2.32-1.26,13.23,13.23,0,0,1,3,.55,8.7,8.7,0,0,1,5.27.22,5,5,0,0,1,3.67-1.91,2.54,2.54,0,0,1,.67-.06,10,10,0,0,1,1.34,0,2.77,2.77,0,0,1,2.73,2.73v2.17a3,3,0,0,1-.92,2l.39.38.11.12c5.89-3.87,15.21-7.6,19.92-.88a13.26,13.26,0,0,1-.2,16,37.59,37.59,0,0,1-3.76,4.41Zm10.69-.76a2.78,2.78,0,0,1-2.36,2.67,2.75,2.75,0,0,1-3-1.95c-.26-.77-.49-1.54-.7-2.32a2.78,2.78,0,0,1,.83-2.74v-.77c0-3.51,5.45-3.5,5.45,0a37.47,37.47,0,0,1-.2,5.08Z"/><path class="cls-3" d="M287.08,385.57a17.59,17.59,0,0,0,1.81,3q1.23-6.22,1.88-12.51c-.56.66-1.09,1.34-1.59,2.06C287.8,380.1,286.1,383.1,287.08,385.57Z"/><path class="cls-3" d="M297.33,354.34c0,2,0,4-.09,6a6.87,6.87,0,0,0,.35-5.37Z"/><circle class="cls-4" cx="141.63" cy="230.77" r="38.39"/><g class="cls-5"><path class="cls-1" d="M173.54,533.1a2.54,2.54,0,0,0,3.66,1.77l.48,1.36-2.08.72.25.72q3.43-1.2,3.91.16l.25.72-2.72,1q.74,2.07,4.8.65l.48,1.36-2.08.72.22.64,8.23-2.87,7.42,1.26-.46,1,.22.64q3.44-1.2,3.93.24.87,2.48-23.49,14.29-8.62,3-29.48,21l-2.32,17.74.72-.25q3.2-2.64,20.52-9.49l2.08,1.6-1.83,1.44.23.64c3.67-1.28,5.67-1.47,6-.57l-2.93,2.64.22.64,1.36-.47.09,2.29c.79,2.29,3.25,3.5,7.35,3.62l.22.64-.39.94.23.64c2.28-.8,3.6-.72,3.93.24l.22.64q.74,2.07-39.38,26-5.34,1.88-6.54,25.4l46.48-25.45.47,1.36.72-.25,3.18-1.92c1.39,2.09,2.93,2.83,4.63,2.24l.73,2.07c-1.12.39-2,1.48-2.71,3.28l-1.44.5.22.64,4.16-1.45.5,1.43-3.43,1.2.94.39.25.72-.5.89q10.14-3.54,12.14-.39l-.39,1q3.6-.72,4.16.87-4.69,6-37.56,24.58-38.7,21.3-36.8,26.73.3,3.93-4,8.29l-.72.25-5.27-2-1.44.5L118,700.12c-.41-1.17-3.07-1.53-8-1.06l-1.85,1.36-.94-.39-.25-.72V697l-1.36.48-.46,1-.64.22-1-.47-.23-.64q-1.43-22.34,10.52-132.84-2.4-6.87,6.71-11.57l27-8.62Z"/><path class="cls-1" d="M289.62,489.18l5-1.75q9.59-3.35,18.82,3.1l.76,2.16-2.76,79.88q-3.57,22.11-1.81,59.48l-1.4,2.91-2.16.76-3.63-1.16-.47,1-3.59,1.26-4.34-.91-6.94,3.23-8-4.46-1.75-5q-1.12-3.2-.24-16.85l-34.13-38-11.77-15.24-.72.25-7.7,70.32a89.31,89.31,0,0,0,1.09,26.22l1,.47.25.72q.81,6.16-.87,6.75l-2.15.75-8.7-1.8-1.43.5-2.63,1.72-2.4,0-.94,1.94-1-.47-.72.25-.47,1-9.47-6.37-1-2.87q-4.52-12.95,6.22-90.76L204,525.5q2.83-4.47,22.85-12.81,4.88-1.7,12.57,3.68l.25.72q7.11,20.35,39.73,53.76,4-20.76,1.74-66.62-.8-10.22,5.36-12.36C286.23,491,287.27,490.13,289.62,489.18Z"/><path class="cls-1" d="M389.54,457.71a2.54,2.54,0,0,0,3.66,1.77l.47,1.36-2.07.72.25.72c2.29-.8,3.59-.74,3.91.16l.25.72-2.72.95c.49,1.38,2.08,1.6,4.8.65l.47,1.36-2.07.73.22.63,8.23-2.87,7.42,1.26-.47,1,.23.64q3.44-1.2,3.93.24.87,2.47-23.5,14.29-8.62,3-29.47,21l-2.32,17.74.72-.25q3.19-2.64,20.51-9.49l2.09,1.6-1.83,1.44.23.64q5.5-1.92,6-.56l-2.93,2.63.22.64,1.36-.47.08,2.3q1.2,3.43,7.36,3.61l.22.64-.39.94.22.64q3.43-1.2,3.94.24l.22.64q.72,2.07-39.38,26-5.36,1.86-6.54,25.39l46.48-25.45.47,1.36.72-.25,3.18-1.92c1.39,2.09,2.93,2.83,4.63,2.24l.73,2.07c-1.12.39-2,1.49-2.71,3.28l-1.44.5.22.64,4.16-1.45.5,1.44L406.34,561l.94.39.25.72L407,563q10.14-3.54,12.14-.38l-.39.94q3.6-.72,4.16.88-4.71,6-37.56,24.57-38.7,21.3-36.8,26.73.3,3.93-4,8.29l-.72.26-5.27-2-1.44.5L334,624.73q-.62-1.76-8-1.06L324.14,625l-.94-.39-.25-.72V621.6l-1.36.47-.47,1-.64.22-1-.47-.23-.63q-1.42-22.35,10.52-132.85-2.4-6.85,6.71-11.57l27-8.61Z"/><path class="cls-1" d="M450.2,431.08l6.23-2.18Q503,412.66,522,440.31l2.2,4,.72,2.08q3.21,9.18-31.08,45.16,25.92,40.66,32,58.23l1,.47.23.64,0,2.4,2.89,6-.47,1-1.35.48c-.65-1.87-1.46-2.63-2.41-2.3.48,1.39.27,2.24-.64,2.55l-1.44.5-.88-.49-.72.25c0,2.1-.41,3.28-1.1,3.52l-3.77.51-.85,1.91q-1.71-3.35-4.74-2.29-20.13-22-40.28-53l-27.65,21.39q-.88,11.32-3.08,13.52l.51,3.77-2.07.72.11-8.64-.25-.72-.72.25-.83,8.9,1.94.93q-2.64.91-5.39,18.18-.93.42-1,10.56-1.44.5-2.09,16.32l-.72.25q-1.12-3.19-8.9-3.17l-.86,1.91c-.33-1-1.22-1.18-2.66-.68l-1.82,1.44q-2.82-3.22-5.6-2.7l-.75-2.16q-5.88-16.85,5.72-106.53-18.07-4.8-20.19-10.87l-1.19-3.44q-.74-3.85,21.33-21.51Q416.82,442.73,450.2,431.08Zm-3.1,62.71,1.44-.5q35.5-32.46,40.75-46.21l-.25-.71-14.12,4.21-1.35.47q-26.43,9.22-24.26,15.45Q448.41,490.38,447.1,493.79Z"/><path class="cls-1" d="M589.91,389.39l2.31-.81q20.13-7,34,7.66,3.71,16.53.27,17.73l-.8.28q-4.71,1.63-17.47,1L592.62,419Q551.34,433.41,535,477.28q-6.41,20.69.26,39.77,3.7,10.62,19.6,5.08,9.59-3.35,25.11-15.58l-.25-.71-.8.27-21.35,9.16c-.48-1.39-3.13-2.46-7.94-3.23l.47-1-.28-.8-4.47,1.56-.53-1.52L549,508l-.25-.72-6.27,1.3-.53-1.52,2.24-.78-.25-.72-3.75,1.31-.28-.8.73-2.76q-5.34,1.86-5.87.35-1.77-5,85.64-53.63,8.7-3,16.53,6.05l1.61,2q2.73,7.82-4.82,20.31,2.58,7.43-27.21,43.45-14.29,16-31.39,22l-6.79,2.37q-33.93,11.85-57.58-19l-3.09-6.53-1.59-4.56q-9.52-27.3,19.36-80.56Q549.34,403.56,589.91,389.39Z"/><path class="cls-1" d="M715.76,341.89l3-1q5.43-1.91,17.46,5.37l1,2.95q-58.28,116.64-67.48,125.94,1,3-2.64,4.24.81,2.31-10,23.09-7.36,13.5-6.79,22.88l-3.42,2a10.6,10.6,0,0,1-8.3-.42l-.91,2q-2.57-4-9.59-1.57L621,523.31l-.53-1.52q-4-11.34,34.44-75.08,9.4-20,8.76-21.87-37.49-18.09-44.12-37.09L618,383.36q2.25-5.62,11-8.66l2.88-1Q645.3,369,659.39,387,662,394.35,678,402.63q5.43-7.54,24.2-50.28Q709.13,344.21,715.76,341.89Z"/></g><g class="cls-5"><path class="cls-6" d="M173.54,533.1a2.54,2.54,0,0,0,3.66,1.77l.48,1.36-2.08.72.25.72q3.43-1.2,3.91.16l.25.72-2.72,1q.74,2.07,4.8.65l.48,1.36-2.08.72.22.64,8.23-2.87,7.42,1.26-.46,1,.22.64q3.44-1.2,3.93.24.87,2.48-23.49,14.29-8.62,3-29.48,21l-2.32,17.74.72-.25q3.2-2.64,20.52-9.49l2.08,1.6-1.83,1.44.23.64c3.67-1.28,5.67-1.47,6-.57l-2.93,2.64.22.64,1.36-.47.09,2.29c.79,2.29,3.25,3.5,7.35,3.62l.22.64-.39.94.23.64c2.28-.8,3.6-.72,3.93.24l.22.64q.74,2.07-39.38,26-5.34,1.88-6.54,25.4l46.48-25.45.47,1.36.72-.25,3.18-1.92c1.39,2.09,2.93,2.83,4.63,2.24l.73,2.07c-1.12.39-2,1.48-2.71,3.28l-1.44.5.22.64,4.16-1.45.5,1.43-3.43,1.2.94.39.25.72-.5.89q10.14-3.54,12.14-.39l-.39,1q3.6-.72,4.16.87-4.69,6-37.56,24.58-38.7,21.3-36.8,26.73.3,3.93-4,8.29l-.72.25-5.27-2-1.44.5L118,700.12c-.41-1.17-3.07-1.53-8-1.06l-1.85,1.36-.94-.39-.25-.72V697l-1.36.48-.46,1-.64.22-1-.47-.23-.64q-1.43-22.34,10.52-132.84-2.4-6.87,6.71-11.57l27-8.62Z"/><path class="cls-6" d="M289.62,489.18l5-1.75q9.59-3.35,18.82,3.1l.76,2.16-2.76,79.88q-3.57,22.11-1.81,59.48l-1.4,2.91-2.16.76-3.63-1.16-.47,1-3.59,1.26-4.34-.91-6.94,3.23-8-4.46-1.75-5q-1.12-3.2-.24-16.85l-34.13-38-11.77-15.24-.72.25-7.7,70.32a89.31,89.31,0,0,0,1.09,26.22l1,.47.25.72q.81,6.16-.87,6.75l-2.15.75-8.7-1.8-1.43.5-2.63,1.72-2.4,0-.94,1.94-1-.47-.72.25-.47,1-9.47-6.37-1-2.87q-4.52-12.95,6.22-90.76L204,525.5q2.83-4.47,22.85-12.81,4.88-1.7,12.57,3.68l.25.72q7.11,20.35,39.73,53.76,4-20.76,1.74-66.62-.8-10.22,5.36-12.36C286.23,491,287.27,490.13,289.62,489.18Z"/><path class="cls-6" d="M389.54,457.71a2.54,2.54,0,0,0,3.66,1.77l.47,1.36-2.07.72.25.72c2.29-.8,3.59-.74,3.91.16l.25.72-2.72.95c.49,1.38,2.08,1.6,4.8.65l.47,1.36-2.07.73.22.63,8.23-2.87,7.42,1.26-.47,1,.23.64q3.44-1.2,3.93.24.87,2.47-23.5,14.29-8.62,3-29.47,21l-2.32,17.74.72-.25q3.19-2.64,20.51-9.49l2.09,1.6-1.83,1.44.23.64q5.5-1.92,6-.56l-2.93,2.63.22.64,1.36-.47.08,2.3q1.2,3.43,7.36,3.61l.22.64-.39.94.22.64q3.43-1.2,3.94.24l.22.64q.72,2.07-39.38,26-5.36,1.86-6.54,25.39l46.48-25.45.47,1.36.72-.25,3.18-1.92c1.39,2.09,2.93,2.83,4.63,2.24l.73,2.07c-1.12.39-2,1.49-2.71,3.28l-1.44.5.22.64,4.16-1.45.5,1.44L406.34,561l.94.39.25.72L407,563q10.14-3.54,12.14-.38l-.39.94q3.6-.72,4.16.88-4.71,6-37.56,24.57-38.7,21.3-36.8,26.73.3,3.93-4,8.29l-.72.26-5.27-2-1.44.5L334,624.73q-.62-1.76-8-1.06L324.14,625l-.94-.39-.25-.72V621.6l-1.36.47-.47,1-.64.22-1-.47-.23-.63q-1.42-22.35,10.52-132.85-2.4-6.85,6.71-11.57l27-8.61Z"/><path class="cls-6" d="M450.2,431.08l6.23-2.18Q503,412.66,522,440.31l2.2,4,.72,2.08q3.21,9.18-31.08,45.16,25.92,40.66,32,58.23l1,.47.23.64,0,2.4,2.89,6-.47,1-1.35.48c-.65-1.87-1.46-2.63-2.41-2.3.48,1.39.27,2.24-.64,2.55l-1.44.5-.88-.49-.72.25c0,2.1-.41,3.28-1.1,3.52l-3.77.51-.85,1.91q-1.71-3.35-4.74-2.29-20.13-22-40.28-53l-27.65,21.39q-.88,11.32-3.08,13.52l.51,3.77-2.07.72.11-8.64-.25-.72-.72.25-.83,8.9,1.94.93q-2.64.91-5.39,18.18-.93.42-1,10.56-1.44.5-2.09,16.32l-.72.25q-1.12-3.19-8.9-3.17l-.86,1.91c-.33-1-1.22-1.18-2.66-.68l-1.82,1.44q-2.82-3.22-5.6-2.7l-.75-2.16q-5.88-16.85,5.72-106.53-18.07-4.8-20.19-10.87l-1.19-3.44q-.74-3.85,21.33-21.51Q416.82,442.73,450.2,431.08Zm-3.1,62.71,1.44-.5q35.5-32.46,40.75-46.21l-.25-.71-14.12,4.21-1.35.47q-26.43,9.22-24.26,15.45Q448.41,490.38,447.1,493.79Z"/><path class="cls-6" d="M589.91,389.39l2.31-.81q20.13-7,34,7.66,3.71,16.53.27,17.73l-.8.28q-4.71,1.63-17.47,1L592.62,419Q551.34,433.41,535,477.28q-6.41,20.69.26,39.77,3.7,10.62,19.6,5.08,9.59-3.35,25.11-15.58l-.25-.71-.8.27-21.35,9.16c-.48-1.39-3.13-2.46-7.94-3.23l.47-1-.28-.8-4.47,1.56-.53-1.52L549,508l-.25-.72-6.27,1.3-.53-1.52,2.24-.78-.25-.72-3.75,1.31-.28-.8.73-2.76q-5.34,1.86-5.87.35-1.77-5,85.64-53.63,8.7-3,16.53,6.05l1.61,2q2.73,7.82-4.82,20.31,2.58,7.43-27.21,43.45-14.29,16-31.39,22l-6.79,2.37q-33.93,11.85-57.58-19l-3.09-6.53-1.59-4.56q-9.52-27.3,19.36-80.56Q549.34,403.56,589.91,389.39Z"/><path class="cls-6" d="M715.76,341.89l3-1q5.43-1.91,17.46,5.37l1,2.95q-58.28,116.64-67.48,125.94,1,3-2.64,4.24.81,2.31-10,23.09-7.36,13.5-6.79,22.88l-3.42,2a10.6,10.6,0,0,1-8.3-.42l-.91,2q-2.57-4-9.59-1.57L621,523.31l-.53-1.52q-4-11.34,34.44-75.08,9.4-20,8.76-21.87-37.49-18.09-44.12-37.09L618,383.36q2.25-5.62,11-8.66l2.88-1Q645.3,369,659.39,387,662,394.35,678,402.63q5.43-7.54,24.2-50.28Q709.13,344.21,715.76,341.89Z"/></g><path class="cls-3" d="M179.79,444c2-49.24,2.3-98.55,3.1-147.84C183.12,282,178.31,277.79,165,283c-17.2,6.66-33.63,15.37-50.2,23.57-9.67,4.79-10.43,11.31-1.81,18.07,9.34,7.33,11.76,16.65,10.87,28.23-2,26-2.81,52-4.4,78-.9,14.82-1,29.87-3.88,44.33-5.48,27.44-23,44.49-46,46.1,4.82-3.73,9.07-6.51,12.71-9.93,10.4-9.76,13.57-21.38,9.81-35.45C88.74,463.35,80.32,457,68.65,455c-19.06-3.34-33.63,5-44.34,20.15-11,15.52-14.68,32.34-3.93,49.53,13.81,22.11,35.71,27.48,59.51,25C128.61,544.47,177.72,492.85,179.79,444Z"/><path class="cls-3" d="M261.72,389.77c0-1.56.12-3.11.12-4.6a2.52,2.52,0,0,1,.91-2,12.64,12.64,0,0,1,.66-3.65,9.86,9.86,0,0,1-.14-1.8c-.38,1-.72,2-1,3-.24,3.09-.58,6.16-1,9.22v.22Z"/><path class="cls-3" d="M267.92,372c0-1.19-.06-2.37-.07-3.54a54.68,54.68,0,0,0-3.27,6.14,2.82,2.82,0,0,1,1.74-.6A16.49,16.49,0,0,1,267.92,372Z"/><path class="cls-3" d="M273.33,395a.74.74,0,0,1-.05.32v2.31a10.19,10.19,0,0,1,.41,1.8c.22-1.78.44-3.57.64-5.36A2.25,2.25,0,0,1,273.33,395Z"/><path class="cls-3" d="M268.61,353.22a2.47,2.47,0,0,1,.72-.33,2.21,2.21,0,0,0-.5-.21,2.93,2.93,0,0,0-.6-.15,30.16,30.16,0,0,0-4.33,2.52v.09A31,31,0,0,1,268.61,353.22Z"/><path class="cls-3" d="M254.58,414.43a7.08,7.08,0,0,1-1-.81,2.76,2.76,0,0,1,1.21-4.55L255,409c-.06-.44-.11-.88-.17-1.33a53.23,53.23,0,0,1-3.65-14.8,80.35,80.35,0,0,0-.12,18.6c.05.46.11.92.19,1.38.65,1.51,1.18,3.09,1.71,4.67a2.48,2.48,0,0,0,1.12.37C254.24,416.73,254.39,415.58,254.58,414.43Z"/><path class="cls-3" d="M269.8,421.5l.15.18a11.32,11.32,0,0,0,1-2.38c.17-.62.32-1.25.44-1.88-.33.09-.66.17-1,.23A5.73,5.73,0,0,1,269.8,421.5Z"/><path class="cls-3" d="M265,425.63a2.74,2.74,0,0,1-2.14.77,2,2,0,0,1-.1.26,7.45,7.45,0,0,0,3.44-1,4.46,4.46,0,0,0-.54-.75C265.42,425.14,265.2,425.39,265,425.63Z"/><path class="cls-3" d="M265.46,361.64a17.36,17.36,0,0,0-2.74,3.36v1.39c.31-.52.63-1,1-1.56a2.62,2.62,0,0,1,2.06-1.26A3.08,3.08,0,0,1,265.46,361.64Z"/><path class="cls-3" d="M283.33,372.21a2.65,2.65,0,0,1-2.25.16c0,1.68,0,3.36-.05,5a268.6,268.6,0,0,1-2.86,29.29l-.09.79a2.49,2.49,0,0,1,1.2,2.22,37.78,37.78,0,0,1-.23,5.1,2.91,2.91,0,0,1-2.11,2.66c-.64,3.71-1.78,7.27-4.28,10.1a15.45,15.45,0,0,1-1.76,1.67,5.7,5.7,0,0,1-2.18,1.8,10.28,10.28,0,0,1-1.33.54c5.22-.55,10-4.7,12.14-9.41,1.83-4,1.88-9.12,2.35-13.48C283.18,396.61,284,384.36,283.33,372.21Z"/><path class="cls-3" d="M279.55,316.76c-42.62-.33-82.94,34-91.18,77.63-7.59,40.16,20,73.62,60.72,73.57,44.57,0,87.61-39.64,91.38-84.06C343.77,345.05,318.38,317.06,279.55,316.76Zm9.31,56.43c.05,1.37.08,2.64.11,3.77.3,13.13-.89,26.28-2.5,39.3-1,8.12-4.9,15.5-12.64,19.06a17.22,17.22,0,0,1-12.28,1.07c-4.88-1.52-8.21-5.26-11.2-9.23-12.88-17.08-14.84-41.48-4.57-60.14a33.9,33.9,0,0,1,11.45-17,2.46,2.46,0,0,1,1.69-1.23A35.17,35.17,0,0,1,269.33,344a2.51,2.51,0,0,1,1.9.16,2.29,2.29,0,0,1,2.33-1.26,12.05,12.05,0,0,1,6,2,5.77,5.77,0,0,1,1.3,1c3.86,3.39,5.86,9.16,6.86,15.1a2.46,2.46,0,0,1,1.3,2.28c0,1.22,0,2.43-.09,3.64a31.8,31.8,0,0,1,1.14,3.28A2.78,2.78,0,0,1,288.86,373.19Z"/><path class="cls-3" d="M638.64,211.45c-16,6-31.76,12.93-47.27,20.22-8.35,3.92-7.68,9.67-2.4,17a38.68,38.68,0,0,1,6.65,18.42c.81,8.7-.83,17.61-1,26.44-.24,10-3.29,18.49-14.63,18-12.54-.59-11.69-10.74-11.17-19.88.87-15.3,2.31-30.64,1.86-45.91-.12-4.08-6.14-11.34-9.61-11.44-24.19-.7-42.67,11.5-60.35,28.56,21.12,16.33,12.54,37.44,11,56.53-.45,5.6-9.92,10.47-15.25,15.68-3-6-6.36-11.92-8.71-18.18-1.06-2.84-.08-6.44,0-9.7,1.07-31.61,2.33-63.22,3.12-94.84.33-13-5.39-18-17.15-12.88-16.54,7.15-32.24,16.32-48.08,25-6.91,3.79-7.14,8.63-1.35,14.49,4.13,4.18,10.17,9.61,10.07,14.36-.67,30.14-2.15,60.3-5.14,90.28-.48,4.91-9.76,8.93-15,13.37-2.51-5.85-7.21-11.71-7.15-17.53.34-34.41,1.9-68.81,2.81-103.22.38-14.28-3.31-17.93-16.33-13.21C377,229,361.24,237,345.34,244.46c-7.64,3.61-9.32,9.31-2.21,15.07,9,7.25,11,16.47,10.23,27.34-2.4,35.7-4.06,71.45-6.76,107.12-1.51,20,6.86,28.13,26.35,22.56,23.74-6.78,42.62-21.11,57.56-40.75,12,13.77,20,16.36,37.34,7.18,16.62-8.77,31.69-20.49,47.86-31.18,22.46,20.29,47.93,13.69,78.78-22.06-1.27,22.84-14,39.86-36.29,44.49-13.43,2.8-27.71,1.32-41.46,3-4.12.5-7.73,5.13-11.58,7.87,2.94,3.93,5.5,10.9,8.89,11.33,35.69,4.51,70.52,1.83,102.94-15.83,20.61-11.23,34-27.26,34.66-51.69q1.44-53,2.46-106C654.36,212.25,648,208,638.64,211.45Z"/><path class="cls-3" d="M594.54,329.68c-30.82,35.75-56.32,42.32-78.82,22.06-16.17,10.69-31.24,22.41-47.86,31.18-17.38,9.18-25.31,6.59-37.34-7.18-14.94,19.64-33.82,34-57.56,40.75-19.49,5.57-27.86-2.54-26.35-22.56,2.7-35.67,4.36-71.42,6.76-107.12.73-10.87-1.27-20.09-10.23-27.34-7.11-5.76-5.43-11.46,2.21-15.07,15.9-7.51,31.69-15.48,48.17-21.45,13-4.72,16.71-1.07,16.33,13.21-.91,34.41-2.47,68.81-2.81,103.22-.06,5.82,4.64,11.68,7.15,17.53,5.21-4.44,14.49-8.46,15-13.37,3-30,4.47-60.14,5.14-90.28.1-4.75-5.94-10.18-10.07-14.36-5.79-5.86-5.56-10.7,1.35-14.49,15.84-8.69,31.54-17.86,48.08-25,11.76-5.08,17.48-.17,17.15,12.88-.79,31.62-2,63.23-3.12,94.84-.1,3.26-1.08,6.86,0,9.7,2.35,6.26,5.74,12.14,8.71,18.18,5.33-5.21,14.8-10.08,15.25-15.68,1.54-19.09,10.12-40.2-11-56.53,17.68-17.06,36.16-29.26,60.35-28.56,3.47.1,9.49,7.36,9.61,11.44.45,15.27-1,30.61-1.86,45.91-.52,9.14-1.37,19.29,11.17,19.88,11.34.53,14.39-8,14.63-18,.22-8.83,1.86-17.74,1-26.44A38.68,38.68,0,0,0,589,248.61c-5.28-7.3-6-13.05,2.4-17,15.51-7.29,31.22-14.25,47.27-20.22,9.33-3.47,15.72.8,15.52,11.4q-1,53-2.46,106c-.66,24.43-14,40.46-34.66,51.69-32.42,17.66-67.25,20.34-102.94,15.83-3.39-.43-6-7.4-8.89-11.33,3.85-2.74,7.46-7.37,11.58-7.87,13.75-1.66,28-.18,41.46-3C580.56,369.54,593.27,352.52,594.54,329.68Z"/><path class="cls-3" d="M69.55,521.18c23-1.61,40.53-18.66,46-46.1,2.89-14.46,3-29.51,3.88-44.33,1.59-26,2.42-52,4.4-78,.89-11.58-1.53-20.9-10.87-28.23-8.62-6.76-7.86-13.28,1.81-18.07,16.57-8.2,33-16.91,50.2-23.57,13.33-5.16,18.14-1,17.91,13.21-.8,49.29-1.07,98.6-3.1,147.84-2,48.9-51.18,100.52-99.91,105.62-23.8,2.48-45.7-2.89-59.51-25-10.75-17.19-7.07-34,3.93-49.53C35,459.9,49.57,451.53,68.63,454.87c11.67,2.05,20.09,8.39,23.43,20.91,3.76,14.07.59,25.69-9.81,35.45C78.62,514.67,74.37,517.45,69.55,521.18Z"/><path class="cls-3" d="M283.33,372.21a2.68,2.68,0,0,1-2,.25c-.38,11.89-1.23,23.78-2.64,35.59a2.51,2.51,0,0,1,.54,1.64,37.78,37.78,0,0,1-.23,5.1,3.09,3.09,0,0,1-1.53,2.44c-.29,2-.58,3.93-.9,5.89-.41,2.53-3.35,5.63-6.78,8a16.88,16.88,0,0,0,9.71-8.9c1.83-4,1.88-9.12,2.35-13.48C283.18,396.61,284,384.36,283.33,372.21Z"/><path class="cls-3" d="M279.55,316.76c-42.62-.33-82.94,34-91.18,77.63-7.59,40.16,20,73.62,60.72,73.57,44.57,0,87.61-39.64,91.38-84.06C343.77,345.05,318.38,317.06,279.55,316.76Zm9.31,56.43c.05,1.37.08,2.64.11,3.77.3,13.13-.89,26.28-2.5,39.3-1,8.12-4.9,15.5-12.64,19.06a17.22,17.22,0,0,1-12.28,1.07c-4.88-1.52-8.21-5.26-11.2-9.23-12.88-17.08-14.84-41.48-4.57-60.14a33.9,33.9,0,0,1,11.45-17,2.46,2.46,0,0,1,1.69-1.23A35.17,35.17,0,0,1,269.33,344a2.51,2.51,0,0,1,1.9.16,2.29,2.29,0,0,1,2.33-1.26,12.05,12.05,0,0,1,6,2,5.77,5.77,0,0,1,1.3,1c3.86,3.39,5.86,9.16,6.86,15.1a2.46,2.46,0,0,1,1.3,2.28c0,1.22,0,2.43-.09,3.64a31.8,31.8,0,0,1,1.14,3.28A2.78,2.78,0,0,1,288.86,373.19Z"/><g class="cls-5"><path class="cls-1" d="M167.62,536a2.61,2.61,0,0,0,3.78,1.78l.5,1.39-2.13.76.27.74q3.51-1.26,4,.12l.27.74-2.78,1c.51,1.42,2.15,1.62,4.93.62l.5,1.39-2.12.77.23.65,8.42-3,7.64,1.23-.47,1,.23.65q3.51-1.26,4,.21.9,2.54-24,14.9-8.82,3.18-30.06,21.89l-2.21,18.24.74-.27q3.26-2.73,21-9.94l2.16,1.63-1.87,1.5.24.65q5.64-2,6.14-.64l-3,2.74.24.65,1.39-.5.11,2.36c.84,2.34,3.37,3.56,7.58,3.64l.24.66-.39,1,.24.65q3.51-1.26,4,.21l.23.65q.76,2.13-40.19,27.1-5.48,2-6.47,26.14l47.48-26.58.5,1.39.74-.27,3.25-2q2.16,3.2,4.78,2.25l.76,2.13q-1.71.62-2.75,3.39l-1.47.53.23.65,4.25-1.53.53,1.47L185.88,642l1,.39.26.73-.5.92q10.38-3.74,12.46-.51l-.39,1q3.69-.78,4.28.86-4.77,6.24-38.32,25.6-39.54,22.25-37.54,27.81.34,4-4,8.55l-.74.27-5.43-2-1.47.53-3.25,2q-.65-1.8-8.21-1l-1.89,1.42-1-.39-.27-.73,0-2.39-1.39.5-.47,1-.66.23-1-.47-.23-.65q-1.69-22.94,9.51-136.52-2.52-7,6.78-11.95L141,548Z"/><path class="cls-1" d="M286.4,489.79l5.15-1.85q9.81-3.53,19.36,3l.79,2.21-2.05,82.05q-3.45,22.75-1.29,61.11l-1.41,3-2.21.79L301,639l-.48,1-3.67,1.33-4.47-.89-7.1,3.38-8.26-4.5-1.85-5.15q-1.19-3.27-.41-17.3l-35.42-38.67-12.23-15.54-.73.26-7.24,72.29a91.94,91.94,0,0,0,1.38,26.92l1,.47.26.74c.6,4.21.32,6.53-.82,6.94l-2.21.79-8.94-1.76-1.47.52-2.68,1.8-2.47.06-.94,2-1-.47-.73.26-.47,1-9.8-6.45-1.05-2.94q-4.77-13.24,5.5-93.26l4.16-43.87q2.85-4.62,23.34-13.38,5-1.78,12.94,3.66l.27.73q7.5,20.85,41.32,54.83,3.94-21.36,1.14-68.44-.92-10.47,5.38-12.73Q282.78,491.29,286.4,489.79Z"/><path class="cls-1" d="M388.7,456.51a2.61,2.61,0,0,0,3.78,1.78l.5,1.39-2.12.77.26.73q3.51-1.26,4,.13l.27.73-2.78,1q.76,2.13,4.93.63l.5,1.39-2.12.76.23.65,8.42-3,7.64,1.22-.47,1,.23.65c2.35-.84,3.69-.77,4,.21q.9,2.54-24,14.91-8.84,3.17-30.07,21.88l-2.21,18.24.74-.26q3.25-2.74,21-9.94l2.16,1.62-1.86,1.5.23.65q5.64-2,6.14-.64l-3,2.74.23.65,1.39-.5.11,2.36q1.26,3.53,7.59,3.64l.23.66-.39,1,.24.65q3.51-1.26,4,.21l.24.65q.77,2.13-40.19,27.1-5.47,2-6.48,26.15l47.48-26.59.5,1.39.74-.26,3.25-2q2.16,3.2,4.78,2.25l.76,2.12c-1.14.42-2.06,1.54-2.75,3.39l-1.47.53.24.66,4.25-1.53.52,1.47L407,562.46l1,.39.27.74-.51.92q10.38-3.74,12.47-.52l-.39,1c2.46-.51,3.88-.23,4.28.86q-4.77,6.24-38.33,25.6-39.54,22.26-37.54,27.81.35,4-4,8.55l-.73.27L338,626l-1.47.53-3.25,2q-.64-1.8-8.21-1L323.16,629l-1-.39-.26-.73,0-2.39-1.39.5-.47,1-.66.24-1-.48-.23-.65q-1.69-22.93,9.51-136.52-2.52-7,6.78-11.94l27.65-9.12Z"/><path class="cls-1" d="M450.74,428.57l6.38-2.29q47.64-17.14,67.49,11.08l2.29,4.07.76,2.12q3.39,9.4-31.48,46.68,27,41.5,33.48,59.49l1,.47.24.65.05,2.47,3,6.11-.47,1-1.39.5c-.68-1.9-1.52-2.68-2.5-2.33.51,1.42.3,2.29-.62,2.63l-1.47.53-.92-.5-.74.26c0,2.16-.39,3.37-1.09,3.62l-3.86.56-.86,2c-1.19-2.28-2.83-3-4.9-2.3q-20.88-22.4-41.87-54.07L445.1,533.52c-.53,7.75-1.54,12.4-3,13.91l.55,3.86-2.12.77,0-8.88-.27-.73-.73.26-.78,9.14,2,.94q-2.68,1-5.35,18.73-1,.43-.9,10.84-1.47.54-2,16.78l-.73.27q-1.19-3.27-9.17-3.17l-.86,2c-.36-1-1.27-1.2-2.74-.67l-1.86,1.5q-2.93-3.28-5.78-2.72l-.79-2.21q-6.21-17.25,4.85-109.46-18.6-4.75-20.84-11l-1.26-3.51q-.78-4,21.7-22.3Q416.59,440.87,450.74,428.57ZM448.16,493l1.47-.53Q485.8,458.79,491,444.63l-.27-.74-14.45,4.47-1.39.5q-27.06,9.72-24.76,16.1Q449.48,489.49,448.16,493Z"/><path class="cls-1" d="M593.81,384.41l2.37-.85q20.6-7.41,35,7.53,4,16.94.45,18.2l-.81.3q-4.83,1.74-17.94,1.19l-16,4Q554.63,430,538.21,475.2q-6.36,21.3.66,40.84,3.92,10.86,20.17,5,9.81-3.52,25.64-16.24l-.26-.73-.82.29L561.76,514c-.51-1.42-3.23-2.5-8.18-3.24l.47-1-.29-.82-4.58,1.65-.56-1.56,4.32-2.38-.27-.73-6.42,1.38-.56-1.55,2.29-.82-.27-.74-3.84,1.38-.29-.81.73-2.85q-5.47,2-6,.41-1.85-5.15,87.43-55.9,8.91-3.2,17,6.06l1.67,2.08q2.88,8-4.76,20.91,2.73,7.59-27.51,44.87-14.53,16.59-32,22.87l-7,2.5q-34.74,12.49-59.32-18.91l-3.24-6.68-1.67-4.66q-10.05-28,19.1-82.93Q552.28,399.36,593.81,384.41Z"/><path class="cls-1" d="M722.58,334.41l3-1.09q5.55-2,18,5.35l1.09,3Q686,462,676.6,471.68q1.08,3-2.67,4.37.86,2.37-10,23.81-7.46,13.93-6.76,23.57l-3.49,2.08a10.94,10.94,0,0,1-8.53-.35l-.91,2.09q-2.68-4.12-9.87-1.53L627,521.63l-.56-1.55q-4.17-11.61,34.64-77.44,9.46-20.65,8.79-22.54-38.68-18.21-45.67-37.66l-1.62-4.5q2.26-5.79,11.17-9l2.94-1.06q13.8-5,28.45,13.4,2.7,7.53,19.27,15.87,5.51-7.8,24.36-51.87Q715.79,336.85,722.58,334.41Z"/></g><g class="cls-5"><path class="cls-7" d="M167.62,536a2.61,2.61,0,0,0,3.78,1.78l.5,1.39-2.13.76.27.74q3.51-1.26,4,.12l.27.74-2.78,1c.51,1.42,2.15,1.62,4.93.62l.5,1.39-2.12.77.23.65,8.42-3,7.64,1.23-.47,1,.23.65q3.51-1.26,4,.21.9,2.54-24,14.9-8.82,3.18-30.06,21.89l-2.21,18.24.74-.27q3.26-2.73,21-9.94l2.16,1.63-1.87,1.5.24.65q5.64-2,6.14-.64l-3,2.74.24.65,1.39-.5.11,2.36c.84,2.34,3.37,3.56,7.58,3.64l.24.66-.39,1,.24.65q3.51-1.26,4,.21l.23.65q.76,2.13-40.19,27.1-5.48,2-6.47,26.14l47.48-26.58.5,1.39.74-.27,3.25-2q2.16,3.2,4.78,2.25l.76,2.13q-1.71.62-2.75,3.39l-1.47.53.23.65,4.25-1.53.53,1.47L185.88,642l1,.39.26.73-.5.92q10.38-3.74,12.46-.51l-.39,1q3.69-.78,4.28.86-4.77,6.24-38.32,25.6-39.54,22.25-37.54,27.81.34,4-4,8.55l-.74.27-5.43-2-1.47.53-3.25,2q-.65-1.8-8.21-1l-1.89,1.42-1-.39-.27-.73,0-2.39-1.39.5-.47,1-.66.23-1-.47-.23-.65q-1.69-22.94,9.51-136.52-2.52-7,6.78-11.95L141,548Z"/><path class="cls-7" d="M286.4,489.79l5.15-1.85q9.81-3.53,19.36,3l.79,2.21-2.05,82.05q-3.45,22.75-1.29,61.11l-1.41,3-2.21.79L301,639l-.48,1-3.67,1.33-4.47-.89-7.1,3.38-8.26-4.5-1.85-5.15q-1.19-3.27-.41-17.3l-35.42-38.67-12.23-15.54-.73.26-7.24,72.29a91.94,91.94,0,0,0,1.38,26.92l1,.47.26.74c.6,4.21.32,6.53-.82,6.94l-2.21.79-8.94-1.76-1.47.52-2.68,1.8-2.47.06-.94,2-1-.47-.73.26-.47,1-9.8-6.45-1.05-2.94q-4.77-13.24,5.5-93.26l4.16-43.87q2.85-4.62,23.34-13.38,5-1.78,12.94,3.66l.27.73q7.5,20.85,41.32,54.83,3.94-21.36,1.14-68.44-.92-10.47,5.38-12.73Q282.78,491.29,286.4,489.79Z"/><path class="cls-7" d="M388.7,456.51a2.61,2.61,0,0,0,3.78,1.78l.5,1.39-2.12.77.26.73q3.51-1.26,4,.13l.27.73-2.78,1q.76,2.13,4.93.63l.5,1.39-2.12.76.23.65,8.42-3,7.64,1.22-.47,1,.23.65c2.35-.84,3.69-.77,4,.21q.9,2.54-24,14.91-8.84,3.17-30.07,21.88l-2.21,18.24.74-.26q3.25-2.74,21-9.94l2.16,1.62-1.86,1.5.23.65q5.64-2,6.14-.64l-3,2.74.23.65,1.39-.5.11,2.36q1.26,3.53,7.59,3.64l.23.66-.39,1,.24.65q3.51-1.26,4,.21l.24.65q.77,2.13-40.19,27.1-5.47,2-6.48,26.15l47.48-26.59.5,1.39.74-.26,3.25-2q2.16,3.2,4.78,2.25l.76,2.12c-1.14.42-2.06,1.54-2.75,3.39l-1.47.53.24.66,4.25-1.53.52,1.47L407,562.46l1,.39.27.74-.51.92q10.38-3.74,12.47-.52l-.39,1c2.46-.51,3.88-.23,4.28.86q-4.77,6.24-38.33,25.6-39.54,22.26-37.54,27.81.35,4-4,8.55l-.73.27L338,626l-1.47.53-3.25,2q-.64-1.8-8.21-1L323.16,629l-1-.39-.26-.73,0-2.39-1.39.5-.47,1-.66.24-1-.48-.23-.65q-1.69-22.93,9.51-136.52-2.52-7,6.78-11.94l27.65-9.12Z"/><path class="cls-7" d="M450.74,428.57l6.38-2.29q47.64-17.14,67.49,11.08l2.29,4.07.76,2.12q3.39,9.4-31.48,46.68,27,41.5,33.48,59.49l1,.47.24.65.05,2.47,3,6.11-.47,1-1.39.5c-.68-1.9-1.52-2.68-2.5-2.33.51,1.42.3,2.29-.62,2.63l-1.47.53-.92-.5-.74.26c0,2.16-.39,3.37-1.09,3.62l-3.86.56-.86,2c-1.19-2.28-2.83-3-4.9-2.3q-20.88-22.4-41.87-54.07L445.1,533.52c-.53,7.75-1.54,12.4-3,13.91l.55,3.86-2.12.77,0-8.88-.27-.73-.73.26-.78,9.14,2,.94q-2.68,1-5.35,18.73-1,.43-.9,10.84-1.47.54-2,16.78l-.73.27q-1.19-3.27-9.17-3.17l-.86,2c-.36-1-1.27-1.2-2.74-.67l-1.86,1.5q-2.93-3.28-5.78-2.72l-.79-2.21q-6.21-17.25,4.85-109.46-18.6-4.75-20.84-11l-1.26-3.51q-.78-4,21.7-22.3Q416.59,440.87,450.74,428.57ZM448.16,493l1.47-.53Q485.8,458.79,491,444.63l-.27-.74-14.45,4.47-1.39.5q-27.06,9.72-24.76,16.1Q449.48,489.49,448.16,493Z"/><path class="cls-7" d="M593.81,384.41l2.37-.85q20.6-7.41,35,7.53,4,16.94.45,18.2l-.81.3q-4.83,1.74-17.94,1.19l-16,4Q554.63,430,538.21,475.2q-6.36,21.3.66,40.84,3.92,10.86,20.17,5,9.81-3.52,25.64-16.24l-.26-.73-.82.29L561.76,514c-.51-1.42-3.23-2.5-8.18-3.24l.47-1-.29-.82-4.58,1.65-.56-1.56,4.32-2.38-.27-.73-6.42,1.38-.56-1.55,2.29-.82-.27-.74-3.84,1.38-.29-.81.73-2.85q-5.47,2-6,.41-1.85-5.15,87.43-55.9,8.91-3.2,17,6.06l1.67,2.08q2.88,8-4.76,20.91,2.73,7.59-27.51,44.87-14.53,16.59-32,22.87l-7,2.5q-34.74,12.49-59.32-18.91l-3.24-6.68-1.67-4.66q-10.05-28,19.1-82.93Q552.28,399.36,593.81,384.41Z"/><path class="cls-7" d="M722.58,334.41l3-1.09q5.55-2,18,5.35l1.09,3Q686,462,676.6,471.68q1.08,3-2.67,4.37.86,2.37-10,23.81-7.46,13.93-6.76,23.57l-3.49,2.08a10.94,10.94,0,0,1-8.53-.35l-.91,2.09q-2.68-4.12-9.87-1.53L627,521.63l-.56-1.55q-4.17-11.61,34.64-77.44,9.46-20.65,8.79-22.54-38.68-18.21-45.67-37.66l-1.62-4.5q2.26-5.79,11.17-9l2.94-1.06q13.8-5,28.45,13.4,2.7,7.53,19.27,15.87,5.51-7.8,24.36-51.87Q715.79,336.85,722.58,334.41Z"/></g><circle class="cls-4" cx="144.34" cy="233" r="38.39"/></g></g></svg>