<svg id="Lag_1" data-name="Lag 1" xmlns="http://www.w3.org/2000/svg" viewBox="0 0 810.46 809.56"><defs><style>.cls-1,.cls-5,.cls-6{fill:#0d2b9a;}.cls-2{fill:#fff;}.cls-3,.cls-4{fill:#bd1622;stroke-width:10px;}.cls-3,.cls-4,.cls-5,.cls-6{stroke:#fff;}.cls-3{stroke-miterlimit:10;}.cls-5{font-size:173.21px;stroke-width:7px;}.cls-5,.cls-6{font-family:lazer84;}.cls-6{font-size:177.88px;stroke-width:8px;}</style></defs><path class="cls-1" d="M795.5,488.22c.34-.32.68-.63,1-1,5-4.94,6.42-12.74,9-19a2.77,2.77,0,0,1,1.86-1.69l0-.13a2.49,2.49,0,0,1-1.45-2.36v-3.47a2.86,2.86,0,0,1-.88-4.37,27,27,0,0,0-7.21,3.57l-.86.58A172.42,172.42,0,0,1,795.45,488,1.6,1.6,0,0,0,795.5,488.22Z" transform="translate(-532.3 -100)"/><path class="cls-1" d="M804.46,485.42a28.08,28.08,0,0,0,2.63-4.74,24.19,24.19,0,0,0,1.51-5.21A66.68,66.68,0,0,1,804.46,485.42Z" transform="translate(-532.3 -100)"/><path class="cls-1" d="M805.21,450.65a5.46,5.46,0,0,0-3.2-1c-1.76.15-3,2.16-3.88,3.53A27.29,27.29,0,0,1,805.21,450.65Z" transform="translate(-532.3 -100)"/><path class="cls-1" d="M708.46,529.82l216.6,155.79L1060,100ZM819.8,470.88a7.94,7.94,0,0,0-1.4-1.32,2.73,2.73,0,0,1-3.93.3.42.42,0,0,1,0,.1,26.79,26.79,0,0,1-1.08,9.15c-1.69,6.3-5.78,11.17-9.69,16.23a41.3,41.3,0,0,0-4.07,6c.45,1.28.91,2.57,1.35,3.88a2.42,2.42,0,0,1-1.88,3.24,16.86,16.86,0,0,1,.89,5.11,2.78,2.78,0,0,1-2.72,2.71h0s0,.06,0,.09c2.74-.5,4.77,3.53,1.93,5-1.59.82-1.67,2.21-2.32,3.74A9.19,9.19,0,0,1,793.7,529c-1.46,1.13-3.4-.11-4-1.53a2.87,2.87,0,0,1-3.58-1.08,29.72,29.72,0,0,1-3.12-7.17c-3.19-3-4.54-8.49-6.67-11.88-1.8-2.85,2-5,4.28-3.3,3.8,3,5.23,7.2,6.66,11.46a2.47,2.47,0,0,0,1.12.37c.11-1.31.28-2.62.52-3.93l-.09-.21c-.18-.37-.35-.74-.52-1.12a3,3,0,0,1,1.35-3.8,54.51,54.51,0,0,1-4.48-20.57,74.72,74.72,0,0,1,2.35-20,7.84,7.84,0,0,1,1.53-5.86,49.76,49.76,0,0,1,2.3-6.43c0-1.53-.1-3.06-.15-4.57-.1-2.59,2.83-3.26,4.44-2a14.57,14.57,0,0,1,1.15-1.08,8.23,8.23,0,0,1,8.32-1.45,5,5,0,0,1,3.67-1.91,2.54,2.54,0,0,1,.67-.06,12,12,0,0,1,1.34,0,2.78,2.78,0,0,1,2.73,2.73v2.17a3,3,0,0,1-.92,2l.39.38c4.87,4.89,9.42,11.37,11.32,18.09C825,470.68,821.55,473.08,819.8,470.88Z" transform="translate(-532.3 -100)"/><polygon class="cls-1" points="327.27 297.25 216.26 809.56 527.26 441.08 327.27 297.25"/><path class="cls-2" d="M811.06,470.28a137.43,137.43,0,0,1-9.83,23.43l4.66,1.26a50.64,50.64,0,0,1,8.17-30.52l-4.65-1.26-1,9a2.51,2.51,0,0,0,2.5,2.5,2.56,2.56,0,0,0,2.5-2.5l1-9a2.52,2.52,0,0,0-1.84-2.41,2.58,2.58,0,0,0-2.82,1.15,55.19,55.19,0,0,0-8.86,33c.13,2.35,3.43,3.58,4.66,1.27a144.82,144.82,0,0,0,10.33-24.63c1-3.08-3.86-4.4-4.82-1.33Z" transform="translate(-532.3 -100)"/><path class="cls-2" d="M811.47,468.29c3.22,0,3.22-5,0-5s-3.22,5,0,5Z" transform="translate(-532.3 -100)"/><path class="cls-2" d="M802.33,464.3a12.94,12.94,0,0,0,8.84-3.66,12.51,12.51,0,0,0,0-17.68,12.51,12.51,0,0,0-17.68,0,12.51,12.51,0,0,0,0,17.68,13,13,0,0,0,8.84,3.66Z" transform="translate(-532.3 -100)"/><path class="cls-2" d="M790.21,448.48a26.86,26.86,0,0,0,0,14.61,12.49,12.49,0,0,0,20.89,5.51c3.33-3.4,5.19-8.79,3.66-13.48a15.68,15.68,0,0,0-5.52-8A15.13,15.13,0,0,0,789,448.9c-2.56,2.72-4,6-5.6,9.25L779,467.09l23.29,6.3a18,18,0,0,1,.16-2.43l-.45,3.32a18,18,0,0,1,1.12-4l-1.26,3a19.29,19.29,0,0,1,2.45-4.21l-2,2.53a20.11,20.11,0,0,1,3.46-3.44l-2.53,2a18.74,18.74,0,0,1,3.9-2.27l-3,1.26a16.94,16.94,0,0,1,4-1.11l-3.33.44.7-.08-10.79-6.19a62.74,62.74,0,0,1,5.9,10.83l-1.26-3a66.07,66.07,0,0,1,4.45,16.5l-.45-3.32a66.58,66.58,0,0,1,0,17.1l.45-3.32a62.69,62.69,0,0,1-4.26,15.72l1.26-3a20.85,20.85,0,0,1-2.3,4.23l1.95-2.53a10.61,10.61,0,0,1-1.66,1.69l2.53-2a8.53,8.53,0,0,1-1.66.94l3-1.26a7.31,7.31,0,0,1-1.46.39l3.32-.44a6.75,6.75,0,0,1-1.49,0l3.33.45a6.9,6.9,0,0,1-1.08-.29l3,1.26a6.46,6.46,0,0,1-1.05-.6l2.53,2a25.49,25.49,0,0,1-3.89-4.4l2,2.53a55.69,55.69,0,0,1-7.1-12l1.26,3a38.15,38.15,0,0,1-2.58-9.2l.45,3.33a28.38,28.38,0,0,1-.09-7.25l-.44,3.33a22.34,22.34,0,0,1,1.48-5.51l-1.26,3a17.55,17.55,0,0,1,2.1-3.6l-2,2.53a15.42,15.42,0,0,1,2.16-2.19l-2.53,2a13.43,13.43,0,0,1,2.09-1.33l-3,1.26a3.05,3.05,0,0,1,.74-.24l-3.33.45.38,0-3.32-.45.37.06-3-1.26a1.44,1.44,0,0,1,.54.3l-2.53-2,.22.23-2-2.53a2.84,2.84,0,0,1,.33.56l-1.26-3c.91,2.29,1.12,5,1.6,7.44l1.6,8.08,1.26,3a9.54,9.54,0,0,0,3.22,3.51,12,12,0,0,0,7.58,2.68,14.79,14.79,0,0,0,6.3-1.71c3-1.58,4.58-4.48,5.75-7.47.6-1.54,1.21-3.09,1.85-4.62l-1.26,3a49.32,49.32,0,0,1,6.1-10.92l-2,2.53a83.56,83.56,0,0,0,5.49-7.35,25.81,25.81,0,0,0,3.55-11.06,19,19,0,0,0-10.2-18.69,32.63,32.63,0,0,0-8.1-2.78c-4-.79-8.07-1.2-12.07.09a17.09,17.09,0,0,0-6.93,4.07,17.68,17.68,0,0,0-4.31,7c-1.44,3.95-1,9.57,1.54,13a15.83,15.83,0,0,0,4.49,4.48,12.32,12.32,0,0,0,8,1.49,12.62,12.62,0,0,0,10.39-9,138.52,138.52,0,0,0,3.46-13.47c.81-4,.29-7.61-2.24-10.89-2.2-2.85-6-5.32-9.82-4.93a33.13,33.13,0,0,0-13.23,3.85,35.3,35.3,0,0,0-5.47,3.94,19.46,19.46,0,0,0-2.85,3,30,30,0,0,0-3.86,5.64,52.62,52.62,0,0,0-2.76,6.95c-1,3.15-1.85,6.27-3.13,9.31l1.26-3c-1.06,2.49-2.2,5-3.08,7.53a36,36,0,0,0-1.58,8.23c-.47,4.75.34,9.61,1.26,14.26.71,3.58,1.47,7.19,2.53,10.68a38.73,38.73,0,0,0,5.38,11.67c2.89,3.95,6.32,7.68,10.86,9.76a25.57,25.57,0,0,0,10.38,2.7,20.33,20.33,0,0,0,10.36-2.63c8.56-4.66,12.31-14.7,14.09-23.71a123.65,123.65,0,0,0,2.37-29,12.58,12.58,0,0,0-10.84-12.28,11.94,11.94,0,0,0-8,1.48c-2.57,1.66-5.23,4.33-5.75,7.47a100.66,100.66,0,0,0-1.46,21.08h25c-.25-4.51-.66-9.27-2.29-13.52a28.27,28.27,0,0,0-5.43-9.28c-2.49-2.86-5.61-4.3-9-5.71-2.77-1.16-7.16-.18-9.63,1.26a12.5,12.5,0,0,0-4.48,17.1l2,2.53a12.55,12.55,0,0,0,5.52,3.22l.29.12-3-1.26a10.36,10.36,0,0,1,1.87,1.11l-2.53-1.95A10.37,10.37,0,0,1,797.5,491l-2-2.53a15,15,0,0,1,1.7,3l-1.26-3a26.82,26.82,0,0,1,1.61,6.49l-.44-3.32c.17,1.33.28,2.66.35,4a13.21,13.21,0,0,0,3.67,8.84,12.49,12.49,0,0,0,17.67,0,12.51,12.51,0,0,0,3.66-8.84,84,84,0,0,1,.66-15.37l-.45,3.32c.11-.79.23-1.59.36-2.38l-24.55-3.32a110.46,110.46,0,0,1-.89,19.41l.45-3.32c-.7,5.05-1.53,10.27-3.47,15l1.26-3a21.14,21.14,0,0,1-2.49,4.39l2-2.53a13.76,13.76,0,0,1-2.15,2.23l2.53-1.95a10.08,10.08,0,0,1-2,1.18l3-1.26a8.46,8.46,0,0,1-2,.54l3.32-.45a10.39,10.39,0,0,1-2.23,0l3.32.45a13.68,13.68,0,0,1-2.82-.77l3,1.26a15.34,15.34,0,0,1-3.26-1.88l2.53,1.95a19.29,19.29,0,0,1-3.22-3.23l1.95,2.53a25.18,25.18,0,0,1-3-5.23l1.26,3a53.76,53.76,0,0,1-2.63-8.72c-.72-3.15-1.44-6.32-1.88-9.52l.44,3.32a31.17,31.17,0,0,1-.11-7.6l-.45,3.32a31.57,31.57,0,0,1,2.37-7.75l-1.26,3a98,98,0,0,0,3.72-9.45c.71-2.36,1.32-4.74,2.24-7l-1.26,3a20,20,0,0,1,2.36-4.14l-2,2.53a19.48,19.48,0,0,1,3.44-3.41L798,465.65a19.53,19.53,0,0,1,4.21-2.41l-3,1.26a19.05,19.05,0,0,1,4.32-1.17l-3.32.45c.25,0,.49-.07.74-.09l-12-15.82a136.42,136.42,0,0,1-3.46,13.47l22.85-3a3.62,3.62,0,0,1-.45-.76l1.26,3A2.73,2.73,0,0,1,809,460l.45,3.32a5.06,5.06,0,0,1,0-.87l-.45,3.32a5.71,5.71,0,0,1,.33-1.16l-1.26,3a5.72,5.72,0,0,1,.66-1.06l-2,2.53a6,6,0,0,1,.67-.66l-2.53,1.95a5.6,5.6,0,0,1,1.17-.66l-3,1.26a8.26,8.26,0,0,1,1.62-.37l-3.32.44a12.72,12.72,0,0,1,2.54.07l-3.33-.44a25.44,25.44,0,0,1,5.71,1.44l-3-1.26a10.65,10.65,0,0,1,2.24,1.24l-2.53-2a8.61,8.61,0,0,1,1.28,1.28l-2-2.53a7.4,7.4,0,0,1,.73,1.28l-1.26-3a8.35,8.35,0,0,1,.48,1.76l-.44-3.32a10.44,10.44,0,0,1,0,2.62l.45-3.32a12.75,12.75,0,0,1-.72,2.57l1.26-3a22.58,22.58,0,0,1-3.09,5l2-2.53c-2.7,3.48-5.44,6.83-7.46,10.76a132.93,132.93,0,0,0-5.29,12.33H813l-1.89-9.56c-.31-1.55-.59-3.11-.93-4.66a14.83,14.83,0,0,0-6.68-9.56,14.2,14.2,0,0,0-11.67-1.35,23.86,23.86,0,0,0-7.87,4.75,27.29,27.29,0,0,0-3.86,4.51,17.16,17.16,0,0,0-1.81,2.95,35.27,35.27,0,0,0-3.39,19.7,48.22,48.22,0,0,0,2.26,10.57,65.24,65.24,0,0,0,4.43,9.83,63.05,63.05,0,0,0,4.56,6.88c2.68,3.52,5.45,7.64,9.55,9.65a17.13,17.13,0,0,0,8.87,2,19.54,19.54,0,0,0,9.13-2.82,23.17,23.17,0,0,0,8.43-9.88,75.18,75.18,0,0,0,6.72-35.5c-.87-13.44-4.86-26.82-12.49-38a12.5,12.5,0,0,0-10.79-6.19,32,32,0,0,0-12.27,3.49,27.87,27.87,0,0,0-7.73,6,30.67,30.67,0,0,0-8.28,20.55A12.4,12.4,0,0,0,780,481a11.94,11.94,0,0,0,6.49,4.48,14.88,14.88,0,0,0,6.64,0,12.47,12.47,0,0,0,7.47-5.75l4-8.26c1.15-2.37,2.13-5,3.75-7.13l-2,2.53a6.76,6.76,0,0,1,1-.94l-2.53,2a3.25,3.25,0,0,1,.57-.33l-3,1.26a3.66,3.66,0,0,1,.91-.27l-3.32.45a2.45,2.45,0,0,1,.54,0l-3.32-.44a1.87,1.87,0,0,1,.52.17l-3-1.26a2.31,2.31,0,0,1,.48.28l-2.53-2a4.05,4.05,0,0,1,.59.58l-1.95-2.53a2.6,2.6,0,0,1,.28.45l-1.26-3a2.08,2.08,0,0,1,.16.48l-.44-3.32a1.47,1.47,0,0,1,0,.47l.45-3.32a1.41,1.41,0,0,1-.14.44l1.26-3-.14.2,2-2.53-.18.19,20.89,5.52a16.42,16.42,0,0,1-.47-2.19l.45,3.32a15.31,15.31,0,0,1,0-3.58l-.44,3.33a16.09,16.09,0,0,1,.47-2.19,12.88,12.88,0,0,0-1.26-9.64A12.5,12.5,0,0,0,796,441a13.13,13.13,0,0,0-5.74,7.47Z" transform="translate(-532.3 -100)"/><path class="cls-2" d="M794.1,465.71a83.19,83.19,0,0,1-.71,8.63l.44-3.32a191.64,191.64,0,0,1-5.4,24,13,13,0,0,0,1.26,9.63,12.49,12.49,0,0,0,17.1,4.49,13.38,13.38,0,0,0,5.75-7.47l5-16c1.62-5.18,3.47-10.35,4.85-15.59,1.56-6,.42-12.26-4-16.78-2.34-2.42-5.49-4.27-8.23-6.24a15.51,15.51,0,0,0-5.48-2.86,13.71,13.71,0,0,0-15.05,6.22c-1.86,2.91-2,6.62-2.56,9.93l-3,18.56c-.53,3.27-.64,6.69,1.26,9.63a13,13,0,0,0,6,5.11,12,12,0,0,0,8.14.63c3-1,6.06-2.84,7.47-5.74a88.66,88.66,0,0,0,5.94-15.42,33,33,0,0,0,1.5-9.49,19.14,19.14,0,0,0-5.3-13.09,17.58,17.58,0,0,0-8.22-4.59,18.6,18.6,0,0,0-7.32,0,13.76,13.76,0,0,0-4.61,1.88,17.64,17.64,0,0,0-5.59,5.68c-1.92,3.09-2.46,6.54-2.8,10.08a43.18,43.18,0,0,0,.08,5.91c.14,3.3.11,6.72.93,9.94A15.8,15.8,0,0,0,792.62,491,12.75,12.75,0,0,0,808,482.27q2-6.87,3.5-13.86.76-3.56,1.41-7.14a57.12,57.12,0,0,0,1.23-8.81,17.31,17.31,0,0,0-4.59-12.28,15.44,15.44,0,0,0-15.34-4c-4.65,1.45-7.92,4.68-10.62,8.59-1.33,1.91-2.36,4.08-3.5,6.12l-4,7.16a53.11,53.11,0,0,1-3.7,6.2l2-2.53a11.38,11.38,0,0,1-1.71,1.76l2.53-2a6.59,6.59,0,0,1-1.43.83l3-1.26a6.17,6.17,0,0,1-1,.26l3.33-.45a3.91,3.91,0,0,1-.68.06l12.05,15.82c.38-1.07.8-2.13,1.24-3.18l-1.26,3a57.61,57.61,0,0,1,7.3-12.48l-2,2.53a45,45,0,0,1,7.28-7.63l-2.53,2a19.16,19.16,0,0,1,3.9-2.37l-3,1.26a14.64,14.64,0,0,1,3.1-.89l-3.32.45a12.17,12.17,0,0,1,3.19,0L801.1,459a10.21,10.21,0,0,1,2.28.65l-3-1.26a9.68,9.68,0,0,1,1.69,1l-2.53-2a11.9,11.9,0,0,1,1.88,1.94l-1.95-2.53a45.67,45.67,0,0,1,4.8,9.42l-1.26-3a32.73,32.73,0,0,1,2.32,7.86l-.44-3.32a25.41,25.41,0,0,1-.08,6.52l.45-3.32c-.34,2.34-.88,4.64-1.44,6.93l8.73-8.73-.27.08,3.32-.45h-.27l3.32.44-.27-.07,3,1.26-.25-.14,2.53,2-.21-.19,1.95,2.53-.16-.23,1.26,3-.1-.25.45,3.32,0-.28a13.2,13.2,0,0,0-3.66-8.84,12.51,12.51,0,0,0-17.68,0c-2.16,2.35-3.87,5.54-3.66,8.84.29,4.44,1.87,8,5.42,10.77a13.4,13.4,0,0,0,12,2.38,12.53,12.53,0,0,0,8.73-8.73,77.94,77.94,0,0,0,2-11.66,33,33,0,0,0-1.24-11.78,71.15,71.15,0,0,0-4.28-10.67,41.14,41.14,0,0,0-5.47-9,20.61,20.61,0,0,0-4.93-4.19,24.84,24.84,0,0,0-4-1.82,11.57,11.57,0,0,0-2.08-.62,22,22,0,0,0-6.71-.46,36.09,36.09,0,0,0-4.51.68,29,29,0,0,0-4.9,1.92c-6.54,3-11.4,8.9-15.67,14.49a68.48,68.48,0,0,0-9.8,18.63c-1.32,3.69,0,8,2.24,10.9a12.09,12.09,0,0,0,9.82,4.93,18.34,18.34,0,0,0,13-5.88,44.44,44.44,0,0,0,5.62-8.33l4.25-7.59a67.66,67.66,0,0,1,4.2-7.25l-1.95,2.53a10.41,10.41,0,0,1,1.59-1.66l-2.53,1.95a6.35,6.35,0,0,1,1.21-.7l-3,1.26a3.58,3.58,0,0,1,.64-.18l-3.32.45a2.29,2.29,0,0,1,.64,0l-3.32-.45a3.76,3.76,0,0,1,1,.27l-3-1.26a2.33,2.33,0,0,1,.5.31l-2.53-2a4.33,4.33,0,0,1,.59.62l-2-2.53a5.51,5.51,0,0,1,.4.76l-1.26-3a7.69,7.69,0,0,1,.29,1.17l-.45-3.32a12.07,12.07,0,0,1-.06,2.88l.44-3.32a192.63,192.63,0,0,1-5.56,24.88l15.38-8.73a2.23,2.23,0,0,1-.57-.18l3,1.26a2.92,2.92,0,0,1-.48-.29l2.53,1.95a2.59,2.59,0,0,1-.41-.4l2,2.53a4.55,4.55,0,0,1-.6-1l1.26,3a8.56,8.56,0,0,1-.48-1.87l.44,3.32c-.27-2.18-.24-4.43-.33-6.62a32.37,32.37,0,0,1,0-5.57l-.44,3.32a10.22,10.22,0,0,1,.62-2.37l-1.26,3a6.86,6.86,0,0,1,.72-1.22l-2,2.53a6.23,6.23,0,0,1,.57-.58l-2.53,2a4.49,4.49,0,0,1,.94-.56l-3,1.26a6.84,6.84,0,0,1,.89-.23l-3.32.45a3.86,3.86,0,0,1,.68,0l-3.33-.44a4.88,4.88,0,0,1,1,.22l-3-1.26a6.18,6.18,0,0,1,1.2.68l-2.53-1.95a7.79,7.79,0,0,1,1,1l-2-2.53a6.83,6.83,0,0,1,.7,1.23l-1.26-3a8.09,8.09,0,0,1,.41,1.61l-.44-3.32a12.27,12.27,0,0,1,0,2.64l.45-3.33a54.67,54.67,0,0,1-4,13.08l1.26-3c-.53,1.27-1.1,2.52-1.7,3.76l22.85,9.63,2.08-12.94,1-6.35a34,34,0,0,1,1.05-6l-1.26,3a1.32,1.32,0,0,1,.29-.46l-2,2.53.21-.16-5.52,3.22.25-.1-3.33.45h.33l-3.32-.44.31.09-3-1.26a32.37,32.37,0,0,1,3.37,2.36c1.13.82,2.27,1.62,3.39,2.45l-2.53-2a10.07,10.07,0,0,1,1.35,1.26l-2-2.53a5.51,5.51,0,0,1,.55.94l-1.26-3a3.48,3.48,0,0,1,.22.78l-.45-3.33a6.75,6.75,0,0,1,0,1.62l.45-3.33a68.19,68.19,0,0,1-2.35,7.9l-2.57,8.24L788.43,495l24.11,6.65c3.19-11.78,6.21-23.72,6.56-36a12.5,12.5,0,1,0-25,0Z" transform="translate(-532.3 -100)"/><path class="cls-2" d="M803.82,497.14l.19-10.8a2.52,2.52,0,0,0-2.5-2.5,2.55,2.55,0,0,0-2.5,2.5l-.19,10.8a2.5,2.5,0,0,0,5,0Z" transform="translate(-532.3 -100)"/><path class="cls-2" d="M766.48,484.54a137.7,137.7,0,0,1-.67,17.82h70a220,220,0,0,1-1-29.26l-68.75,9.3c.38,1.89.71,3.79,1,5.7l-1.25-9.3a87.09,87.09,0,0,1,.39,19.23,38.86,38.86,0,0,0,10.25,24.75A38.92,38.92,0,0,0,801.21,533l9.3-1.25a35,35,0,0,0,15.45-9l5.47-7.08A34.82,34.82,0,0,0,836.21,498a87.64,87.64,0,0,0,.23-12.76,152.38,152.38,0,0,0-2.84-21.48,39.09,39.09,0,0,0-16.08-20.91l-8.36-3.53a26.54,26.54,0,0,0-14-.63,17.44,17.44,0,0,0-8.83,2.39,26.27,26.27,0,0,0-11.27,7.24l-5.47,7.08a34.82,34.82,0,0,0-4.78,17.67,220,220,0,0,0,1,29.26,39.06,39.06,0,0,0,10.25,24.75,39.06,39.06,0,0,0,24.75,10.25l9.31-1.25a35.1,35.1,0,0,0,15.44-9L831,520a34.81,34.81,0,0,0,4.78-17.66,137.7,137.7,0,0,0,.67-17.82,38.92,38.92,0,0,0-10.25-24.75,39,39,0,0,0-24.75-10.25l-9.3,1.25a35.14,35.14,0,0,0-15.45,9l-5.47,7.09a34.81,34.81,0,0,0-4.78,17.66Z" transform="translate(-532.3 -100)"/><path class="cls-3" d="M703.15,545.07c2-49.24,2.31-98.55,3.1-147.84.23-14.18-4.57-18.37-17.91-13.21-17.2,6.66-33.62,15.37-50.2,23.57-9.66,4.78-10.43,11.31-1.8,18.07,9.34,7.33,11.75,16.64,10.87,28.23-2,26-2.82,52-4.4,78-.91,14.81-1,29.87-3.88,44.33-5.49,27.44-23.06,44.48-46,46.1,4.83-3.73,9.07-6.51,12.72-9.93,10.39-9.76,13.56-21.38,9.8-35.46-3.34-12.52-11.76-18.85-23.43-20.9-19.06-3.34-33.62,5-44.34,20.15-11,15.52-14.67,32.34-3.93,49.53,13.82,22.11,35.72,27.48,59.51,25C652,645.59,701.13,594,703.15,545.07Z" transform="translate(-532.3 -100)"/><path class="cls-3" d="M785.14,509.83c.19.05.39.09.58.15a73,73,0,0,1-.74-15.49c0-2.78.19-5.57.21-8.2a1.11,1.11,0,0,1,0-.19c0-1,0-1.93,0-2.89A61.26,61.26,0,0,0,783.51,507,19,19,0,0,1,785.14,509.83Z" transform="translate(-532.3 -100)"/><path class="cls-3" d="M798.66,484.66c.19-2.91.31-5.84.33-8.76,0-2.45,0-5-.19-7.49a3.41,3.41,0,0,1-.46,0c0,1.29,0,2.58-.08,3.86,0,4.48-.12,9-.43,13.45C798.12,485.41,798.4,485,798.66,484.66Z" transform="translate(-532.3 -100)"/><path class="cls-3" d="M784.49,526.75l-.74-.88a4.35,4.35,0,0,1-1.09-1.16,1.83,1.83,0,0,1-.18-.34,14.25,14.25,0,0,1-3.7-6.33,2.58,2.58,0,0,1,.19-1.85,8.26,8.26,0,0,1-2-1.45,2.74,2.74,0,0,1,.92-4.44,25.5,25.5,0,0,0-1.53-3,2.4,2.4,0,0,1,1.41-3.76,63.08,63.08,0,0,1,5-29.64,2.94,2.94,0,0,1-4.4-3,21.92,21.92,0,0,1,12.56-15.88c.16-.39.33-.77.5-1.16v-.3a4.58,4.58,0,0,0-1.28,0c-1.66,1-3,1.9-3.64,2.35a37.14,37.14,0,0,0-4.61,3.93A37.13,37.13,0,0,0,777,471c-.25.86-.46,1.73-.67,2.6a2.42,2.42,0,0,1,2.15,3.28,82.78,82.78,0,0,0-4,35.67c.59,5,2.16,10,6.23,13.32a7.62,7.62,0,0,0,6.91,1.66,3,3,0,0,1-.36-.16A2.64,2.64,0,0,1,784.49,526.75Z" transform="translate(-532.3 -100)"/><path class="cls-3" d="M787.52,464.14a17.52,17.52,0,0,0-3.8,7.68,57.18,57.18,0,0,1,3.34-5.92,3.37,3.37,0,0,1,.4-.5A6.65,6.65,0,0,1,787.52,464.14Z" transform="translate(-532.3 -100)"/><path class="cls-3" d="M801,451.87a2.18,2.18,0,0,0-.22-.43,8.06,8.06,0,0,0-.75-.69l-.09,0a10.33,10.33,0,0,0-1.18,1.46c.14.16.26.32.39.49C799.75,452.37,800.37,452.11,801,451.87Z" transform="translate(-532.3 -100)"/><path class="cls-3" d="M805.49,468.23a2.83,2.83,0,0,1,.69-1,51.31,51.31,0,0,0-1.47-7.78,2.83,2.83,0,0,1-.29-1c-.2-.62-.41-1.22-.63-1.82a19.26,19.26,0,0,0-1.94.84,40.65,40.65,0,0,1,2.55,13.69C804.74,470.15,805.1,469.17,805.49,468.23Z" transform="translate(-532.3 -100)"/><path class="cls-3" d="M804.51,485.34a28.35,28.35,0,0,0,2.43-4.34c0-.32,0-.65,0-1A47.83,47.83,0,0,1,804.51,485.34Z" transform="translate(-532.3 -100)"/><path class="cls-3" d="M803.66,495.34l-.63.82c-.45,3.89-1,7.77-1.49,11.64-.45,3.34-.61,7-1.2,10.53a2.32,2.32,0,0,1-.52,2.58,18,18,0,0,1-3.79,7.76,13.32,13.32,0,0,1-6.54,4.1c5.71.06,11.12-4.39,13.43-9.49,1.83-4,1.88-9.11,2.34-13.47.65-6.12,1.19-12.29,1.48-18.46C805.73,492.69,804.69,494,803.66,495.34Z" transform="translate(-532.3 -100)"/><path class="cls-3" d="M802.92,417.88c-42.62-.34-82.95,34-91.19,77.63-7.58,40.16,20,73.62,60.73,73.57C817,569,860.06,529.44,863.84,485,867.14,446.17,841.74,418.18,802.92,417.88ZM830,515.41a2.79,2.79,0,0,1-2.72,2.72c-1.34,0-2.92-1.26-2.73-2.72a37.93,37.93,0,0,0,.23-5.11c0-3.51,5.45-3.5,5.45,0A37.93,37.93,0,0,1,830,515.41Zm-.95-45.62a160.75,160.75,0,0,1-3.46,24.08,2.34,2.34,0,0,1-2.12,1.94c0,.28.08.56.11.84a11.2,11.2,0,0,1,.58,8.6,17.73,17.73,0,0,1-.76,2A67.73,67.73,0,0,1,821.11,518a2.68,2.68,0,0,1-2.18,1.9l0,.11c1.44,1.74,3.14,3.26,3.7,5.56a5.27,5.27,0,0,1-2.95,6.1c-3.49,1.69-9.12,2.22-12-.9a7.16,7.16,0,0,1-1.48-2.52,20.39,20.39,0,0,1-9.07,8.21,17.31,17.31,0,0,1-12.29,1.07c-4.88-1.52-8.21-5.27-11.19-9.23-12.88-17.08-14.85-41.48-4.58-60.14a33.26,33.26,0,0,1,23.55-23,2.52,2.52,0,0,1,1.9.16,2.28,2.28,0,0,1,2.33-1.26,13.63,13.63,0,0,1,3,.55,8.71,8.71,0,0,1,5.27.22,5,5,0,0,1,3.67-1.91,2.54,2.54,0,0,1,.67-.06,12,12,0,0,1,1.34,0,2.78,2.78,0,0,1,2.73,2.73v2.17a3,3,0,0,1-.92,2l.39.38.11.12c5.89-3.87,15.21-7.6,19.92-.88a13.28,13.28,0,0,1-.2,16A38.08,38.08,0,0,1,829.07,469.79Zm10.69-.76a2.78,2.78,0,0,1-2.36,2.67,2.74,2.74,0,0,1-3-1.95c-.26-.77-.49-1.54-.7-2.32a2.79,2.79,0,0,1,.83-2.74v-.77c0-3.51,5.45-3.5,5.45,0A37.93,37.93,0,0,1,839.76,469Z" transform="translate(-532.3 -100)"/><path class="cls-3" d="M813.81,485.66A13.29,13.29,0,0,1,815.2,478a27.38,27.38,0,0,1,4.91-6.82,3.26,3.26,0,0,1-.31-.33,7.94,7.94,0,0,0-1.4-1.32,2.73,2.73,0,0,1-3.93.3.42.42,0,0,1,0,.1,26.79,26.79,0,0,1-1.08,9.15,24.85,24.85,0,0,1-1,2.87,283.77,283.77,0,0,1-2.51,35.19,7,7,0,0,1,5.7-1c0-.34,0-.67,0-1a2.5,2.5,0,0,1-1.76-1.82c-1.9-6.83-1-13.32,3.29-19a4.26,4.26,0,0,1,.49-.54c0-.13-.07-.27-.11-.4C816.57,490.59,814.26,488.61,813.81,485.66Z" transform="translate(-532.3 -100)"/><path class="cls-3" d="M823.82,451.44a27.51,27.51,0,0,0-7,3c.5.63,1,1.27,1.47,1.93v-.24a2.73,2.73,0,1,1,5.45,0V459a2.72,2.72,0,0,1-2.11,2.63,36.82,36.82,0,0,1,2.17,4.92q.34-6.19.34-12.42a2.65,2.65,0,0,1,3.26-2.59A5,5,0,0,0,823.82,451.44Z" transform="translate(-532.3 -100)"/><path class="cls-3" d="M816.58,525.46a4.77,4.77,0,0,1-3,.46,2.23,2.23,0,0,1-1.92-2.8,4.13,4.13,0,0,0,0,3.88c.37.57,0,.24.49.38a5.32,5.32,0,0,0,1.49.09,11.78,11.78,0,0,0,3.48-.61l.22-.06,0,0A3.24,3.24,0,0,0,816.58,525.46Z" transform="translate(-532.3 -100)"/><path class="cls-3" d="M819.36,485.57a17.55,17.55,0,0,0,1.81,3q1.22-6.22,1.88-12.51c-.56.66-1.09,1.34-1.59,2.06C820.08,480.1,818.38,483.1,819.36,485.57Z" transform="translate(-532.3 -100)"/><path class="cls-3" d="M829.61,454.34c0,2,0,4-.09,6a6.87,6.87,0,0,0,.35-5.37C829.79,454.77,829.7,454.55,829.61,454.34Z" transform="translate(-532.3 -100)"/><path class="cls-3" d="M934.76,635.79" transform="translate(-532.3 -100)"/><path class="cls-3" d="M935,632.6" transform="translate(-532.3 -100)"/><path class="cls-3" d="M935.33,669" transform="translate(-532.3 -100)"/><path class="cls-3" d="M933.92,664.65" transform="translate(-532.3 -100)"/><path class="cls-3" d="M1162,312.57c-16,6-31.77,12.93-47.28,20.22-8.35,3.92-7.68,9.67-2.39,17a38.8,38.8,0,0,1,6.65,18.42c.8,8.7-.84,17.61-1,26.44-.24,10-3.3,18.49-14.63,18-12.55-.59-11.69-10.74-11.18-19.88.87-15.3,2.31-30.64,1.86-45.91-.12-4.08-6.14-11.34-9.61-11.44-24.18-.7-42.66,11.5-60.35,28.56,21.13,16.33,12.54,37.44,11,56.53-.45,5.6-9.92,10.47-15.25,15.68-3-6-6.36-11.92-8.71-18.19-1.06-2.83-.08-6.44,0-9.69,1.06-31.61,2.32-63.22,3.12-94.84.33-13-5.4-18-17.15-12.88-16.55,7.15-32.24,16.32-48.09,25-6.9,3.79-7.13,8.63-1.35,14.49,4.14,4.18,10.18,9.61,10.07,14.36-.67,30.13-2.15,60.3-5.13,90.28-.49,4.9-9.76,8.93-15,13.37-2.5-5.85-7.21-11.71-7.15-17.53.34-34.41,1.91-68.81,2.81-103.22.38-14.28-3.31-17.93-16.32-13.22-16.49,6-32.27,13.95-48.17,21.46-7.65,3.61-9.32,9.31-2.21,15.07,9,7.25,11,16.47,10.22,27.34-2.39,35.69-4.06,71.44-6.75,107.12-1.52,20,6.85,28.13,26.34,22.56,23.74-6.78,42.63-21.11,57.56-40.75,12,13.77,20,16.36,37.35,7.18,16.62-8.78,31.69-20.49,47.85-31.18,22.46,20.29,47.93,13.69,78.78-22.06-1.26,22.84-14,39.86-36.28,44.49-13.44,2.8-27.72,1.31-41.47,3-4.11.5-7.73,5.13-11.58,7.87,3,3.93,5.51,10.9,8.89,11.33,35.7,4.51,70.52,1.83,103-15.83,20.61-11.23,34-27.26,34.66-51.7q1.44-53,2.46-106C1177.72,313.37,1171.33,309.1,1162,312.57Z" transform="translate(-532.3 -100)"/><path class="cls-3" d="M1117.9,430.8c-30.85,35.75-56.32,42.35-78.78,22.06-16.16,10.69-31.23,22.4-47.85,31.18-17.38,9.18-25.32,6.59-37.35-7.18-14.93,19.64-33.82,34-57.56,40.75-19.49,5.57-27.86-2.54-26.34-22.56,2.69-35.68,4.36-71.43,6.75-107.12.73-10.87-1.27-20.09-10.22-27.34-7.11-5.76-5.44-11.46,2.21-15.07,15.9-7.51,31.68-15.48,48.17-21.46,13-4.71,16.7-1.06,16.32,13.22-.9,34.41-2.47,68.81-2.81,103.22-.06,5.82,4.65,11.68,7.15,17.53,5.22-4.44,14.49-8.47,15-13.37,3-30,4.46-60.15,5.13-90.28.11-4.75-5.93-10.18-10.07-14.36-5.78-5.86-5.55-10.7,1.35-14.49,15.85-8.69,31.54-17.86,48.09-25,11.75-5.08,17.48-.17,17.15,12.88-.8,31.62-2.06,63.23-3.12,94.84-.11,3.25-1.09,6.86,0,9.69,2.35,6.27,5.74,12.15,8.71,18.19,5.33-5.21,14.8-10.08,15.25-15.68,1.54-19.09,10.13-40.2-11-56.53,17.69-17.06,36.17-29.26,60.35-28.56,3.47.1,9.49,7.36,9.61,11.44.45,15.27-1,30.61-1.86,45.91-.51,9.14-1.37,19.29,11.18,19.88,11.33.53,14.39-8,14.63-18,.21-8.83,1.85-17.74,1-26.44a38.8,38.8,0,0,0-6.65-18.42c-5.29-7.3-6-13.05,2.39-17,15.51-7.29,31.23-14.25,47.28-20.22,9.32-3.47,15.71.8,15.52,11.4q-1,53-2.46,106c-.67,24.44-14,40.47-34.66,51.7-32.43,17.66-67.25,20.34-103,15.83-3.38-.43-5.94-7.4-8.89-11.33,3.85-2.74,7.47-7.37,11.58-7.87,13.75-1.67,28-.18,41.47-3C1103.92,470.66,1116.64,453.64,1117.9,430.8Z" transform="translate(-532.3 -100)"/><path class="cls-3" d="M592.91,622.3c23-1.62,40.53-18.66,46-46.1,2.89-14.46,3-29.52,3.88-44.33,1.58-26,2.42-52,4.4-78,.88-11.59-1.53-20.9-10.87-28.23-8.63-6.76-7.86-13.29,1.8-18.07,16.58-8.2,33-16.91,50.2-23.57,13.34-5.16,18.14-1,17.91,13.21-.79,49.29-1.06,98.6-3.1,147.84-2,48.9-51.18,100.52-99.91,105.61-23.79,2.49-45.69-2.88-59.51-25-10.74-17.19-7.07-34,3.93-49.53C558.38,561,572.94,552.67,592,556c11.67,2,20.09,8.38,23.43,20.9,3.76,14.08.59,25.7-9.8,35.46C602,615.79,597.74,618.57,592.91,622.3Z" transform="translate(-532.3 -100)"/><path class="cls-3" d="M801,451.87a2.18,2.18,0,0,0-.22-.43,8.06,8.06,0,0,0-.75-.69l-.09,0a9.91,9.91,0,0,0-.79.91c.23.24.45.49.67.74Z" transform="translate(-532.3 -100)"/><path class="cls-3" d="M804.85,469.88c.21-.56.42-1.11.64-1.65a2.83,2.83,0,0,1,.69-1,51.31,51.31,0,0,0-1.47-7.78,2.83,2.83,0,0,1-.29-1c-.2-.62-.41-1.22-.63-1.82-.24.08-.47.18-.71.28a11.73,11.73,0,0,1,1.9,5.47C805,464.87,804.91,467.37,804.85,469.88Z" transform="translate(-532.3 -100)"/><path class="cls-3" d="M804.5,485.35a27.68,27.68,0,0,0,2.44-4.35c0-.32,0-.65,0-1A47.23,47.23,0,0,1,804.5,485.35Z" transform="translate(-532.3 -100)"/><path class="cls-3" d="M803.66,495.34l-.18.23c-.81,9.61-2,19.19-3.5,28.67-.41,2.53-3.34,5.63-6.78,8a16.89,16.89,0,0,0,9.72-8.91c1.83-4,1.88-9.11,2.34-13.47.65-6.12,1.19-12.29,1.48-18.46C805.73,492.69,804.69,494,803.66,495.34Z" transform="translate(-532.3 -100)"/><path class="cls-3" d="M816.58,525.46a4.77,4.77,0,0,1-3,.46,2.23,2.23,0,0,1-1.92-2.8,4.13,4.13,0,0,0,0,3.88c.37.57,0,.24.49.38a5.32,5.32,0,0,0,1.49.09,11.78,11.78,0,0,0,3.48-.61l.22-.06,0,0A3.24,3.24,0,0,0,816.58,525.46Z" transform="translate(-532.3 -100)"/><path class="cls-3" d="M813.81,485.66A13.29,13.29,0,0,1,815.2,478a27.38,27.38,0,0,1,4.91-6.82,3.26,3.26,0,0,1-.31-.33,7.94,7.94,0,0,0-1.4-1.32,2.73,2.73,0,0,1-3.93.3.42.42,0,0,1,0,.1,26.79,26.79,0,0,1-1.08,9.15,24.85,24.85,0,0,1-1,2.87,283.77,283.77,0,0,1-2.51,35.19,7,7,0,0,1,5.7-1c0-.34,0-.67,0-1a2.5,2.5,0,0,1-1.76-1.82c-1.9-6.83-1-13.32,3.29-19a4.26,4.26,0,0,1,.49-.54c0-.13-.07-.27-.11-.4C816.57,490.59,814.26,488.61,813.81,485.66Z" transform="translate(-532.3 -100)"/><path class="cls-3" d="M823.82,451.44a27.51,27.51,0,0,0-7,3c.5.63,1,1.27,1.47,1.93v-.24a2.73,2.73,0,1,1,5.45,0V459a2.72,2.72,0,0,1-2.11,2.63,36.82,36.82,0,0,1,2.17,4.92q.34-6.19.34-12.42a2.65,2.65,0,0,1,3.26-2.59A5,5,0,0,0,823.82,451.44Z" transform="translate(-532.3 -100)"/><path class="cls-3" d="M802.92,417.88c-42.62-.34-82.95,34-91.19,77.63-7.58,40.16,20,73.62,60.73,73.57C817,569,860.06,529.44,863.84,485,867.14,446.17,841.74,418.18,802.92,417.88ZM830,515.41a2.79,2.79,0,0,1-2.72,2.72c-1.34,0-2.92-1.26-2.73-2.72a37.93,37.93,0,0,0,.23-5.11c0-3.51,5.45-3.5,5.45,0A37.93,37.93,0,0,1,830,515.41Zm-.95-45.62a160.75,160.75,0,0,1-3.46,24.08,2.34,2.34,0,0,1-2.12,1.94c0,.28.08.56.11.84a11.2,11.2,0,0,1,.58,8.6,17.73,17.73,0,0,1-.76,2A67.73,67.73,0,0,1,821.11,518a2.68,2.68,0,0,1-2.18,1.9l0,.11c1.44,1.74,3.14,3.26,3.7,5.56a5.27,5.27,0,0,1-2.95,6.1c-3.49,1.69-9.12,2.22-12-.9a7.16,7.16,0,0,1-1.48-2.52,20.39,20.39,0,0,1-9.07,8.21,17.31,17.31,0,0,1-12.29,1.07c-4.88-1.52-8.21-5.27-11.19-9.23-12.88-17.08-14.85-41.48-4.58-60.14a33.26,33.26,0,0,1,23.55-23,2.51,2.51,0,0,1,1.91.16,2.24,2.24,0,0,1,2.32-1.26,13.63,13.63,0,0,1,3,.55,8.71,8.71,0,0,1,5.27.22,5,5,0,0,1,3.67-1.91,2.54,2.54,0,0,1,.67-.06,12,12,0,0,1,1.34,0,2.78,2.78,0,0,1,2.73,2.73v2.17a3,3,0,0,1-.92,2l.39.38.11.12c5.89-3.87,15.21-7.6,19.92-.88a13.28,13.28,0,0,1-.2,16A38.08,38.08,0,0,1,829.07,469.79Zm10.69-.76a2.78,2.78,0,0,1-2.36,2.67,2.74,2.74,0,0,1-3-1.95c-.26-.77-.49-1.54-.7-2.32a2.79,2.79,0,0,1,.83-2.74v-.77c0-3.51,5.45-3.5,5.45,0A37.93,37.93,0,0,1,839.76,469Z" transform="translate(-532.3 -100)"/><path class="cls-3" d="M819.36,485.57a17.55,17.55,0,0,0,1.81,3q1.22-6.22,1.88-12.51c-.56.66-1.09,1.34-1.59,2.06C820.08,480.1,818.38,483.1,819.36,485.57Z" transform="translate(-532.3 -100)"/><path class="cls-3" d="M829.61,454.34c0,2,0,4-.09,6a6.87,6.87,0,0,0,.35-5.37C829.79,454.77,829.7,454.55,829.61,454.34Z" transform="translate(-532.3 -100)"/><circle class="cls-4" cx="141.61" cy="230.77" r="38.39"/><text class="cls-5" transform="translate(119.64 682.87) rotate(-19.24)">Energy</text><path class="cls-3" d="M712.07,544c2-49.24,2.3-98.55,3.1-147.84.23-14.18-4.58-18.37-17.91-13.21-17.2,6.66-33.63,15.37-50.2,23.57-9.67,4.79-10.43,11.31-1.81,18.07,9.34,7.33,11.76,16.65,10.87,28.23-2,26-2.81,52-4.4,78-.9,14.82-1,29.87-3.88,44.33-5.48,27.44-23.05,44.49-46,46.1,4.82-3.73,9.07-6.51,12.71-9.93,10.4-9.76,13.57-21.38,9.81-35.45-3.34-12.52-11.76-18.86-23.43-20.91-19.06-3.34-33.63,5-44.34,20.15-11,15.52-14.68,32.34-3.93,49.53,13.81,22.11,35.71,27.48,59.51,25C660.89,644.47,710,592.85,712.07,544Z" transform="translate(-532.3 -100)"/><path class="cls-3" d="M794,489.77c0-1.56.12-3.11.12-4.6a2.52,2.52,0,0,1,.91-2,12.7,12.7,0,0,1,.66-3.65,9.72,9.72,0,0,1-.14-1.8c-.38,1-.72,2-1,3-.24,3.09-.58,6.16-1,9.22a2.25,2.25,0,0,0,0,.22Z" transform="translate(-532.3 -100)"/><path class="cls-3" d="M800.2,472c0-1.19-.06-2.37-.07-3.54a54.24,54.24,0,0,0-3.27,6.14,2.83,2.83,0,0,1,1.74-.6C799.11,473.26,799.64,472.59,800.2,472Z" transform="translate(-532.3 -100)"/><path class="cls-3" d="M805.61,495c0,.1,0,.21-.05.32v2.31a11.16,11.16,0,0,1,.41,1.8c.22-1.78.44-3.57.64-5.36A2.23,2.23,0,0,1,805.61,495Z" transform="translate(-532.3 -100)"/><path class="cls-3" d="M800.89,453.22a2.62,2.62,0,0,1,.72-.33,2.78,2.78,0,0,0-.5-.21,3.29,3.29,0,0,0-.6-.15,30,30,0,0,0-4.33,2.52l0,.09A30.21,30.21,0,0,1,800.89,453.22Z" transform="translate(-532.3 -100)"/><path class="cls-3" d="M786.86,514.43a6.81,6.81,0,0,1-1-.81,2.76,2.76,0,0,1,1.21-4.55,2.5,2.5,0,0,1,.25-.09c-.06-.44-.11-.88-.17-1.33a52.89,52.89,0,0,1-3.65-14.8,79.9,79.9,0,0,0-.12,18.6c.05.46.11.92.19,1.38.65,1.51,1.18,3.09,1.71,4.67a2.47,2.47,0,0,0,1.12.37C786.52,516.73,786.67,515.58,786.86,514.43Z" transform="translate(-532.3 -100)"/><path class="cls-3" d="M802.08,521.5l.15.18a11.64,11.64,0,0,0,1-2.38c.17-.62.32-1.25.44-1.88a9.57,9.57,0,0,1-1,.23A5.79,5.79,0,0,1,802.08,521.5Z" transform="translate(-532.3 -100)"/><path class="cls-3" d="M797.25,525.63a2.74,2.74,0,0,1-2.14.77,2,2,0,0,1-.1.26,7.51,7.51,0,0,0,3.44-1,5.11,5.11,0,0,0-.54-.75C797.7,525.14,797.48,525.39,797.25,525.63Z" transform="translate(-532.3 -100)"/><path class="cls-3" d="M797.74,461.64A16.82,16.82,0,0,0,795,465c0,.46,0,.93,0,1.39.31-.52.63-1,1-1.56a2.6,2.6,0,0,1,2.06-1.26A3.05,3.05,0,0,1,797.74,461.64Z" transform="translate(-532.3 -100)"/><path class="cls-3" d="M815.61,472.21a2.65,2.65,0,0,1-2.25.16c0,1.68,0,3.36-.05,5a268.84,268.84,0,0,1-2.86,29.29l-.09.79a2.49,2.49,0,0,1,1.2,2.22,39.41,39.41,0,0,1-.23,5.1,2.91,2.91,0,0,1-2.11,2.66c-.64,3.71-1.78,7.27-4.28,10.1a14.53,14.53,0,0,1-1.76,1.67A5.68,5.68,0,0,1,801,531a11.52,11.52,0,0,1-1.33.54c5.22-.55,10-4.7,12.14-9.41,1.83-4,1.88-9.12,2.35-13.48C815.46,496.61,816.32,484.36,815.61,472.21Z" transform="translate(-532.3 -100)"/><path class="cls-3" d="M811.83,416.76c-42.62-.33-82.94,34-91.18,77.63-7.59,40.16,20,73.62,60.72,73.57,44.57-.05,87.61-39.64,91.38-84.06C876.05,445.05,850.66,417.06,811.83,416.76Zm9.31,56.43c.05,1.37.08,2.64.11,3.77.3,13.13-.89,26.28-2.5,39.3-1,8.12-4.9,15.5-12.64,19.06a17.23,17.23,0,0,1-12.28,1.07c-4.88-1.52-8.21-5.26-11.2-9.23-12.88-17.08-14.84-41.48-4.57-60.14a33.82,33.82,0,0,1,11.45-17,2.45,2.45,0,0,1,1.69-1.23A35.07,35.07,0,0,1,801.61,444a2.52,2.52,0,0,1,1.9.16,2.28,2.28,0,0,1,2.33-1.26,12.13,12.13,0,0,1,6,2,6.15,6.15,0,0,1,1.3,1C817,449.29,819,455.06,820,461a2.48,2.48,0,0,1,1.3,2.28c0,1.22,0,2.43-.09,3.64a31.09,31.09,0,0,1,1.14,3.28A2.78,2.78,0,0,1,821.14,473.19Z" transform="translate(-532.3 -100)"/><path class="cls-3" d="M943.68,634.67" transform="translate(-532.3 -100)"/><path class="cls-3" d="M943.93,631.48" transform="translate(-532.3 -100)"/><path class="cls-3" d="M944.25,667.86" transform="translate(-532.3 -100)"/><path class="cls-3" d="M942.84,663.54" transform="translate(-532.3 -100)"/><path class="cls-3" d="M1170.92,311.45c-16.05,6-31.76,12.93-47.27,20.22-8.35,3.92-7.68,9.67-2.4,17a38.8,38.8,0,0,1,6.65,18.42c.81,8.7-.83,17.61-1.05,26.44-.24,10-3.29,18.49-14.63,18-12.54-.59-11.69-10.74-11.17-19.88.87-15.3,2.31-30.64,1.86-45.91-.12-4.08-6.14-11.34-9.61-11.44-24.19-.7-42.67,11.5-60.35,28.56,21.12,16.33,12.54,37.44,11,56.53-.45,5.6-9.92,10.47-15.25,15.68-3-6-6.36-11.92-8.71-18.18-1.06-2.84-.08-6.44,0-9.7,1.07-31.61,2.33-63.22,3.12-94.84.33-13-5.39-18-17.15-12.88-16.54,7.15-32.24,16.32-48.08,25-6.91,3.79-7.14,8.63-1.35,14.49,4.13,4.18,10.17,9.61,10.07,14.36-.67,30.14-2.15,60.3-5.14,90.28-.48,4.91-9.76,8.93-15,13.37-2.51-5.85-7.21-11.71-7.15-17.53.34-34.41,1.9-68.81,2.81-103.22.38-14.28-3.31-17.93-16.33-13.21-16.48,6-32.27,13.94-48.17,21.45-7.64,3.61-9.32,9.31-2.21,15.07,9,7.25,11,16.47,10.23,27.34-2.4,35.7-4.06,71.45-6.76,107.12-1.51,20,6.86,28.13,26.35,22.56,23.74-6.78,42.62-21.11,57.56-40.75,12,13.77,20,16.36,37.34,7.18,16.62-8.77,31.69-20.49,47.86-31.18,22.46,20.29,47.93,13.69,78.78-22.06-1.27,22.84-14,39.86-36.29,44.49-13.43,2.8-27.71,1.32-41.46,3-4.12.5-7.73,5.13-11.58,7.87,2.94,3.93,5.5,10.9,8.89,11.33,35.69,4.51,70.52,1.83,102.94-15.83,20.61-11.23,34-27.26,34.66-51.69q1.44-53,2.46-106C1186.64,312.25,1180.25,308,1170.92,311.45Z" transform="translate(-532.3 -100)"/><path class="cls-3" d="M1126.82,429.68C1096,465.43,1070.5,472,1048,451.74c-16.17,10.69-31.24,22.41-47.86,31.18-17.38,9.18-25.31,6.59-37.34-7.18-14.94,19.64-33.82,34-57.56,40.75-19.49,5.57-27.86-2.54-26.35-22.56,2.7-35.67,4.36-71.42,6.76-107.12.73-10.87-1.27-20.09-10.23-27.34-7.11-5.76-5.43-11.46,2.21-15.07,15.9-7.51,31.69-15.48,48.17-21.45,13-4.72,16.71-1.07,16.33,13.21-.91,34.41-2.47,68.81-2.81,103.22-.06,5.82,4.64,11.68,7.15,17.53,5.21-4.44,14.49-8.46,15-13.37,3-30,4.47-60.14,5.14-90.28.1-4.75-5.94-10.18-10.07-14.36-5.79-5.86-5.56-10.7,1.35-14.49,15.84-8.69,31.54-17.86,48.08-25,11.76-5.08,17.48-.17,17.15,12.88-.79,31.62-2,63.23-3.12,94.84-.1,3.26-1.08,6.86,0,9.7,2.35,6.26,5.74,12.14,8.71,18.18,5.33-5.21,14.8-10.08,15.25-15.68,1.54-19.09,10.12-40.2-11-56.53,17.68-17.06,36.16-29.26,60.35-28.56,3.47.1,9.49,7.36,9.61,11.44.45,15.27-1,30.61-1.86,45.91-.52,9.14-1.37,19.29,11.17,19.88,11.34.53,14.39-8,14.63-18,.22-8.83,1.86-17.74,1.05-26.44a38.8,38.8,0,0,0-6.65-18.42c-5.28-7.3-6-13.05,2.4-17,15.51-7.29,31.22-14.25,47.27-20.22,9.33-3.47,15.72.8,15.52,11.4q-1,53-2.46,106c-.66,24.43-14,40.46-34.66,51.69-32.42,17.66-67.25,20.34-102.94,15.83-3.39-.43-6-7.4-8.89-11.33,3.85-2.74,7.46-7.37,11.58-7.87,13.75-1.66,28-.18,41.46-3C1112.84,469.54,1125.55,452.52,1126.82,429.68Z" transform="translate(-532.3 -100)"/><path class="cls-3" d="M601.83,621.18c23-1.61,40.53-18.66,46-46.1,2.89-14.46,3-29.51,3.88-44.33,1.59-26,2.42-52,4.4-78,.89-11.58-1.53-20.9-10.87-28.23-8.62-6.76-7.86-13.28,1.81-18.07,16.57-8.2,33-16.91,50.2-23.57,13.33-5.16,18.14-1,17.91,13.21-.8,49.29-1.07,98.6-3.1,147.84-2,48.9-51.18,100.52-99.91,105.62-23.8,2.48-45.7-2.89-59.51-25-10.75-17.19-7.07-34,3.93-49.53,10.71-15.12,25.28-23.49,44.34-20.15,11.67,2.05,20.09,8.39,23.43,20.91,3.76,14.07.59,25.69-9.81,35.45C610.9,614.67,606.65,617.45,601.83,621.18Z" transform="translate(-532.3 -100)"/><path class="cls-3" d="M815.61,472.21a2.65,2.65,0,0,1-2,.25c-.38,11.89-1.23,23.78-2.64,35.59a2.56,2.56,0,0,1,.54,1.64,39.41,39.41,0,0,1-.23,5.1,3.1,3.1,0,0,1-1.53,2.44c-.29,2-.58,3.93-.9,5.89-.41,2.53-3.35,5.63-6.78,8a16.89,16.89,0,0,0,9.71-8.9c1.83-4,1.88-9.12,2.35-13.48C815.46,496.61,816.32,484.36,815.61,472.21Z" transform="translate(-532.3 -100)"/><path class="cls-3" d="M811.83,416.76c-42.62-.33-82.94,34-91.18,77.63-7.59,40.16,20,73.62,60.72,73.57,44.57-.05,87.61-39.64,91.38-84.06C876.05,445.05,850.66,417.06,811.83,416.76Zm9.31,56.43c.05,1.37.08,2.64.11,3.77.3,13.13-.89,26.28-2.5,39.3-1,8.12-4.9,15.5-12.64,19.06a17.23,17.23,0,0,1-12.28,1.07c-4.88-1.52-8.21-5.26-11.2-9.23-12.88-17.08-14.84-41.48-4.57-60.14a33.82,33.82,0,0,1,11.45-17,2.45,2.45,0,0,1,1.69-1.23A35.07,35.07,0,0,1,801.61,444a2.48,2.48,0,0,1,1.9.16,2.28,2.28,0,0,1,2.33-1.26,12.13,12.13,0,0,1,6,2,6.15,6.15,0,0,1,1.3,1C817,449.29,819,455.06,820,461a2.48,2.48,0,0,1,1.3,2.28c0,1.22,0,2.43-.09,3.64a31.09,31.09,0,0,1,1.14,3.28A2.78,2.78,0,0,1,821.14,473.19Z" transform="translate(-532.3 -100)"/><text class="cls-6" transform="translate(113.72 690.34) rotate(-19.78)">Energy</text><circle class="cls-4" cx="144.32" cy="233" r="38.39"/></svg>