<?xml version="1.0" encoding="utf-8"?>
<!-- Generator: Adobe Illustrator 25.4.1, SVG Export Plug-In . SVG Version: 6.00 Build 0)  -->
<svg version="1.1" id="Lag_1" xmlns="http://www.w3.org/2000/svg" xmlns:xlink="http://www.w3.org/1999/xlink" x="0px" y="0px"
	 viewBox="0 0 1971.6 964.1" style="enable-background:new 0 0 1971.6 964.1;" xml:space="preserve">
<style type="text/css">
	.st0{fill:#0D2B9A;}
	.st1{fill:#FFFFFF;}
	.st2{fill:#BD1622;stroke:#FFFFFF;stroke-width:10;stroke-miterlimit:10;}
	.st3{fill:#BD1622;stroke:#FFFFFF;stroke-width:10;}
	.st4{font-family:'lazer84';}
	.st5{font-size:173.21px;}
	.st6{fill:none;stroke:#FFFFFF;stroke-width:7;}
	.st7{font-size:177.88px;}
	.st8{fill:none;stroke:#FFFFFF;stroke-width:8;}
	.st9{enable-background:new    ;}
</style>
<path class="st0" d="M1424.3,542.7c0.3-0.3,0.7-0.6,1-1c5-4.9,6.4-12.7,9-19c0.3-0.8,1-1.5,1.9-1.7v-0.1c-0.9-0.4-1.5-1.4-1.5-2.4
	v-3.5c-1.4-0.7-1.9-2.5-1.2-3.9c0.1-0.2,0.2-0.4,0.3-0.5c-2.6,0.8-5,2-7.2,3.6l-0.9,0.6c0.2,9.2-0.3,18.5-1.5,27.6
	C1424.3,542.6,1424.3,542.7,1424.3,542.7z"/>
<path class="st0" d="M1433.3,539.9c1-1.5,1.9-3.1,2.6-4.7c0.7-1.7,1.2-3.4,1.5-5.2C1436.3,533.4,1434.9,536.7,1433.3,539.9z"/>
<path class="st0" d="M1434,505.2c-0.9-0.7-2.1-1-3.2-1c-1.8,0.1-3,2.2-3.9,3.5C1429.2,506.5,1431.6,505.7,1434,505.2z"/>
<path class="st0" d="M1337.3,584.3l216.6,155.8l134.9-585.6L1337.3,584.3z M1448.6,525.4c-0.4-0.5-0.9-0.9-1.4-1.3
	c-1,1.2-2.7,1.3-3.8,0.4c0,0-0.1,0-0.1-0.1c0,0,0,0.1,0,0.1c0.2,3.1-0.2,6.2-1.1,9.1c-1.7,6.3-5.8,11.2-9.7,16.2
	c-1.5,1.9-2.9,3.9-4.1,6c0.5,1.3,0.9,2.6,1.3,3.9c0.5,1.3-0.2,2.6-1.4,3.1c-0.2,0.1-0.3,0.1-0.5,0.1c0.6,1.6,0.9,3.4,0.9,5.1
	c0,1.5-1.2,2.7-2.7,2.7l0,0c0,0,0,0.1,0,0.1c2.7-0.5,4.8,3.5,1.9,5c-1.6,0.8-1.7,2.2-2.3,3.7c-0.7,1.6-1.8,2.9-3.2,3.9
	c-1.5,1.1-3.4-0.1-4-1.5c-1.3,0.6-2.8,0.1-3.6-1.1c-1.4-2.2-2.4-4.7-3.1-7.2c-3.2-3-4.5-8.5-6.7-11.9c-1.8-2.8,2-5,4.3-3.3
	c3.8,3,5.2,7.2,6.7,11.5c0.3,0.2,0.7,0.3,1.1,0.4c0.1-1.3,0.3-2.6,0.5-3.9l-0.1-0.2c-0.2-0.4-0.3-0.7-0.5-1.1
	c-0.6-1.4,0-3.1,1.3-3.8c-2.8-6.5-4.3-13.5-4.5-20.6c-0.1-6.7,0.7-13.5,2.3-20c-0.3-2.1,0.3-4.2,1.5-5.9c0.6-2.2,1.4-4.3,2.3-6.4
	c0-1.5-0.1-3.1-0.2-4.6c-0.1-2.6,2.8-3.3,4.4-2c0.4-0.4,0.7-0.7,1.2-1.1c2.3-2,5.5-2.5,8.3-1.5c0.9-1.1,2.2-1.8,3.7-1.9
	c0.2,0,0.4-0.1,0.7-0.1c0.4,0,0.9,0,1.3,0c1.5,0,2.7,1.2,2.7,2.7v2.2c0,0.8-0.4,1.5-0.9,2l0.4,0.4c4.9,4.9,9.4,11.4,11.3,18.1
	C1453.8,525.2,1450.4,527.6,1448.6,525.4z"/>
<polygon class="st0" points="1488.4,451.8 1377.4,964.1 1688.4,595.6 "/>
<path class="st1" d="M1439.9,524.8c-2.5,8.1-5.8,15.9-9.8,23.4l4.7,1.3c-0.6-10.8,2.3-21.5,8.2-30.5l-4.7-1.3l-1,9
	c0,1.4,1.1,2.5,2.5,2.5c1.4,0,2.5-1.1,2.5-2.5l1-9c0-1.1-0.8-2.1-1.8-2.4c-1.1-0.3-2.2,0.2-2.8,1.1c-6.4,9.8-9.5,21.3-8.9,33
	c0.1,2.4,3.4,3.6,4.7,1.3c4.2-7.9,7.7-16.1,10.3-24.6C1445.7,523,1440.8,521.7,1439.9,524.8L1439.9,524.8z"/>
<path class="st1" d="M1440.3,522.8c3.2,0,3.2-5,0-5S1437.1,522.8,1440.3,522.8z"/>
<path class="st1" d="M1431.2,518.8c3.3,0,6.5-1.4,8.8-3.7c4.9-4.9,4.9-12.8,0-17.7c-4.9-4.9-12.8-4.9-17.7,0
	c-4.9,4.9-4.9,12.8,0,17.7C1424.7,517.5,1427.9,518.8,1431.2,518.8L1431.2,518.8z"/>
<path class="st1" d="M1419,503c-1.3,4.8-1.3,9.8,0,14.6c1.8,6.7,8.7,10.6,15.4,8.7c2.1-0.6,4-1.7,5.5-3.2c3.3-3.4,5.2-8.8,3.7-13.5
	c-0.9-3.2-2.9-6-5.5-8c-6.2-4.7-15-3.9-20.2,1.8c-2.6,2.7-4,6-5.6,9.2l-4.4,8.9l23.3,6.3c0-0.8,0.1-1.6,0.2-2.4l-0.5,3.3
	c0.2-1.4,0.6-2.7,1.1-4l-1.3,3c0.6-1.5,1.5-2.9,2.5-4.2l-2,2.5c1-1.3,2.2-2.4,3.5-3.4l-2.5,2c1.2-0.9,2.5-1.7,3.9-2.3l-3,1.3
	c1.3-0.5,2.6-0.9,4-1.1l-3.3,0.4l0.7-0.1l-10.8-6.2c2.3,3.4,4.3,7,5.9,10.8l-1.3-3c2.2,5.3,3.7,10.8,4.4,16.5l-0.4-3.3
	c0.7,5.7,0.7,11.4,0,17.1l0.4-3.3c-0.7,5.4-2.2,10.7-4.3,15.7l1.3-3c-0.6,1.5-1.4,2.9-2.3,4.2l1.9-2.5c-0.5,0.6-1,1.2-1.7,1.7l2.5-2
	c-0.5,0.4-1.1,0.7-1.7,0.9l3-1.3c-0.5,0.2-1,0.3-1.5,0.4l3.3-0.4c-0.5,0.1-1,0.1-1.5,0l3.3,0.5c-0.4-0.1-0.7-0.2-1.1-0.3l3,1.3
	c-0.4-0.2-0.7-0.4-1-0.6l2.5,2c-1.5-1.3-2.8-2.8-3.9-4.4l2,2.5c-2.9-3.7-5.2-7.7-7.1-12l1.3,3c-1.2-2.9-2.1-6-2.6-9.2l0.5,3.3
	c-0.3-2.4-0.4-4.8-0.1-7.2l-0.4,3.3c0.3-1.9,0.8-3.7,1.5-5.5l-1.3,3c0.6-1.3,1.3-2.5,2.1-3.6l-2,2.5c0.6-0.8,1.4-1.5,2.2-2.2l-2.5,2
	c0.7-0.5,1.4-1,2.1-1.3l-3,1.3c0.2-0.1,0.5-0.2,0.7-0.2l-3.3,0.5h0.4l-3.3-0.5l0.4,0.1l-3-1.3c0.2,0.1,0.4,0.2,0.5,0.3l-2.5-2
	l0.2,0.2l-2-2.5c0.1,0.2,0.2,0.4,0.3,0.6l-1.3-3c0.9,2.3,1.1,5,1.6,7.4l1.6,8.1l1.3,3c0.8,1.4,1.9,2.6,3.2,3.5
	c2.1,1.7,4.8,2.7,7.6,2.7c2.2-0.1,4.4-0.7,6.3-1.7c3-1.6,4.6-4.5,5.8-7.5c0.6-1.5,1.2-3.1,1.8-4.6l-1.3,3c1.6-3.9,3.6-7.6,6.1-10.9
	l-2,2.5c2-2.3,3.8-4.8,5.5-7.3c2-3.4,3.2-7.2,3.5-11.1c0.7-7.7-3.3-15.1-10.2-18.7c-2.6-1.3-5.3-2.2-8.1-2.8
	c-4-0.8-8.1-1.2-12.1,0.1c-2.6,0.8-5,2.2-6.9,4.1c-2,2-3.4,4.4-4.3,7c-1.4,4-1,9.6,1.5,13c1.2,1.8,2.7,3.3,4.5,4.5
	c2.4,1.4,5.2,1.9,8,1.5c4.9-0.7,9-4.2,10.4-9c1.4-4.4,2.5-8.9,3.5-13.5c0.8-4,0.3-7.6-2.2-10.9c-2.2-2.9-6-5.3-9.8-4.9
	c-4.6,0.3-9.1,1.7-13.2,3.9c-1.9,1.1-3.8,2.5-5.5,3.9c-1.1,0.9-2,1.9-2.8,3c-1.5,1.7-2.8,3.6-3.9,5.6c-1.1,2.2-2,4.6-2.8,6.9
	c-1,3.2-1.8,6.3-3.1,9.3l1.3-3c-1.1,2.5-2.2,5-3.1,7.5c-0.8,2.7-1.4,5.4-1.6,8.2c-0.5,4.8,0.3,9.6,1.3,14.3
	c0.7,3.6,1.5,7.2,2.5,10.7c1.1,4.2,2.9,8.1,5.4,11.7c2.9,4,6.3,7.7,10.9,9.8c3.2,1.6,6.8,2.5,10.4,2.7c3.6,0.1,7.2-0.8,10.4-2.6
	c8.6-4.7,12.3-14.7,14.1-23.7c1.9-9.5,2.7-19.3,2.4-29c-0.1-6.2-4.7-11.4-10.8-12.3c-2.8-0.5-5.6,0.1-8,1.5
	c-2.6,1.7-5.2,4.3-5.8,7.5c-1.2,7-1.7,14-1.5,21.1h25c-0.2-4.5-0.7-9.3-2.3-13.5c-1.2-3.4-3-6.6-5.4-9.3c-2.5-2.9-5.6-4.3-9-5.7
	c-2.8-1.2-7.2-0.2-9.6,1.3c-6,3.5-8,11.1-4.5,17.1l2,2.5c1.5,1.5,3.4,2.6,5.5,3.2l0.3,0.1l-3-1.3c0.7,0.3,1.3,0.7,1.9,1.1l-2.5-2
	c0.7,0.5,1.3,1.1,1.9,1.8l-2-2.5c0.7,0.9,1.3,1.9,1.7,3l-1.3-3c0.8,2.1,1.3,4.3,1.6,6.5l-0.4-3.3c0.2,1.3,0.3,2.7,0.3,4
	c0.1,3.3,1.4,6.5,3.7,8.8c4.9,4.9,12.8,4.9,17.7,0c0,0,0,0,0,0c2.3-2.3,3.7-5.5,3.7-8.8c-0.3-5.1,0-10.3,0.7-15.4l-0.5,3.3
	c0.1-0.8,0.2-1.6,0.4-2.4l-24.5-3.3c0.3,6.5,0,13-0.9,19.4l0.4-3.3c-0.7,5-1.5,10.3-3.5,15l1.3-3c-0.7,1.6-1.5,3-2.5,4.4l2-2.5
	c-0.6,0.8-1.4,1.6-2.2,2.2l2.5-2c-0.6,0.5-1.3,0.9-2,1.2l3-1.3c-0.6,0.3-1.3,0.4-2,0.5l3.3-0.5c-0.7,0.1-1.5,0.1-2.2,0l3.3,0.5
	c-1-0.2-1.9-0.4-2.8-0.8l3,1.3c-1.2-0.5-2.3-1.1-3.3-1.9l2.5,2c-1.2-0.9-2.3-2-3.2-3.2l1.9,2.5c-1.2-1.6-2.2-3.4-3-5.2l1.3,3
	c-1.1-2.8-2-5.7-2.6-8.7c-0.7-3.1-1.4-6.3-1.9-9.5l0.4,3.3c-0.3-2.5-0.4-5.1-0.1-7.6l-0.5,3.3c0.5-2.7,1.3-5.3,2.4-7.8l-1.3,3
	c1.4-3.1,2.6-6.2,3.7-9.5c0.7-2.4,1.3-4.7,2.2-7l-1.3,3c0.6-1.5,1.4-2.9,2.4-4.1l-2,2.5c1-1.3,2.2-2.4,3.4-3.4l-2.5,1.9
	c1.3-1,2.7-1.8,4.2-2.4l-3,1.3c1.4-0.6,2.8-1,4.3-1.2l-3.3,0.5c0.2,0,0.5-0.1,0.7-0.1l-12-15.8c-0.9,4.5-2.1,9-3.5,13.5l22.8-3
	c-0.2-0.2-0.3-0.5-0.5-0.8l1.3,3c-0.1-0.2-0.1-0.4-0.1-0.6l0.4,3.3c0-0.3,0-0.6,0-0.9l-0.4,3.3c0.1-0.4,0.2-0.8,0.3-1.2l-1.3,3
	c0.2-0.4,0.4-0.7,0.7-1.1l-2,2.5c0.2-0.2,0.4-0.5,0.7-0.7l-2.5,2c0.4-0.3,0.8-0.5,1.2-0.7l-3,1.3c0.5-0.2,1.1-0.3,1.6-0.4l-3.3,0.4
	c0.8-0.1,1.7,0,2.5,0.1l-3.3-0.4c2,0.3,3.9,0.7,5.7,1.4l-3-1.3c0.8,0.3,1.5,0.7,2.2,1.2l-2.5-2c0.5,0.4,0.9,0.8,1.3,1.3l-2-2.5
	c0.3,0.4,0.5,0.8,0.7,1.3l-1.3-3c0.2,0.6,0.4,1.2,0.5,1.8l-0.4-3.3c0.1,0.9,0.1,1.8,0,2.6l0.5-3.3c-0.1,0.9-0.4,1.7-0.7,2.6l1.3-3
	c-0.8,1.8-1.8,3.5-3.1,5l2-2.5c-2.7,3.5-5.4,6.8-7.5,10.8c-2,4-3.7,8.1-5.3,12.3h24.1l-1.9-9.6c-0.3-1.5-0.6-3.1-0.9-4.7
	c-0.8-4-3.2-7.4-6.7-9.6c-3.5-2.1-7.8-2.6-11.7-1.3c-2.9,1.1-5.6,2.7-7.9,4.8c-1.4,1.4-2.7,2.9-3.9,4.5c-0.7,0.9-1.3,1.9-1.8,3
	c-3,6.1-4.2,12.9-3.4,19.7c0.4,3.6,1.1,7.1,2.3,10.6c1.2,3.4,2.7,6.7,4.4,9.8c1.4,2.4,2.9,4.7,4.6,6.9c2.7,3.5,5.4,7.6,9.5,9.7
	c2.7,1.5,5.8,2.1,8.9,2c3.2-0.2,6.4-1.1,9.1-2.8c3.7-2.4,6.6-5.9,8.4-9.9c5.1-11.1,7.4-23.3,6.7-35.5c-0.9-13.4-4.9-26.8-12.5-38
	c-2.2-3.8-6.3-6.2-10.8-6.2c-4.3,0.3-8.5,1.5-12.3,3.5c-2.9,1.5-5.5,3.6-7.7,6c-5.2,5.6-8.2,12.9-8.3,20.5c0,2.8,1,5.5,2.7,7.6
	c1.6,2.2,3.9,3.8,6.5,4.5c2.2,0.5,4.5,0.5,6.6,0c3.1-0.9,5.8-2.9,7.5-5.8l4-8.3c1.2-2.4,2.1-5,3.8-7.1l-2,2.5c0.3-0.3,0.6-0.7,1-0.9
	l-2.5,2c0.2-0.1,0.4-0.2,0.6-0.3l-3,1.3c0.3-0.1,0.6-0.2,0.9-0.3l-3.3,0.5c0.2,0,0.4,0,0.5,0l-3.3-0.4c0.2,0,0.4,0.1,0.5,0.2l-3-1.3
	c0.2,0.1,0.3,0.2,0.5,0.3l-2.5-2c0.2,0.2,0.4,0.4,0.6,0.6l-2-2.5c0.1,0.1,0.2,0.3,0.3,0.5l-1.3-3c0.1,0.2,0.1,0.3,0.2,0.5l-0.4-3.3
	c0,0.2,0,0.3,0,0.5l0.5-3.3c0,0.2-0.1,0.3-0.1,0.4l1.3-3l-0.1,0.2l2-2.5l-0.2,0.2l20.9,5.5c-0.2-0.7-0.4-1.5-0.5-2.2l0.5,3.3
	c-0.1-1.2-0.1-2.4,0-3.6l-0.4,3.3c0.1-0.7,0.3-1.5,0.5-2.2c0.9-3.3,0.4-6.7-1.3-9.6c-3.5-5.9-11-7.8-16.9-4.5
	C1422.1,497.2,1420,499.9,1419,503L1419,503z"/>
<path class="st1" d="M1422.9,520.2c-0.1,2.9-0.3,5.8-0.7,8.6l0.4-3.3c-1.3,8.1-3.1,16.1-5.4,24c-0.8,3.3-0.4,6.7,1.3,9.6
	c3.5,6,11.1,8,17.1,4.5c0,0,0,0,0,0c2.8-1.7,4.8-4.4,5.8-7.5l5-16c1.6-5.2,3.5-10.3,4.8-15.6c1.6-6,0.4-12.3-4-16.8
	c-2.3-2.4-5.5-4.3-8.2-6.2c-1.6-1.3-3.5-2.3-5.5-2.9c-5.8-1.5-11.9,1.1-15.1,6.2c-1.9,2.9-2,6.6-2.6,9.9l-3,18.6
	c-0.5,3.3-0.6,6.7,1.3,9.6c1.4,2.3,3.5,4.1,6,5.1c2.6,1.2,5.4,1.4,8.1,0.6c3-1,6.1-2.8,7.5-5.7c2.5-4.9,4.4-10.1,5.9-15.4
	c1-3.1,1.5-6.3,1.5-9.5c0-4.9-1.9-9.6-5.3-13.1c-2.3-2.2-5.1-3.8-8.2-4.6c-2.4-0.5-4.9-0.5-7.3,0c-1.6,0.3-3.2,1-4.6,1.9
	c-2.3,1.4-4.2,3.4-5.6,5.7c-1.9,3.1-2.5,6.5-2.8,10.1c-0.1,2-0.1,3.9,0.1,5.9c0.1,3.3,0.1,6.7,0.9,9.9c1.3,5.6,5.6,10,11.1,11.6
	c6.6,1.7,13.4-2.2,15.4-8.7c1.3-4.6,2.5-9.2,3.5-13.9c0.5-2.4,1-4.8,1.4-7.1c0.6-2.9,1-5.8,1.2-8.8c0.1-4.5-1.5-8.9-4.6-12.3
	c-4-4.1-9.9-5.6-15.3-4c-4.7,1.5-7.9,4.7-10.6,8.6c-1.3,1.9-2.4,4.1-3.5,6.1l-4,7.2c-1.1,2.1-2.3,4.2-3.7,6.2l2-2.5
	c-0.5,0.6-1.1,1.2-1.7,1.8l2.5-2c-0.4,0.3-0.9,0.6-1.4,0.8l3-1.3c-0.3,0.1-0.7,0.2-1,0.3l3.3-0.5c-0.2,0-0.5,0.1-0.7,0.1l12,15.8
	c0.4-1.1,0.8-2.1,1.2-3.2l-1.3,3c1.9-4.5,4.4-8.6,7.3-12.5l-2,2.5c2.1-2.8,4.6-5.4,7.3-7.6l-2.5,2c1.2-0.9,2.5-1.7,3.9-2.4l-3,1.3
	c1-0.4,2-0.7,3.1-0.9l-3.3,0.5c1.1-0.1,2.1-0.1,3.2,0l-3.3-0.4c0.8,0.1,1.5,0.3,2.3,0.7l-3-1.3c0.6,0.3,1.2,0.6,1.7,1l-2.5-2
	c0.7,0.6,1.3,1.2,1.9,1.9l-1.9-2.5c2,2.9,3.6,6.1,4.8,9.4l-1.3-3c1.1,2.5,1.9,5.2,2.3,7.9l-0.4-3.3c0.3,2.2,0.2,4.4-0.1,6.5l0.4-3.3
	c-0.3,2.3-0.9,4.6-1.4,6.9l8.7-8.7l-0.3,0.1l3.3-0.5h-0.3l3.3,0.4l-0.3-0.1l3,1.3l-0.2-0.1l2.5,2l-0.2-0.2l2,2.5l-0.2-0.2l1.3,3
	l-0.1-0.2l0.5,3.3v-0.3c-0.1-3.3-1.4-6.5-3.7-8.8c-4.9-4.9-12.8-4.9-17.7,0c-2.2,2.4-3.9,5.5-3.7,8.8c0.3,4.4,1.9,8,5.4,10.8
	c3.4,2.7,7.9,3.6,12,2.4c4.2-1.2,7.6-4.5,8.7-8.7c1-3.8,1.6-7.7,2-11.7c0.3-4-0.1-8-1.2-11.8c-1.1-3.7-2.6-7.2-4.3-10.7
	c-1.4-3.2-3.3-6.2-5.5-9c-1.4-1.6-3.1-3.1-4.9-4.2c-1.3-0.7-2.6-1.3-4-1.8c-0.7-0.3-1.4-0.5-2.1-0.6c-2.2-0.5-4.5-0.7-6.7-0.5
	c-1.5,0.1-3,0.4-4.5,0.7c-1.7,0.5-3.3,1.1-4.9,1.9c-6.5,3-11.4,8.9-15.7,14.5c-4.2,5.7-7.5,12-9.8,18.6c-1.3,3.7,0,8,2.2,10.9
	c2.3,3.1,5.9,5,9.8,4.9c4.9-0.1,9.6-2.2,13-5.9c2.2-2.6,4.1-5.3,5.6-8.3l4.2-7.6c1.2-2.5,2.7-4.9,4.2-7.2l-1.9,2.5
	c0.5-0.6,1-1.2,1.6-1.7l-2.5,2c0.4-0.3,0.8-0.5,1.2-0.7l-3,1.3c0.2-0.1,0.4-0.1,0.6-0.2l-3.3,0.5c0.2,0,0.4,0,0.6,0l-3.3-0.5
	c0.3,0,0.7,0.1,1,0.3l-3-1.3c0.2,0.1,0.3,0.2,0.5,0.3l-2.5-2c0.2,0.2,0.4,0.4,0.6,0.6l-2-2.5c0.2,0.2,0.3,0.5,0.4,0.8l-1.3-3
	c0.1,0.4,0.2,0.8,0.3,1.2l-0.5-3.3c0.1,1,0.1,1.9-0.1,2.9l0.4-3.3c-1.3,8.4-3.2,16.7-5.6,24.9l15.4-8.7c-0.2,0-0.4-0.1-0.6-0.2
	l3,1.3c-0.2-0.1-0.3-0.2-0.5-0.3l2.5,2c-0.2-0.1-0.3-0.3-0.4-0.4l2,2.5c-0.2-0.3-0.4-0.6-0.6-1l1.3,3c-0.2-0.6-0.4-1.2-0.5-1.9
	l0.4,3.3c-0.3-2.2-0.2-4.4-0.3-6.6c-0.2-1.9-0.2-3.7,0-5.6l-0.4,3.3c0.1-0.8,0.3-1.6,0.6-2.4l-1.3,3c0.2-0.4,0.4-0.8,0.7-1.2l-2,2.5
	c0.2-0.2,0.4-0.4,0.6-0.6l-2.5,2c0.3-0.2,0.6-0.4,0.9-0.6l-3,1.3c0.3-0.1,0.6-0.2,0.9-0.2l-3.3,0.5c0.2,0,0.5,0,0.7,0l-3.3-0.4
	c0.3,0,0.7,0.1,1,0.2l-3-1.3c0.4,0.2,0.8,0.4,1.2,0.7l-2.5-2c0.4,0.3,0.7,0.6,1,1l-2-2.5c0.3,0.4,0.5,0.8,0.7,1.2l-1.3-3
	c0.2,0.5,0.3,1.1,0.4,1.6l-0.4-3.3c0.1,0.9,0.1,1.8,0,2.6l0.4-3.3c-0.8,4.5-2.1,8.9-4,13.1l1.3-3c-0.5,1.3-1.1,2.5-1.7,3.8l22.8,9.6
	l2.1-12.9l1-6.4c0.2-2,0.5-4,1.1-6l-1.3,3c0.1-0.2,0.2-0.3,0.3-0.5l-2,2.5l0.2-0.2l-5.5,3.2l0.2-0.1l-3.3,0.5h0.3l-3.3-0.4l0.3,0.1
	l-3-1.3c1.2,0.7,2.3,1.5,3.4,2.4c1.1,0.8,2.3,1.6,3.4,2.5l-2.5-2c0.5,0.4,0.9,0.8,1.3,1.3l-2-2.5c0.2,0.3,0.4,0.6,0.5,0.9l-1.3-3
	c0.1,0.3,0.2,0.5,0.2,0.8l-0.4-3.3c0.1,0.5,0.1,1.1,0,1.6l0.4-3.3c-0.6,2.7-1.4,5.3-2.3,7.9l-2.6,8.2l-4.9,16.5l24.1,6.7
	c3.2-11.8,6.2-23.7,6.6-36c0-6.9-5.6-12.5-12.5-12.5S1422.9,513.3,1422.9,520.2L1422.9,520.2z"/>
<path class="st1" d="M1432.6,551.7l0.2-10.8c0-1.4-1.1-2.5-2.5-2.5c-1.4,0-2.5,1.1-2.5,2.5l-0.2,10.8c0,1.4,1.1,2.5,2.5,2.5
	S1432.6,553,1432.6,551.7z"/>
<path class="st1" d="M1395.3,539.1c0.2,5.9-0.1,11.9-0.7,17.8h70c-1-9.7-1.3-19.5-1-29.3l-68.8,9.3c0.4,1.9,0.7,3.8,1,5.7l-1.2-9.3
	c0.8,6.4,1,12.8,0.4,19.2c0.4,9.2,4,18,10.2,24.8c6.8,6.2,15.6,9.9,24.8,10.2l9.3-1.2c5.8-1.6,11.2-4.7,15.4-9l5.5-7.1
	c3.1-5.4,4.8-11.5,4.8-17.7c0.4-4.2,0.5-8.5,0.2-12.8c-0.4-7.2-1.4-14.4-2.8-21.5c-2.8-8.6-8.5-16-16.1-20.9l-8.4-3.5
	c-4.5-1.5-9.4-1.7-14-0.6c-3.1,0-6.2,0.8-8.8,2.4c-4.3,1.4-8.2,3.9-11.3,7.2l-5.5,7.1c-3.1,5.4-4.8,11.5-4.8,17.7
	c-0.3,9.8,0,19.5,1,29.3c0.4,9.2,4,18,10.2,24.7c6.8,6.2,15.5,9.9,24.8,10.2l9.3-1.2c5.8-1.6,11.2-4.7,15.4-9l5.4-7.1
	c3.1-5.4,4.8-11.5,4.8-17.7c0.6-5.9,0.8-11.9,0.7-17.8c-0.4-9.2-4-18-10.2-24.8c-6.8-6.2-15.5-9.9-24.8-10.2l-9.3,1.2
	c-5.8,1.6-11.2,4.7-15.5,9l-5.5,7.1C1396.9,526.7,1395.3,532.8,1395.3,539.1L1395.3,539.1z"/>
<path class="st2" d="M1332,599.6c2-49.2,2.3-98.5,3.1-147.8c0.2-14.2-4.6-18.4-17.9-13.2c-17.2,6.7-33.6,15.4-50.2,23.6
	c-9.7,4.8-10.4,11.3-1.8,18.1c9.3,7.3,11.8,16.6,10.9,28.2c-2,26-2.8,52-4.4,78c-0.9,14.8-1,29.9-3.9,44.3
	c-5.5,27.4-23.1,44.5-46,46.1c4.8-3.7,9.1-6.5,12.7-9.9c10.4-9.8,13.6-21.4,9.8-35.5c-3.3-12.5-11.8-18.8-23.4-20.9
	c-19.1-3.3-33.6,5-44.3,20.2c-11,15.5-14.7,32.3-3.9,49.5c13.8,22.1,35.7,27.5,59.5,25C1280.8,700.1,1330,648.5,1332,599.6z"/>
<path class="st2" d="M1414,564.4c0.2,0,0.4,0.1,0.6,0.1c-0.8-5.1-1-10.3-0.7-15.5c0-2.8,0.2-5.6,0.2-8.2c0-0.1,0-0.1,0-0.2
	c0-1,0-1.9,0-2.9c-2.1,7.7-2.7,15.8-1.7,23.8C1413,562.4,1413.5,563.4,1414,564.4z"/>
<path class="st2" d="M1427.5,539.2c0.2-2.9,0.3-5.8,0.3-8.8c0-2.5,0-5-0.2-7.5c-0.2,0-0.3,0-0.5,0c0,1.3,0,2.6-0.1,3.9
	c0,4.5-0.1,9-0.4,13.5C1426.9,539.9,1427.2,539.5,1427.5,539.2z"/>
<path class="st2" d="M1413.3,581.3l-0.7-0.9c-0.4-0.3-0.8-0.7-1.1-1.2c-0.1-0.1-0.1-0.2-0.2-0.3c-1.8-1.8-3-3.9-3.7-6.3
	c-0.2-0.6-0.1-1.3,0.2-1.8c-0.7-0.4-1.4-0.9-2-1.5c-1.1-1.1-1-2.8,0.1-3.9c0.2-0.2,0.5-0.4,0.9-0.6c-0.4-1-1-2-1.5-3
	c-0.8-1.1-0.6-2.6,0.5-3.4c0.3-0.2,0.6-0.3,0.9-0.4c-0.7-10.1,1-20.3,5-29.6c-1.4,0.8-3.2,0.4-4-1c-0.4-0.6-0.5-1.3-0.4-2
	c1.3-7,6-13,12.6-15.9c0.2-0.4,0.3-0.8,0.5-1.2v-0.3c-0.4-0.1-0.9-0.1-1.3,0c-1.7,1-3,1.9-3.6,2.4c-1.6,1.2-3.2,2.5-4.6,3.9
	c-2.2,3.4-3.9,7.2-4.9,11.2c-0.2,0.9-0.5,1.7-0.7,2.6c1.3,0.1,2.4,1.2,2.3,2.5c0,0.3-0.1,0.5-0.2,0.8c-3.9,11.5-5.3,23.6-4,35.7
	c0.6,5,2.2,10,6.2,13.3c1.9,1.7,4.5,2.3,6.9,1.7c-0.1,0-0.2-0.1-0.4-0.2C1415.1,582.2,1414,582,1413.3,581.3z"/>
<path class="st2" d="M1416.3,518.7c-1.9,2.2-3.2,4.8-3.8,7.7c1-2,2.1-4,3.3-5.9c0.1-0.2,0.3-0.3,0.4-0.5
	C1416.3,519.5,1416.3,519.1,1416.3,518.7z"/>
<path class="st2" d="M1429.8,506.4c-0.1-0.2-0.1-0.3-0.2-0.4c-0.2-0.2-0.5-0.5-0.8-0.7h-0.1c-0.4,0.4-0.8,0.9-1.2,1.5
	c0.1,0.2,0.3,0.3,0.4,0.5C1428.6,506.9,1429.2,506.6,1429.8,506.4z"/>
<path class="st2" d="M1434.3,522.8c0.2-0.4,0.4-0.7,0.7-1c-0.3-2.6-0.8-5.2-1.5-7.8c-0.2-0.3-0.3-0.7-0.3-1
	c-0.2-0.6-0.4-1.2-0.6-1.8c-0.7,0.2-1.3,0.5-1.9,0.8c1.6,4.4,2.5,9,2.6,13.7C1433.6,524.7,1433.9,523.7,1434.3,522.8z"/>
<path class="st2" d="M1433.3,539.9c0.9-1.4,1.7-2.8,2.4-4.3c0-0.3,0-0.6,0-1C1435.1,536.4,1434.3,538.1,1433.3,539.9z"/>
<path class="st2" d="M1432.5,549.9l-0.6,0.8c-0.4,3.9-1,7.8-1.5,11.6c-0.4,3.3-0.6,7-1.2,10.5c0.4,0.9,0.2,1.9-0.5,2.6
	c-0.6,2.9-1.9,5.5-3.8,7.8c-1.7,2-4,3.4-6.5,4.1c5.7,0.1,11.1-4.4,13.4-9.5c1.8-4,1.9-9.1,2.3-13.5c0.7-6.1,1.2-12.3,1.5-18.5
	C1434.6,547.2,1433.5,548.5,1432.5,549.9z"/>
<path class="st2" d="M1431.7,472.4c-42.6-0.3-82.9,34-91.2,77.6c-7.6,40.2,20,73.6,60.7,73.6c44.5-0.1,87.6-39.6,91.4-84.1
	C1496,500.7,1470.6,472.7,1431.7,472.4z M1458.8,569.9c0,1.5-1.2,2.7-2.7,2.7c-1.3,0-2.9-1.3-2.7-2.7c0.2-1.7,0.3-3.4,0.2-5.1
	c0-3.5,5.4-3.5,5.4,0C1459.1,566.5,1459,568.2,1458.8,569.9z M1457.9,524.3c-0.5,8.1-1.7,16.2-3.5,24.1c-0.2,1.1-1.1,1.9-2.1,1.9
	c0,0.3,0.1,0.6,0.1,0.8c1.3,2.7,1.5,5.8,0.6,8.6c-0.2,0.7-0.5,1.3-0.8,2c-0.5,3.6-1.2,7.2-2.3,10.8c-0.3,1-1.1,1.7-2.2,1.9v0.1
	c1.4,1.7,3.1,3.3,3.7,5.6c0.6,2.5-0.6,5.1-3,6.1c-3.5,1.7-9.1,2.2-12-0.9c-0.7-0.7-1.2-1.6-1.5-2.5c-2.1,3.6-5.3,6.5-9.1,8.2
	c-3.8,1.9-8.2,2.2-12.3,1.1c-4.9-1.5-8.2-5.3-11.2-9.2c-12.9-17.1-14.8-41.5-4.6-60.1c3.2-11.3,12.2-20,23.6-23
	c0.6-0.2,1.3-0.1,1.9,0.2c0.4-0.9,1.4-1.4,2.3-1.3c1,0.1,2,0.3,3,0.5c1.7-0.5,3.6-0.4,5.3,0.2c0.9-1.1,2.2-1.8,3.7-1.9
	c0.2,0,0.4-0.1,0.7-0.1c0.4,0,0.9,0,1.3,0c1.5,0,2.7,1.2,2.7,2.7v2.2c0,0.8-0.4,1.5-0.9,2l0.4,0.4l0.1,0.1
	c5.9-3.9,15.2-7.6,19.9-0.9c3.5,4.8,3.4,11.3-0.2,16C1460.5,521.5,1459.3,522.9,1457.9,524.3L1457.9,524.3z M1468.6,523.6
	c0,1.3-1,2.5-2.4,2.7c-1.3,0.2-2.6-0.6-3-2c-0.3-0.8-0.5-1.5-0.7-2.3c-0.2-1,0.1-2,0.8-2.7v-0.8c0-3.5,5.4-3.5,5.4,0
	C1468.8,520.1,1468.8,521.8,1468.6,523.6L1468.6,523.6z"/>
<path class="st2" d="M1442.6,540.2c-0.3-2.6,0.2-5.3,1.4-7.7c1.3-2.5,2.9-4.8,4.9-6.8c-0.1-0.1-0.2-0.2-0.3-0.3
	c-0.4-0.5-0.9-0.9-1.4-1.3c-1,1.2-2.7,1.3-3.8,0.4c0,0-0.1,0-0.1-0.1c0,0,0,0.1,0,0.1c0.2,3.1-0.2,6.2-1.1,9.2c-0.3,1-0.6,1.9-1,2.9
	c-0.1,11.8-0.9,23.5-2.5,35.2c1.7-1.1,3.7-1.5,5.7-1c0-0.3,0-0.7,0-1c-0.9-0.2-1.5-0.9-1.8-1.8c-1.9-6.8-1-13.3,3.3-19
	c0.1-0.2,0.3-0.4,0.5-0.5c0-0.1-0.1-0.3-0.1-0.4C1445.4,545.1,1443.1,543.1,1442.6,540.2z"/>
<path class="st2" d="M1452.6,506c-2.5,0.7-4.8,1.7-7,3c0.5,0.6,1,1.3,1.5,1.9v-0.2c-0.1-1.5,1.1-2.8,2.6-2.9
	c1.5-0.1,2.8,1.1,2.9,2.6c0,0.1,0,0.2,0,0.3v2.9c0,1.3-0.9,2.3-2.1,2.6c0.8,1.6,1.6,3.2,2.2,4.9c0.2-4.1,0.3-8.3,0.3-12.4
	c0-1.5,1.2-2.7,2.6-2.7c0.2,0,0.4,0,0.6,0.1C1455.1,505.6,1453.8,505.6,1452.6,506z"/>
<path class="st2" d="M1445.4,580c-0.9,0.5-2,0.6-3,0.5c-1.2-0.1-2.1-1.2-2-2.5c0-0.1,0-0.2,0.1-0.3c-0.6,1.2-0.6,2.7,0,3.9
	c0.4,0.6,0,0.2,0.5,0.4c0.5,0.1,1,0.1,1.5,0.1c1.2,0,2.4-0.2,3.5-0.6l0.2-0.1l0,0C1446,580.8,1445.8,580.4,1445.4,580z"/>
<path class="st2" d="M1448.2,540.1c0.5,1.1,1.1,2.1,1.8,3c0.8-4.1,1.4-8.3,1.9-12.5c-0.6,0.7-1.1,1.3-1.6,2.1
	C1448.9,534.6,1447.2,537.6,1448.2,540.1z"/>
<path class="st2" d="M1458.4,508.9c0,2,0,4-0.1,6c0.8-1.7,1-3.6,0.3-5.4C1458.6,509.3,1458.5,509.1,1458.4,508.9z"/>
<path class="st2" d="M1563.6,690.3"/>
<path class="st2" d="M1563.8,687.1"/>
<path class="st2" d="M1564.2,723.5"/>
<path class="st2" d="M1562.7,719.2"/>
<path class="st2" d="M1790.8,367.1c-16,6-31.8,12.9-47.3,20.2c-8.3,3.9-7.7,9.7-2.4,17c3.8,5.5,6,11.8,6.7,18.4
	c0.8,8.7-0.8,17.6-1,26.4c-0.2,10-3.3,18.5-14.6,18c-12.6-0.6-11.7-10.7-11.2-19.9c0.9-15.3,2.3-30.6,1.9-45.9
	c-0.1-4.1-6.1-11.3-9.6-11.4c-24.2-0.7-42.7,11.5-60.3,28.6c21.1,16.3,12.5,37.4,11,56.5c-0.4,5.6-9.9,10.5-15.2,15.7
	c-3-6-6.4-11.9-8.7-18.2c-1.1-2.8-0.1-6.4,0-9.7c1.1-31.6,2.3-63.2,3.1-94.8c0.3-13-5.4-18-17.2-12.9c-16.5,7.1-32.2,16.3-48.1,25
	c-6.9,3.8-7.1,8.6-1.3,14.5c4.1,4.2,10.2,9.6,10.1,14.4c-0.7,30.1-2.2,60.3-5.1,90.3c-0.5,4.9-9.8,8.9-15,13.4
	c-2.5-5.8-7.2-11.7-7.2-17.5c0.3-34.4,1.9-68.8,2.8-103.2c0.4-14.3-3.3-17.9-16.3-13.2c-16.5,6-32.3,14-48.2,21.5
	c-7.7,3.6-9.3,9.3-2.2,15.1c9,7.2,11,16.5,10.2,27.3c-2.4,35.7-4.1,71.4-6.8,107.1c-1.5,20,6.8,28.1,26.3,22.6
	c23.7-6.8,42.6-21.1,57.6-40.8c12,13.8,20,16.4,37.3,7.2c16.6-8.8,31.7-20.5,47.9-31.2c22.5,20.3,47.9,13.7,78.8-22.1
	c-1.3,22.8-14,39.9-36.3,44.5c-13.4,2.8-27.7,1.3-41.5,3c-4.1,0.5-7.7,5.1-11.6,7.9c3,3.9,5.5,10.9,8.9,11.3
	c35.7,4.5,70.5,1.8,103-15.8c20.6-11.2,34-27.3,34.7-51.7c1-35.3,1.8-70.7,2.5-106C1806.5,367.9,1800.2,363.6,1790.8,367.1z"/>
<path class="st2" d="M1746.7,485.3c-30.8,35.7-56.3,42.4-78.8,22.1c-16.2,10.7-31.2,22.4-47.8,31.2c-17.4,9.2-25.3,6.6-37.3-7.2
	c-14.9,19.6-33.8,34-57.6,40.8c-19.5,5.6-27.9-2.5-26.3-22.6c2.7-35.7,4.4-71.4,6.8-107.1c0.7-10.9-1.3-20.1-10.2-27.3
	c-7.1-5.8-5.4-11.5,2.2-15.1c15.9-7.5,31.7-15.5,48.2-21.5c13-4.7,16.7-1.1,16.3,13.2c-0.9,34.4-2.5,68.8-2.8,103.2
	c-0.1,5.8,4.7,11.7,7.2,17.5c5.2-4.4,14.5-8.5,15-13.4c3-30,4.5-60.1,5.1-90.3c0.1-4.8-5.9-10.2-10.1-14.4
	c-5.8-5.9-5.5-10.7,1.3-14.5c15.8-8.7,31.5-17.9,48.1-25c11.8-5.1,17.5-0.2,17.2,12.9c-0.8,31.6-2.1,63.2-3.1,94.8
	c-0.1,3.2-1.1,6.9,0,9.7c2.3,6.3,5.7,12.1,8.7,18.2c5.3-5.2,14.8-10.1,15.2-15.7c1.5-19.1,10.1-40.2-11-56.5
	c17.7-17.1,36.2-29.3,60.3-28.6c3.5,0.1,9.5,7.4,9.6,11.4c0.4,15.3-1,30.6-1.9,45.9c-0.5,9.1-1.4,19.3,11.2,19.9
	c11.3,0.5,14.4-8,14.6-18c0.2-8.8,1.8-17.7,1-26.4c-0.6-6.6-2.9-12.9-6.7-18.4c-5.3-7.3-6-13,2.4-17c15.5-7.3,31.2-14.2,47.3-20.2
	c9.3-3.5,15.7,0.8,15.5,11.4c-0.7,35.3-1.5,70.7-2.5,106c-0.7,24.4-14,40.5-34.7,51.7c-32.4,17.7-67.2,20.3-103,15.8
	c-3.4-0.4-5.9-7.4-8.9-11.3c3.8-2.7,7.5-7.4,11.6-7.9c13.8-1.7,28-0.2,41.5-3C1732.7,525.2,1745.5,508.2,1746.7,485.3z"/>
<path class="st2" d="M1221.7,676.8c23-1.6,40.5-18.7,46-46.1c2.9-14.5,3-29.5,3.9-44.3c1.6-26,2.4-52,4.4-78
	c0.9-11.6-1.5-20.9-10.9-28.2c-8.6-6.8-7.9-13.3,1.8-18.1c16.6-8.2,33-16.9,50.2-23.6c13.3-5.2,18.1-1,17.9,13.2
	c-0.8,49.3-1.1,98.6-3.1,147.8c-2,48.9-51.2,100.5-99.9,105.6c-23.8,2.5-45.7-2.9-59.5-25c-10.7-17.2-7.1-34,3.9-49.5
	c10.7-15.1,25.3-23.5,44.4-20.1c11.7,2,20.1,8.4,23.4,20.9c3.8,14.1,0.6,25.7-9.8,35.5C1230.8,670.3,1226.6,673.1,1221.7,676.8z"/>
<path class="st2" d="M1429.8,506.4c-0.1-0.2-0.1-0.3-0.2-0.4c-0.2-0.2-0.5-0.5-0.8-0.7h-0.1c-0.3,0.3-0.5,0.6-0.8,0.9
	c0.2,0.2,0.4,0.5,0.7,0.7L1429.8,506.4z"/>
<path class="st2" d="M1433.7,524.4c0.2-0.6,0.4-1.1,0.6-1.6c0.2-0.4,0.4-0.7,0.7-1c-0.3-2.6-0.8-5.2-1.5-7.8c-0.2-0.3-0.3-0.7-0.3-1
	c-0.2-0.6-0.4-1.2-0.6-1.8c-0.2,0.1-0.5,0.2-0.7,0.3c1.1,1.6,1.7,3.5,1.9,5.5C1433.8,519.4,1433.7,521.9,1433.7,524.4z"/>
<path class="st2" d="M1433.3,539.9c0.9-1.4,1.8-2.8,2.4-4.4c0-0.3,0-0.6,0-1C1435.1,536.4,1434.3,538.1,1433.3,539.9z"/>
<path class="st2" d="M1432.5,549.9l-0.2,0.2c-0.8,9.6-2,19.2-3.5,28.7c-0.4,2.5-3.3,5.6-6.8,8c4.3-1.5,7.8-4.7,9.7-8.9
	c1.8-4,1.9-9.1,2.3-13.5c0.7-6.1,1.2-12.3,1.5-18.5C1434.6,547.2,1433.5,548.5,1432.5,549.9z"/>
<path class="st2" d="M1445.4,580c-0.9,0.5-2,0.6-3,0.5c-1.2-0.1-2.1-1.2-2-2.5c0-0.1,0-0.2,0.1-0.3c-0.6,1.2-0.6,2.7,0,3.9
	c0.4,0.6,0,0.2,0.5,0.4c0.5,0.1,1,0.1,1.5,0.1c1.2,0,2.4-0.2,3.5-0.6l0.2-0.1l0,0C1446,580.8,1445.8,580.4,1445.4,580z"/>
<path class="st2" d="M1442.6,540.2c-0.3-2.6,0.2-5.3,1.4-7.7c1.3-2.5,2.9-4.8,4.9-6.8c-0.1-0.1-0.2-0.2-0.3-0.3
	c-0.4-0.5-0.9-0.9-1.4-1.3c-1,1.2-2.7,1.3-3.8,0.4c0,0-0.1,0-0.1-0.1c0,0,0,0.1,0,0.1c0.2,3.1-0.2,6.2-1.1,9.2c-0.3,1-0.6,1.9-1,2.9
	c-0.1,11.8-0.9,23.5-2.5,35.2c1.7-1.1,3.7-1.5,5.7-1c0-0.3,0-0.7,0-1c-0.9-0.2-1.5-0.9-1.8-1.8c-1.9-6.8-1-13.3,3.3-19
	c0.1-0.2,0.3-0.4,0.5-0.5c0-0.1-0.1-0.3-0.1-0.4C1445.4,545.1,1443.1,543.1,1442.6,540.2z"/>
<path class="st2" d="M1452.6,506c-2.5,0.7-4.8,1.7-7,3c0.5,0.6,1,1.3,1.5,1.9v-0.2c-0.1-1.5,1.1-2.8,2.6-2.9
	c1.5-0.1,2.8,1.1,2.9,2.6c0,0.1,0,0.2,0,0.3v2.9c0,1.3-0.9,2.3-2.1,2.6c0.8,1.6,1.6,3.2,2.2,4.9c0.2-4.1,0.3-8.3,0.3-12.4
	c0-1.5,1.2-2.7,2.6-2.7c0.2,0,0.4,0,0.6,0.1C1455.1,505.6,1453.8,505.6,1452.6,506z"/>
<path class="st2" d="M1431.7,472.4c-42.6-0.3-82.9,34-91.2,77.6c-7.6,40.2,20,73.6,60.7,73.6c44.5-0.1,87.6-39.6,91.4-84.1
	C1496,500.7,1470.6,472.7,1431.7,472.4z M1458.8,569.9c0,1.5-1.2,2.7-2.7,2.7c-1.3,0-2.9-1.3-2.7-2.7c0.2-1.7,0.3-3.4,0.2-5.1
	c0-3.5,5.4-3.5,5.4,0C1459.1,566.5,1459,568.2,1458.8,569.9z M1457.9,524.3c-0.5,8.1-1.7,16.2-3.5,24.1c-0.2,1.1-1.1,1.9-2.1,1.9
	c0,0.3,0.1,0.6,0.1,0.8c1.3,2.7,1.5,5.8,0.6,8.6c-0.2,0.7-0.5,1.3-0.8,2c-0.5,3.6-1.2,7.2-2.3,10.8c-0.3,1-1.1,1.7-2.2,1.9v0.1
	c1.4,1.7,3.1,3.3,3.7,5.6c0.6,2.5-0.6,5.1-3,6.1c-3.5,1.7-9.1,2.2-12-0.9c-0.7-0.7-1.2-1.6-1.5-2.5c-2.1,3.6-5.3,6.5-9.1,8.2
	c-3.8,1.9-8.2,2.2-12.3,1.1c-4.9-1.5-8.2-5.3-11.2-9.2c-12.9-17.1-14.8-41.5-4.6-60.1c3.2-11.3,12.2-20,23.6-23
	c0.6-0.2,1.3-0.1,1.9,0.2c0.4-0.9,1.4-1.4,2.3-1.3c1,0.1,2,0.3,3,0.5c1.7-0.5,3.6-0.4,5.3,0.2c0.9-1.1,2.2-1.8,3.7-1.9
	c0.2,0,0.4-0.1,0.7-0.1c0.4,0,0.9,0,1.3,0c1.5,0,2.7,1.2,2.7,2.7v2.2c0,0.8-0.4,1.5-0.9,2l0.4,0.4l0.1,0.1
	c5.9-3.9,15.2-7.6,19.9-0.9c3.5,4.8,3.4,11.3-0.2,16C1460.5,521.5,1459.3,522.9,1457.9,524.3L1457.9,524.3z M1468.6,523.6
	c0,1.3-1,2.5-2.4,2.7c-1.3,0.2-2.6-0.6-3-2c-0.3-0.8-0.5-1.5-0.7-2.3c-0.2-1,0.1-2,0.8-2.7v-0.8c0-3.5,5.4-3.5,5.4,0
	C1468.8,520.1,1468.8,521.8,1468.6,523.6L1468.6,523.6z"/>
<path class="st2" d="M1448.2,540.1c0.5,1.1,1.1,2.1,1.8,3c0.8-4.1,1.4-8.3,1.9-12.5c-0.6,0.7-1.1,1.3-1.6,2.1
	C1448.9,534.6,1447.2,537.6,1448.2,540.1z"/>
<path class="st2" d="M1458.4,508.9c0,2,0,4-0.1,6c0.8-1.7,1-3.6,0.3-5.4C1458.6,509.3,1458.5,509.1,1458.4,508.9z"/>
<circle class="st3" cx="1302.7" cy="385.3" r="38.4"/>
<text transform="matrix(0.9441 -0.3295 0.3295 0.9441 1280.7664 837.3953)" class="st0 st4 st5">Energy</text>
<text transform="matrix(0.9441 -0.3295 0.3295 0.9441 1280.7664 837.3953)" class="st6 st4 st5">Energy</text>
<path class="st2" d="M1340.9,598.5c2-49.2,2.3-98.5,3.1-147.8c0.2-14.2-4.6-18.4-17.9-13.2c-17.2,6.7-33.6,15.4-50.2,23.6
	c-9.7,4.8-10.4,11.3-1.8,18.1c9.3,7.3,11.8,16.6,10.9,28.2c-2,26-2.8,52-4.4,78c-0.9,14.8-1,29.9-3.9,44.3
	c-5.5,27.4-23.1,44.5-46,46.1c4.8-3.7,9.1-6.5,12.7-9.9c10.4-9.8,13.6-21.4,9.8-35.5c-3.3-12.5-11.8-18.9-23.4-20.9
	c-19.1-3.3-33.6,5-44.3,20.2c-11,15.5-14.7,32.3-3.9,49.5c13.8,22.1,35.7,27.5,59.5,25C1289.7,699,1338.8,647.4,1340.9,598.5z"/>
<path class="st2" d="M1422.8,544.3c0-1.6,0.1-3.1,0.1-4.6c0-0.8,0.3-1.5,0.9-2c0-1.2,0.3-2.5,0.7-3.6c-0.1-0.6-0.1-1.2-0.1-1.8
	c-0.4,1-0.7,2-1,3c-0.2,3.1-0.6,6.2-1,9.2c0,0.1,0,0.1,0,0.2L1422.8,544.3z"/>
<path class="st2" d="M1429,526.5c0-1.2-0.1-2.4-0.1-3.5c-1.2,2-2.3,4-3.3,6.1c0.5-0.4,1.1-0.6,1.7-0.6
	C1427.9,527.8,1428.5,527.1,1429,526.5z"/>
<path class="st2" d="M1434.4,549.5c0,0.1,0,0.2-0.1,0.3v2.3c0.2,0.6,0.3,1.2,0.4,1.8c0.2-1.8,0.4-3.6,0.6-5.4
	C1435.2,549,1434.9,549.3,1434.4,549.5z"/>
<path class="st2" d="M1429.7,507.7c0.2-0.1,0.5-0.3,0.7-0.3c-0.2-0.1-0.3-0.2-0.5-0.2c-0.2-0.1-0.4-0.1-0.6-0.1
	c-1.5,0.7-3,1.6-4.3,2.5v0.1C1426.5,508.9,1428.1,508.3,1429.7,507.7z"/>
<path class="st2" d="M1415.7,569c-0.4-0.2-0.7-0.5-1-0.8c-1.1-1.1-1-2.9,0.1-3.9c0.3-0.3,0.7-0.5,1.1-0.6c0.1,0,0.2-0.1,0.2-0.1
	c-0.1-0.4-0.1-0.9-0.2-1.3c-1.9-4.7-3.2-9.7-3.7-14.8c-0.8,6.2-0.8,12.4-0.1,18.6c0,0.5,0.1,0.9,0.2,1.4c0.7,1.5,1.2,3.1,1.7,4.7
	c0.3,0.2,0.7,0.3,1.1,0.4C1415.3,571.3,1415.5,570.1,1415.7,569z"/>
<path class="st2" d="M1430.9,576l0.2,0.2c0.4-0.8,0.8-1.6,1-2.4c0.2-0.6,0.3-1.2,0.4-1.9c-0.3,0.1-0.7,0.2-1,0.2
	C1431.8,573.5,1431.5,574.8,1430.9,576z"/>
<path class="st2" d="M1426.1,580.2c-0.6,0.6-1.3,0.8-2.1,0.8c0,0.1-0.1,0.2-0.1,0.3c1.2-0.1,2.4-0.4,3.4-1c-0.2-0.3-0.3-0.5-0.5-0.8
	C1426.5,579.7,1426.3,579.9,1426.1,580.2z"/>
<path class="st2" d="M1426.6,516.2c-1.1,1-2,2.1-2.7,3.4c0,0.5,0,0.9,0,1.4c0.3-0.5,0.6-1,1-1.6c0.4-0.7,1.2-1.2,2.1-1.3
	C1426.6,517.5,1426.5,516.8,1426.6,516.2z"/>
<path class="st2" d="M1444.4,526.7c-0.7,0.4-1.5,0.4-2.2,0.2c0,1.7,0,3.4-0.1,5c-0.4,9.8-1.4,19.6-2.9,29.3l-0.1,0.8
	c0.8,0.5,1.2,1.3,1.2,2.2c0,1.7,0,3.4-0.2,5.1c-0.1,1.2-0.9,2.3-2.1,2.7c-0.6,3.7-1.8,7.3-4.3,10.1c-0.5,0.6-1.1,1.2-1.8,1.7
	c-0.6,0.8-1.3,1.4-2.2,1.8c-0.4,0.2-0.9,0.4-1.3,0.5c5.2-0.5,10-4.7,12.1-9.4c1.8-4,1.9-9.1,2.3-13.5
	C1444.3,551.1,1445.1,538.9,1444.4,526.7z"/>
<path class="st2" d="M1440.7,471.3c-42.6-0.3-82.9,34-91.2,77.6c-7.6,40.2,20,73.6,60.7,73.6c44.6,0,87.6-39.6,91.4-84.1
	C1504.9,499.6,1479.5,471.6,1440.7,471.3z M1450,527.7c0,1.4,0.1,2.6,0.1,3.8c0.3,13.1-0.9,26.3-2.5,39.3c-1,8.1-4.9,15.5-12.6,19.1
	c-3.8,1.9-8.2,2.2-12.3,1.1c-4.9-1.5-8.2-5.3-11.2-9.2c-12.9-17.1-14.8-41.5-4.6-60.1c2-6.7,6-12.7,11.4-17c0.4-0.6,1-1.1,1.7-1.2
	c3.2-2.2,6.7-3.8,10.4-4.8c0.6-0.2,1.3-0.1,1.9,0.2c0.4-0.9,1.4-1.4,2.3-1.3c2.1,0.1,4.2,0.8,6,2c0.5,0.3,0.9,0.6,1.3,1
	c3.9,3.4,5.9,9.2,6.9,15.1c0.8,0.4,1.3,1.3,1.3,2.3c0,1.2,0,2.4-0.1,3.6c0.4,1.1,0.8,2.2,1.1,3.3
	C1451.5,525.9,1451,527.1,1450,527.7z"/>
<path class="st2" d="M1572.5,689.2"/>
<path class="st2" d="M1572.8,686"/>
<path class="st2" d="M1573.1,722.4"/>
<path class="st2" d="M1571.7,718.1"/>
<path class="st2" d="M1799.7,366c-16.1,6-31.8,12.9-47.3,20.2c-8.3,3.9-7.7,9.7-2.4,17c3.8,5.5,6,11.8,6.7,18.4
	c0.8,8.7-0.8,17.6-1.1,26.4c-0.2,10-3.3,18.5-14.6,18c-12.5-0.6-11.7-10.7-11.2-19.9c0.9-15.3,2.3-30.6,1.9-45.9
	c-0.1-4.1-6.1-11.3-9.6-11.4c-24.2-0.7-42.7,11.5-60.3,28.6c21.1,16.3,12.5,37.4,11,56.5c-0.4,5.6-9.9,10.5-15.2,15.7
	c-3-6-6.4-11.9-8.7-18.2c-1.1-2.8-0.1-6.4,0-9.7c1.1-31.6,2.3-63.2,3.1-94.8c0.3-13-5.4-18-17.2-12.9c-16.5,7.1-32.2,16.3-48.1,25
	c-6.9,3.8-7.1,8.6-1.3,14.5c4.1,4.2,10.2,9.6,10.1,14.4c-0.7,30.1-2.2,60.3-5.1,90.3c-0.5,4.9-9.8,8.9-15,13.4
	c-2.5-5.9-7.2-11.7-7.2-17.5c0.3-34.4,1.9-68.8,2.8-103.2c0.4-14.3-3.3-17.9-16.3-13.2c-16.5,6-32.3,13.9-48.2,21.5
	c-7.6,3.6-9.3,9.3-2.2,15.1c9,7.2,11,16.5,10.2,27.3c-2.4,35.7-4.1,71.4-6.8,107.1c-1.5,20,6.9,28.1,26.3,22.6
	c23.7-6.8,42.6-21.1,57.6-40.8c12,13.8,20,16.4,37.3,7.2c16.6-8.8,31.7-20.5,47.9-31.2c22.5,20.3,47.9,13.7,78.8-22.1
	c-1.3,22.8-14,39.9-36.3,44.5c-13.4,2.8-27.7,1.3-41.5,3c-4.1,0.5-7.7,5.1-11.6,7.9c2.9,3.9,5.5,10.9,8.9,11.3
	c35.7,4.5,70.5,1.8,102.9-15.8c20.6-11.2,34-27.3,34.7-51.7c1-35.3,1.8-70.7,2.5-106C1815.5,366.8,1809.1,362.5,1799.7,366z"/>
<path class="st2" d="M1755.6,484.2c-30.8,35.7-56.3,42.3-78.8,22.1c-16.2,10.7-31.2,22.4-47.9,31.2c-17.4,9.2-25.3,6.6-37.3-7.2
	c-14.9,19.6-33.8,34-57.6,40.8c-19.5,5.6-27.9-2.5-26.3-22.6c2.7-35.7,4.4-71.4,6.8-107.1c0.7-10.9-1.3-20.1-10.2-27.3
	c-7.1-5.8-5.4-11.5,2.2-15.1c15.9-7.5,31.7-15.5,48.2-21.5c13-4.7,16.7-1.1,16.3,13.2c-0.9,34.4-2.5,68.8-2.8,103.2
	c-0.1,5.8,4.6,11.7,7.2,17.5c5.2-4.4,14.5-8.5,15-13.4c3-30,4.5-60.1,5.1-90.3c0.1-4.8-5.9-10.2-10.1-14.4
	c-5.8-5.9-5.6-10.7,1.3-14.5c15.8-8.7,31.5-17.9,48.1-25c11.8-5.1,17.5-0.2,17.2,12.9c-0.8,31.6-2,63.2-3.1,94.8
	c-0.1,3.3-1.1,6.9,0,9.7c2.3,6.3,5.7,12.1,8.7,18.2c5.3-5.2,14.8-10.1,15.2-15.7c1.5-19.1,10.1-40.2-11-56.5
	c17.7-17.1,36.2-29.3,60.3-28.6c3.5,0.1,9.5,7.4,9.6,11.4c0.4,15.3-1,30.6-1.9,45.9c-0.5,9.1-1.4,19.3,11.2,19.9
	c11.3,0.5,14.4-8,14.6-18c0.2-8.8,1.9-17.7,1.1-26.4c-0.6-6.6-2.9-12.9-6.7-18.4c-5.3-7.3-6-13,2.4-17c15.5-7.3,31.2-14.2,47.3-20.2
	c9.3-3.5,15.7,0.8,15.5,11.4c-0.7,35.3-1.5,70.7-2.5,106c-0.7,24.4-14,40.5-34.7,51.7c-32.4,17.7-67.2,20.3-102.9,15.8
	c-3.4-0.4-6-7.4-8.9-11.3c3.8-2.7,7.5-7.4,11.6-7.9c13.8-1.7,28-0.2,41.5-3C1741.7,524.1,1754.4,507,1755.6,484.2z"/>
<path class="st2" d="M1230.7,675.7c23-1.6,40.5-18.7,46-46.1c2.9-14.5,3-29.5,3.9-44.3c1.6-26,2.4-52,4.4-78
	c0.9-11.6-1.5-20.9-10.9-28.2c-8.6-6.8-7.9-13.3,1.8-18.1c16.6-8.2,33-16.9,50.2-23.6c13.3-5.2,18.1-1,17.9,13.2
	c-0.8,49.3-1.1,98.6-3.1,147.8c-2,48.9-51.2,100.5-99.9,105.6c-23.8,2.5-45.7-2.9-59.5-25c-10.8-17.2-7.1-34,3.9-49.5
	c10.7-15.1,25.3-23.5,44.3-20.2c11.7,2,20.1,8.4,23.4,20.9c3.8,14.1,0.6,25.7-9.8,35.5C1239.7,669.2,1235.5,672,1230.7,675.7z"/>
<path class="st2" d="M1444.4,526.7c-0.6,0.3-1.3,0.4-2,0.2c-0.4,11.9-1.2,23.8-2.6,35.6c0.4,0.5,0.6,1,0.5,1.6c0,1.7,0,3.4-0.2,5.1
	c-0.1,1-0.7,1.9-1.5,2.4c-0.3,2-0.6,3.9-0.9,5.9c-0.4,2.5-3.3,5.6-6.8,8c4.3-1.5,7.8-4.7,9.7-8.9c1.8-4,1.9-9.1,2.3-13.5
	C1444.3,551.1,1445.1,538.9,1444.4,526.7z"/>
<path class="st2" d="M1440.7,471.3c-42.6-0.3-82.9,34-91.2,77.6c-7.6,40.2,20,73.6,60.7,73.6c44.6,0,87.6-39.6,91.4-84.1
	C1504.9,499.6,1479.5,471.6,1440.7,471.3z M1450,527.7c0,1.4,0.1,2.6,0.1,3.8c0.3,13.1-0.9,26.3-2.5,39.3c-1,8.1-4.9,15.5-12.6,19.1
	c-3.8,1.9-8.2,2.2-12.3,1.1c-4.9-1.5-8.2-5.3-11.2-9.2c-12.9-17.1-14.8-41.5-4.6-60.1c2-6.7,6-12.7,11.4-17c0.4-0.6,1-1.1,1.7-1.2
	c3.2-2.2,6.7-3.8,10.4-4.8c0.6-0.2,1.3-0.1,1.9,0.2c0.4-0.9,1.4-1.4,2.3-1.3c2.1,0.1,4.2,0.8,6,2c0.5,0.3,0.9,0.6,1.3,1
	c3.9,3.4,5.9,9.2,6.9,15.1c0.8,0.4,1.3,1.3,1.3,2.3c0,1.2,0,2.4-0.1,3.6c0.4,1.1,0.8,2.2,1.1,3.3
	C1451.5,525.9,1451,527.1,1450,527.7z"/>
<text transform="matrix(0.941 -0.3384 0.3384 0.941 1274.8464 844.8654)" class="st0 st4 st7">Energy</text>
<text transform="matrix(0.941 -0.3384 0.3384 0.941 1274.8464 844.8654)" class="st8 st4 st7">Energy</text>
<circle class="st3" cx="1305.4" cy="387.5" r="38.4"/>
<path class="st0" d="M508.3,487.7c0.3-0.3,0.7-0.6,1-1c5-4.9,6.4-12.7,9-19c0.3-0.8,1-1.5,1.9-1.7v-0.1c-0.9-0.4-1.5-1.4-1.5-2.4
	v-3.5c-1.4-0.7-1.9-2.5-1.2-3.9c0.1-0.2,0.2-0.4,0.3-0.5c-2.6,0.8-5,2-7.2,3.6l-0.9,0.6c0.2,9.2-0.3,18.5-1.5,27.6
	C508.3,487.6,508.3,487.6,508.3,487.7z"/>
<path class="st0" d="M517.3,484.9c1-1.5,1.9-3.1,2.6-4.7c0.7-1.7,1.2-3.4,1.5-5.2C520.3,478.4,518.9,481.7,517.3,484.9z"/>
<path class="st0" d="M518,450.1c-0.9-0.7-2.1-1-3.2-1c-1.8,0.1-3,2.2-3.9,3.5C513.2,451.5,515.6,450.7,518,450.1z"/>
<path class="st0" d="M421.3,529.3l216.6,155.8L772.8,99.5L421.3,529.3z M532.6,470.4c-0.4-0.5-0.9-0.9-1.4-1.3
	c-1,1.2-2.7,1.3-3.8,0.4c0,0-0.1,0-0.1-0.1c0,0,0,0.1,0,0.1c0.2,3.1-0.2,6.2-1.1,9.1c-1.7,6.3-5.8,11.2-9.7,16.2
	c-1.5,1.9-2.9,3.9-4.1,6c0.5,1.3,0.9,2.6,1.3,3.9c0.5,1.3-0.2,2.6-1.4,3.1c-0.2,0.1-0.3,0.1-0.5,0.1c0.6,1.6,0.9,3.4,0.9,5.1
	c0,1.5-1.2,2.7-2.7,2.7l0,0c0,0,0,0.1,0,0.1c2.7-0.5,4.8,3.5,1.9,5c-1.6,0.8-1.7,2.2-2.3,3.7c-0.7,1.6-1.8,2.9-3.2,3.9
	c-1.5,1.1-3.4-0.1-4-1.5c-1.3,0.6-2.8,0.1-3.6-1.1c-1.4-2.2-2.4-4.7-3.1-7.2c-3.2-3-4.5-8.5-6.7-11.9c-1.8-2.9,2-5,4.3-3.3
	c3.8,3,5.2,7.2,6.7,11.5c0.3,0.2,0.7,0.3,1.1,0.4c0.1-1.3,0.3-2.6,0.5-3.9l-0.1-0.2c-0.2-0.4-0.3-0.7-0.5-1.1
	c-0.6-1.4,0-3.1,1.3-3.8c-2.8-6.5-4.3-13.5-4.5-20.6c-0.1-6.7,0.7-13.5,2.3-20c-0.3-2.1,0.3-4.2,1.5-5.9c0.6-2.2,1.4-4.3,2.3-6.4
	c0-1.5-0.1-3.1-0.2-4.6c-0.1-2.6,2.8-3.3,4.4-2c0.4-0.4,0.7-0.7,1.2-1.1c2.3-2,5.5-2.5,8.3-1.5c0.9-1.1,2.2-1.8,3.7-1.9
	c0.2,0,0.4-0.1,0.7-0.1c0.4,0,0.9,0,1.3,0c1.5,0,2.7,1.2,2.7,2.7v2.2c0,0.8-0.4,1.5-0.9,2l0.4,0.4c4.9,4.9,9.4,11.4,11.3,18.1
	C537.8,470.2,534.4,472.6,532.6,470.4z"/>
<polygon class="st0" points="572.4,396.7 461.4,909.1 772.4,540.6 "/>
<path class="st1" d="M523.9,469.8c-2.5,8.1-5.8,15.9-9.8,23.4l4.7,1.3c-0.6-10.8,2.3-21.5,8.2-30.5l-4.7-1.3l-1,9
	c0,1.4,1.1,2.5,2.5,2.5c1.4,0,2.5-1.1,2.5-2.5l1-9c0-1.1-0.8-2.1-1.8-2.4c-1.1-0.3-2.2,0.2-2.8,1.1c-6.4,9.8-9.5,21.3-8.9,33
	c0.1,2.4,3.4,3.6,4.7,1.3c4.2-7.9,7.7-16.1,10.3-24.6C529.7,468,524.8,466.7,523.9,469.8L523.9,469.8z"/>
<path class="st1" d="M524.3,467.8c3.2,0,3.2-5,0-5S521.1,467.8,524.3,467.8z"/>
<path class="st1" d="M515.1,463.8c3.3,0,6.5-1.4,8.8-3.7c4.9-4.9,4.9-12.8,0-17.7c-4.9-4.9-12.8-4.9-17.7,0
	c-4.9,4.9-4.9,12.8,0,17.7C508.7,462.4,511.8,463.7,515.1,463.8L515.1,463.8z"/>
<path class="st1" d="M503,448c-1.3,4.8-1.3,9.8,0,14.6c1.8,6.7,8.7,10.6,15.4,8.7c2.1-0.6,4-1.7,5.5-3.2c3.3-3.4,5.2-8.8,3.7-13.5
	c-0.9-3.2-2.9-6-5.5-8c-6.2-4.7-15-3.9-20.2,1.8c-2.6,2.7-4,6-5.6,9.2l-4.4,8.9l23.3,6.3c0-0.8,0.1-1.6,0.2-2.4l-0.5,3.3
	c0.2-1.4,0.6-2.7,1.1-4l-1.3,3c0.6-1.5,1.5-2.9,2.5-4.2l-2,2.5c1-1.3,2.2-2.4,3.5-3.4l-2.5,2c1.2-0.9,2.5-1.7,3.9-2.3l-3,1.3
	c1.3-0.5,2.6-0.9,4-1.1l-3.3,0.4l0.7-0.1l-10.8-6.2c2.3,3.4,4.3,7,5.9,10.8l-1.3-3c2.2,5.3,3.7,10.8,4.5,16.5l-0.5-3.3
	c0.7,5.7,0.7,11.4,0,17.1l0.5-3.3c-0.7,5.4-2.2,10.7-4.3,15.7l1.3-3c-0.6,1.5-1.4,2.9-2.3,4.2l2-2.5c-0.5,0.6-1,1.2-1.7,1.7l2.5-2
	c-0.5,0.4-1.1,0.7-1.7,0.9l3-1.3c-0.5,0.2-1,0.3-1.5,0.4l3.3-0.4c-0.5,0.1-1,0.1-1.5,0l3.3,0.5c-0.4-0.1-0.7-0.2-1.1-0.3l3,1.3
	c-0.4-0.2-0.7-0.4-1-0.6l2.5,2c-1.5-1.3-2.8-2.8-3.9-4.4l2,2.5c-2.9-3.7-5.2-7.7-7.1-12l1.3,3c-1.2-2.9-2.1-6-2.6-9.2l0.5,3.3
	c-0.3-2.4-0.4-4.8-0.1-7.2l-0.4,3.3c0.3-1.9,0.8-3.7,1.5-5.5l-1.3,3c0.6-1.3,1.3-2.5,2.1-3.6l-2,2.5c0.6-0.8,1.4-1.5,2.2-2.2l-2.5,2
	c0.7-0.5,1.4-1,2.1-1.3l-3,1.3c0.2-0.1,0.5-0.2,0.7-0.2l-3.3,0.5h0.4l-3.3-0.5l0.4,0.1l-3-1.3c0.2,0.1,0.4,0.2,0.5,0.3l-2.5-2
	l0.2,0.2l-2-2.5c0.1,0.2,0.2,0.4,0.3,0.6l-1.3-3c0.9,2.3,1.1,5,1.6,7.4l1.6,8.1l1.3,3c0.8,1.4,1.9,2.6,3.2,3.5
	c2.1,1.7,4.8,2.7,7.6,2.7c2.2-0.1,4.4-0.7,6.3-1.7c3-1.6,4.6-4.5,5.8-7.5c0.6-1.5,1.2-3.1,1.8-4.6l-1.3,3c1.6-3.9,3.6-7.6,6.1-10.9
	l-2,2.5c2-2.3,3.8-4.8,5.5-7.4c2-3.4,3.2-7.2,3.5-11.1c0.7-7.7-3.3-15.1-10.2-18.7c-2.6-1.3-5.3-2.2-8.1-2.8
	c-4-0.8-8.1-1.2-12.1,0.1c-2.6,0.8-5,2.2-6.9,4.1c-2,2-3.4,4.4-4.3,7c-1.4,4-1,9.6,1.5,13c1.2,1.8,2.7,3.3,4.5,4.5
	c2.4,1.4,5.2,1.9,8,1.5c4.9-0.7,9-4.2,10.4-9c1.4-4.4,2.5-8.9,3.5-13.5c0.8-4,0.3-7.6-2.2-10.9c-2.2-2.9-6-5.3-9.8-4.9
	c-4.6,0.3-9.1,1.7-13.2,3.9c-1.9,1.1-3.8,2.5-5.5,3.9c-1.1,0.9-2,1.9-2.8,3c-1.5,1.7-2.8,3.6-3.9,5.6c-1.1,2.2-2,4.6-2.8,7
	c-1,3.1-1.8,6.3-3.1,9.3l1.3-3c-1.1,2.5-2.2,5-3.1,7.5c-0.8,2.7-1.4,5.4-1.6,8.2c-0.5,4.8,0.3,9.6,1.3,14.3
	c0.7,3.6,1.5,7.2,2.5,10.7c1.1,4.2,2.9,8.1,5.4,11.7c2.9,4,6.3,7.7,10.9,9.8c3.2,1.6,6.8,2.5,10.4,2.7c3.6,0.1,7.2-0.8,10.4-2.6
	c8.6-4.7,12.3-14.7,14.1-23.7c1.9-9.5,2.7-19.3,2.4-29c-0.1-6.2-4.7-11.4-10.8-12.3c-2.8-0.5-5.6,0.1-8,1.5
	c-2.6,1.7-5.2,4.3-5.8,7.5c-1.2,7-1.7,14-1.5,21.1h25c-0.2-4.5-0.7-9.3-2.3-13.5c-1.2-3.4-3-6.6-5.4-9.3c-2.5-2.9-5.6-4.3-9-5.7
	c-2.8-1.2-7.2-0.2-9.6,1.3c-6,3.5-8,11.1-4.5,17.1l2,2.5c1.5,1.5,3.4,2.6,5.5,3.2l0.3,0.1l-3-1.3c0.7,0.3,1.3,0.7,1.9,1.1l-2.5-2
	c0.7,0.5,1.3,1.1,1.9,1.8l-2-2.5c0.7,0.9,1.3,1.9,1.7,3l-1.3-3c0.8,2.1,1.3,4.3,1.6,6.5l-0.4-3.3c0.2,1.3,0.3,2.7,0.3,4
	c0.1,3.3,1.4,6.5,3.7,8.8c4.9,4.9,12.8,4.9,17.7,0c0,0,0,0,0,0c2.3-2.3,3.7-5.5,3.7-8.8c-0.3-5.1,0-10.3,0.7-15.4l-0.5,3.3
	c0.1-0.8,0.2-1.6,0.4-2.4l-24.5-3.3c0.3,6.5,0,13-0.9,19.4l0.5-3.3c-0.7,5-1.5,10.3-3.5,15l1.3-3c-0.7,1.6-1.5,3-2.5,4.4l2-2.5
	c-0.6,0.8-1.4,1.6-2.2,2.2l2.5-2c-0.6,0.5-1.3,0.9-2,1.2l3-1.3c-0.6,0.3-1.3,0.4-2,0.5l3.3-0.5c-0.7,0.1-1.5,0.1-2.2,0l3.3,0.5
	c-1-0.2-1.9-0.4-2.8-0.8l3,1.3c-1.2-0.5-2.3-1.1-3.3-1.9l2.5,2c-1.2-0.9-2.3-2-3.2-3.2l2,2.5c-1.2-1.6-2.2-3.4-3-5.2l1.3,3
	c-1.1-2.8-2-5.7-2.6-8.7c-0.7-3.1-1.4-6.3-1.9-9.5l0.4,3.3c-0.3-2.5-0.4-5.1-0.1-7.6l-0.5,3.3c0.5-2.7,1.3-5.3,2.4-7.8l-1.3,3
	c1.4-3.1,2.6-6.2,3.7-9.5c0.7-2.4,1.3-4.7,2.2-7l-1.3,3c0.6-1.5,1.4-2.9,2.4-4.1l-2,2.5c1-1.3,2.2-2.4,3.4-3.4l-2.5,1.9
	c1.3-1,2.7-1.8,4.2-2.4l-3,1.3c1.4-0.6,2.8-1,4.3-1.2l-3.3,0.5c0.2,0,0.5-0.1,0.7-0.1l-12-15.8c-0.9,4.5-2.1,9-3.5,13.5l22.8-3
	c-0.2-0.2-0.3-0.5-0.5-0.8l1.3,3c-0.1-0.2-0.1-0.4-0.1-0.6l0.5,3.3c0-0.3,0-0.6,0-0.9l-0.5,3.3c0.1-0.4,0.2-0.8,0.3-1.2l-1.3,3
	c0.2-0.4,0.4-0.7,0.7-1.1l-2,2.5c0.2-0.2,0.4-0.5,0.7-0.7l-2.5,2c0.4-0.3,0.8-0.5,1.2-0.7l-3,1.3c0.5-0.2,1.1-0.3,1.6-0.4l-3.3,0.4
	c0.8-0.1,1.7,0,2.5,0.1l-3.3-0.4c2,0.3,3.9,0.7,5.7,1.4l-3-1.3c0.8,0.3,1.5,0.7,2.2,1.2l-2.5-2c0.5,0.4,0.9,0.8,1.3,1.3l-2-2.5
	c0.3,0.4,0.5,0.8,0.7,1.3l-1.3-3c0.2,0.6,0.4,1.2,0.5,1.8l-0.4-3.3c0.1,0.9,0.1,1.8,0,2.6l0.5-3.3c-0.1,0.9-0.4,1.7-0.7,2.6l1.3-3
	c-0.8,1.8-1.8,3.5-3.1,5l2-2.5c-2.7,3.5-5.4,6.8-7.5,10.8c-2,4-3.7,8.1-5.3,12.3h24.1l-1.9-9.6c-0.3-1.5-0.6-3.1-0.9-4.7
	c-0.8-4-3.2-7.4-6.7-9.6c-3.5-2.1-7.8-2.6-11.7-1.4c-2.9,1.1-5.6,2.7-7.9,4.8c-1.4,1.4-2.7,2.9-3.9,4.5c-0.7,0.9-1.3,1.9-1.8,3
	c-3,6.1-4.2,12.9-3.4,19.7c0.4,3.6,1.1,7.1,2.3,10.6c1.2,3.4,2.7,6.7,4.4,9.8c1.4,2.4,2.9,4.7,4.6,6.9c2.7,3.5,5.5,7.6,9.5,9.7
	c2.7,1.5,5.8,2.1,8.9,2c3.2-0.2,6.4-1.1,9.1-2.8c3.7-2.4,6.6-5.9,8.4-9.9c5.1-11.1,7.4-23.3,6.7-35.5c-0.9-13.4-4.9-26.8-12.5-38
	c-2.2-3.8-6.3-6.2-10.8-6.2c-4.3,0.3-8.5,1.5-12.3,3.5c-2.9,1.5-5.5,3.6-7.7,6c-5.2,5.6-8.2,12.9-8.3,20.5c0,2.8,1,5.5,2.7,7.6
	c1.6,2.2,3.9,3.8,6.5,4.5c2.2,0.5,4.5,0.5,6.6,0c3.1-0.9,5.8-2.9,7.5-5.8l4-8.3c1.2-2.4,2.1-5,3.8-7.1l-2,2.5c0.3-0.3,0.6-0.7,1-0.9
	l-2.5,2c0.2-0.1,0.4-0.2,0.6-0.3l-3,1.3c0.3-0.1,0.6-0.2,0.9-0.3l-3.3,0.5c0.2,0,0.4,0,0.5,0l-3.3-0.4c0.2,0,0.4,0.1,0.5,0.2l-3-1.3
	c0.2,0.1,0.3,0.2,0.5,0.3l-2.5-2c0.2,0.2,0.4,0.4,0.6,0.6l-2-2.5c0.1,0.1,0.2,0.3,0.3,0.5l-1.3-3c0.1,0.2,0.1,0.3,0.2,0.5l-0.4-3.3
	c0,0.2,0,0.3,0,0.5l0.5-3.3c0,0.2-0.1,0.3-0.1,0.4l1.3-3l-0.1,0.2l2-2.5l-0.2,0.2l20.9,5.5c-0.2-0.7-0.4-1.5-0.5-2.2l0.5,3.3
	c-0.1-1.2-0.1-2.4,0-3.6l-0.4,3.3c0.1-0.7,0.3-1.5,0.5-2.2c0.9-3.3,0.4-6.7-1.3-9.6c-3.5-5.9-11-7.8-16.9-4.5
	C506,442.2,504,444.9,503,448L503,448z"/>
<path class="st1" d="M506.9,465.2c-0.1,2.9-0.3,5.8-0.7,8.6l0.4-3.3c-1.3,8.1-3.1,16.1-5.4,24c-0.8,3.3-0.4,6.7,1.3,9.6
	c3.5,6,11.1,8,17.1,4.5c0,0,0,0,0,0c2.8-1.7,4.8-4.4,5.8-7.5l5-16c1.6-5.2,3.5-10.4,4.8-15.6c1.6-6,0.4-12.3-4-16.8
	c-2.3-2.4-5.5-4.3-8.2-6.2c-1.6-1.3-3.5-2.3-5.5-2.9c-5.8-1.5-11.9,1.1-15,6.2c-1.9,2.9-2,6.6-2.6,9.9l-3,18.6
	c-0.5,3.3-0.6,6.7,1.3,9.6c1.4,2.3,3.5,4.1,6,5.1c2.6,1.2,5.4,1.4,8.1,0.6c3-1,6.1-2.8,7.5-5.7c2.5-4.9,4.4-10.1,5.9-15.4
	c1-3.1,1.5-6.3,1.5-9.5c0-4.9-1.9-9.6-5.3-13.1c-2.3-2.2-5.1-3.8-8.2-4.6c-2.4-0.5-4.9-0.5-7.3,0c-1.6,0.3-3.2,1-4.6,1.9
	c-2.3,1.4-4.2,3.4-5.6,5.7c-1.9,3.1-2.5,6.5-2.8,10.1c-0.1,2-0.1,3.9,0.1,5.9c0.1,3.3,0.1,6.7,0.9,9.9c1.3,5.6,5.6,10,11.1,11.6
	c6.6,1.7,13.4-2.2,15.4-8.7c1.3-4.6,2.5-9.2,3.5-13.9c0.5-2.4,1-4.8,1.4-7.1c0.6-2.9,1-5.8,1.2-8.8c0.1-4.5-1.5-8.9-4.6-12.3
	c-4-4.1-9.9-5.6-15.3-4c-4.7,1.5-7.9,4.7-10.6,8.6c-1.3,1.9-2.4,4.1-3.5,6.1l-4,7.2c-1.1,2.1-2.3,4.2-3.7,6.2l2-2.5
	c-0.5,0.6-1.1,1.2-1.7,1.8l2.5-2c-0.4,0.3-0.9,0.6-1.4,0.8l3-1.3c-0.3,0.1-0.7,0.2-1,0.3l3.3-0.5c-0.2,0-0.5,0.1-0.7,0.1l12,15.8
	c0.4-1.1,0.8-2.1,1.2-3.2l-1.3,3c1.9-4.5,4.4-8.6,7.3-12.5l-2,2.5c2.1-2.8,4.6-5.4,7.3-7.6l-2.5,2c1.2-0.9,2.5-1.7,3.9-2.4l-3,1.3
	c1-0.4,2-0.7,3.1-0.9l-3.3,0.5c1.1-0.1,2.1-0.1,3.2,0l-3.3-0.4c0.8,0.1,1.5,0.3,2.3,0.6l-3-1.3c0.6,0.3,1.2,0.6,1.7,1l-2.5-2
	c0.7,0.6,1.3,1.2,1.9,1.9l-2-2.5c2,2.9,3.6,6.1,4.8,9.4l-1.3-3c1.1,2.5,1.9,5.2,2.3,7.9l-0.4-3.3c0.3,2.2,0.2,4.4-0.1,6.5l0.5-3.3
	c-0.3,2.3-0.9,4.6-1.4,6.9l8.7-8.7l-0.3,0.1l3.3-0.5h-0.3l3.3,0.4l-0.3-0.1l3,1.3l-0.2-0.1l2.5,2l-0.2-0.2l2,2.5l-0.2-0.2l1.3,3
	l-0.1-0.2l0.5,3.3v-0.3c-0.1-3.3-1.4-6.5-3.7-8.8c-4.9-4.9-12.8-4.9-17.7,0c-2.2,2.4-3.9,5.5-3.7,8.8c0.3,4.4,1.9,8,5.4,10.8
	c3.4,2.7,7.9,3.6,12,2.4c4.2-1.2,7.6-4.5,8.7-8.7c1-3.8,1.6-7.7,2-11.7c0.3-4-0.1-8-1.2-11.8c-1.1-3.7-2.6-7.2-4.3-10.7
	c-1.4-3.2-3.3-6.2-5.5-9c-1.4-1.6-3.1-3.1-4.9-4.2c-1.3-0.7-2.6-1.3-4-1.8c-0.7-0.3-1.4-0.5-2.1-0.6c-2.2-0.5-4.5-0.7-6.7-0.5
	c-1.5,0.1-3,0.4-4.5,0.7c-1.7,0.5-3.3,1.1-4.9,1.9c-6.5,3-11.4,8.9-15.7,14.5c-4.2,5.7-7.5,12-9.8,18.6c-1.3,3.7,0,8,2.2,10.9
	c2.3,3.1,5.9,5,9.8,4.9c4.9-0.1,9.6-2.2,13-5.9c2.2-2.6,4.1-5.3,5.6-8.3l4.2-7.6c1.2-2.5,2.7-4.9,4.2-7.2l-2,2.5
	c0.5-0.6,1-1.2,1.6-1.7l-2.5,2c0.4-0.3,0.8-0.5,1.2-0.7l-3,1.3c0.2-0.1,0.4-0.1,0.6-0.2L511,460c0.2,0,0.4,0,0.6,0l-3.3-0.5
	c0.3,0,0.7,0.1,1,0.3l-3-1.3c0.2,0.1,0.3,0.2,0.5,0.3l-2.5-2c0.2,0.2,0.4,0.4,0.6,0.6l-2-2.5c0.2,0.2,0.3,0.5,0.4,0.8l-1.3-3
	c0.1,0.4,0.2,0.8,0.3,1.2l-0.5-3.3c0.1,1,0.1,1.9-0.1,2.9l0.4-3.3c-1.3,8.4-3.2,16.7-5.6,24.9l15.4-8.7c-0.2,0-0.4-0.1-0.6-0.2
	l3,1.3c-0.2-0.1-0.3-0.2-0.5-0.3l2.5,2c-0.2-0.1-0.3-0.3-0.4-0.4l2,2.5c-0.2-0.3-0.4-0.6-0.6-1l1.3,3c-0.2-0.6-0.4-1.2-0.5-1.9
	l0.4,3.3c-0.3-2.2-0.2-4.4-0.3-6.6c-0.2-1.9-0.2-3.7,0-5.6l-0.4,3.3c0.1-0.8,0.3-1.6,0.6-2.4l-1.3,3c0.2-0.4,0.4-0.8,0.7-1.2l-2,2.5
	c0.2-0.2,0.4-0.4,0.6-0.6l-2.5,2c0.3-0.2,0.6-0.4,0.9-0.6l-3,1.3c0.3-0.1,0.6-0.2,0.9-0.2l-3.3,0.5c0.2,0,0.5,0,0.7,0l-3.3-0.4
	c0.3,0,0.7,0.1,1,0.2l-3-1.3c0.4,0.2,0.8,0.4,1.2,0.7l-2.5-2c0.4,0.3,0.7,0.6,1,1l-2-2.5c0.3,0.4,0.5,0.8,0.7,1.2l-1.3-3
	c0.2,0.5,0.3,1.1,0.4,1.6l-0.4-3.3c0.1,0.9,0.1,1.8,0,2.6l0.5-3.3c-0.8,4.5-2.1,8.9-4,13.1l1.3-3c-0.5,1.3-1.1,2.5-1.7,3.8l22.8,9.6
	l2.1-12.9l1-6.4c0.2-2,0.5-4,1-6l-1.3,3c0.1-0.2,0.2-0.3,0.3-0.5l-2,2.5l0.2-0.2l-5.5,3.2l0.2-0.1l-3.3,0.5h0.3l-3.3-0.4l0.3,0.1
	l-3-1.3c1.2,0.7,2.3,1.5,3.4,2.4c1.1,0.8,2.3,1.6,3.4,2.5l-2.5-2c0.5,0.4,0.9,0.8,1.3,1.3l-2-2.5c0.2,0.3,0.4,0.6,0.5,0.9l-1.3-3
	c0.1,0.3,0.2,0.5,0.2,0.8l-0.5-3.3c0.1,0.5,0.1,1.1,0,1.6l0.5-3.3c-0.6,2.7-1.4,5.3-2.3,7.9l-2.6,8.2l-4.9,16.5l24.1,6.6
	c3.2-11.8,6.2-23.7,6.6-36c0-6.9-5.6-12.5-12.5-12.5S506.9,458.2,506.9,465.2L506.9,465.2z"/>
<path class="st1" d="M516.6,496.6l0.2-10.8c0-1.4-1.1-2.5-2.5-2.5c-1.4,0-2.5,1.1-2.5,2.5l-0.2,10.8c0,1.4,1.1,2.5,2.5,2.5
	S516.6,498,516.6,496.6z"/>
<path class="st1" d="M479.3,484c0.2,5.9-0.1,11.9-0.7,17.8h70c-1-9.7-1.3-19.5-1-29.3l-68.8,9.3c0.4,1.9,0.7,3.8,1,5.7l-1.2-9.3
	c0.8,6.4,1,12.8,0.4,19.2c0.4,9.2,4,18,10.2,24.8c6.8,6.2,15.6,9.9,24.8,10.2l9.3-1.2c5.8-1.6,11.2-4.7,15.5-9l5.5-7.1
	c3.1-5.4,4.8-11.5,4.8-17.7c0.4-4.2,0.5-8.5,0.2-12.8c-0.4-7.2-1.4-14.4-2.8-21.5c-2.8-8.6-8.5-16-16.1-20.9l-8.4-3.5
	c-4.5-1.5-9.4-1.7-14-0.6c-3.1,0-6.2,0.8-8.8,2.4c-4.3,1.4-8.2,3.9-11.3,7.2l-5.5,7.1c-3.1,5.4-4.8,11.5-4.8,17.7
	c-0.3,9.8,0,19.5,1,29.3c0.4,9.2,4,18,10.2,24.7c6.8,6.2,15.5,9.9,24.8,10.2l9.3-1.2c5.8-1.6,11.2-4.7,15.4-9l5.4-7.1
	c3.1-5.4,4.8-11.5,4.8-17.7c0.6-5.9,0.8-11.9,0.7-17.8c-0.4-9.2-4-18-10.2-24.8c-6.8-6.2-15.5-9.9-24.8-10.2l-9.3,1.2
	c-5.8,1.6-11.2,4.7-15.5,9l-5.5,7.1C480.9,471.7,479.3,477.8,479.3,484L479.3,484z"/>
<path class="st2" d="M416,544.6c2-49.2,2.3-98.5,3.1-147.8c0.2-14.2-4.6-18.4-17.9-13.2c-17.2,6.7-33.6,15.4-50.2,23.6
	c-9.7,4.8-10.4,11.3-1.8,18.1c9.3,7.3,11.8,16.6,10.9,28.2c-2,26-2.8,52-4.4,78c-0.9,14.8-1,29.9-3.9,44.3
	c-5.5,27.4-23.1,44.5-46,46.1c4.8-3.7,9.1-6.5,12.7-9.9c10.4-9.8,13.6-21.4,9.8-35.5c-3.3-12.5-11.8-18.8-23.4-20.9
	c-19.1-3.3-33.6,5-44.3,20.2c-11,15.5-14.7,32.3-3.9,49.5c13.8,22.1,35.7,27.5,59.5,25C364.8,645.1,413.9,593.5,416,544.6z"/>
<path class="st2" d="M498,509.3c0.2,0,0.4,0.1,0.6,0.1c-0.8-5.1-1-10.3-0.7-15.5c0-2.8,0.2-5.6,0.2-8.2c0-0.1,0-0.1,0-0.2
	c0-1,0-1.9,0-2.9c-2.1,7.7-2.7,15.8-1.7,23.8C496.9,507.4,497.5,508.3,498,509.3z"/>
<path class="st2" d="M511.5,484.2c0.2-2.9,0.3-5.8,0.3-8.8c0-2.5,0-5-0.2-7.5c-0.2,0-0.3,0-0.5,0c0,1.3,0,2.6-0.1,3.9
	c0,4.5-0.1,9-0.4,13.5C510.9,484.9,511.2,484.5,511.5,484.2z"/>
<path class="st2" d="M497.3,526.2l-0.7-0.9c-0.4-0.3-0.8-0.7-1.1-1.2c-0.1-0.1-0.1-0.2-0.2-0.3c-1.8-1.8-3-3.9-3.7-6.3
	c-0.2-0.6-0.1-1.3,0.2-1.8c-0.7-0.4-1.4-0.9-2-1.5c-1.1-1.1-1-2.8,0.1-3.9c0.2-0.2,0.5-0.4,0.9-0.6c-0.4-1-1-2-1.5-3
	c-0.8-1.1-0.6-2.6,0.5-3.4c0.3-0.2,0.6-0.3,0.9-0.4c-0.7-10.1,1-20.3,5-29.6c-1.4,0.8-3.2,0.4-4-1c-0.4-0.6-0.5-1.3-0.4-2
	c1.3-7,6-13,12.6-15.9c0.2-0.4,0.3-0.8,0.5-1.2v-0.3c-0.4-0.1-0.9-0.1-1.3,0c-1.7,1-3,1.9-3.6,2.4c-1.6,1.2-3.2,2.5-4.6,3.9
	c-2.2,3.4-3.9,7.2-4.9,11.2c-0.2,0.9-0.5,1.7-0.7,2.6c1.3,0.1,2.4,1.2,2.3,2.5c0,0.3-0.1,0.5-0.2,0.8c-3.9,11.5-5.3,23.6-4,35.7
	c0.6,5,2.2,10,6.2,13.3c1.9,1.7,4.5,2.3,6.9,1.7c-0.1,0-0.2-0.1-0.4-0.2C499.1,527.2,498,527,497.3,526.2z"/>
<path class="st2" d="M500.3,463.6c-1.9,2.2-3.2,4.8-3.8,7.7c1-2,2.1-4,3.3-5.9c0.1-0.2,0.3-0.3,0.4-0.5
	C500.3,464.5,500.3,464.1,500.3,463.6z"/>
<path class="st2" d="M513.8,451.4c-0.1-0.2-0.1-0.3-0.2-0.4c-0.2-0.2-0.5-0.5-0.8-0.7h-0.1c-0.4,0.4-0.8,0.9-1.2,1.5
	c0.1,0.2,0.3,0.3,0.4,0.5C512.6,451.9,513.2,451.6,513.8,451.4z"/>
<path class="st2" d="M518.3,467.7c0.2-0.4,0.4-0.7,0.7-1c-0.3-2.6-0.8-5.2-1.5-7.8c-0.2-0.3-0.3-0.7-0.3-1c-0.2-0.6-0.4-1.2-0.6-1.8
	c-0.7,0.2-1.3,0.5-1.9,0.8c1.6,4.4,2.5,9,2.5,13.7C517.6,469.6,517.9,468.7,518.3,467.7z"/>
<path class="st2" d="M517.3,484.8c0.9-1.4,1.7-2.8,2.4-4.3c0-0.3,0-0.6,0-1C519.1,481.3,518.2,483.1,517.3,484.8z"/>
<path class="st2" d="M516.5,494.8l-0.6,0.8c-0.5,3.9-1,7.8-1.5,11.6c-0.5,3.3-0.6,7-1.2,10.5c0.4,0.9,0.2,1.9-0.5,2.6
	c-0.6,2.9-1.9,5.5-3.8,7.8c-1.7,2-4,3.4-6.5,4.1c5.7,0.1,11.1-4.4,13.4-9.5c1.8-4,1.9-9.1,2.3-13.5c0.7-6.1,1.2-12.3,1.5-18.5
	C518.5,492.2,517.5,493.5,516.5,494.8z"/>
<path class="st2" d="M515.7,417.4c-42.6-0.3-83,34-91.2,77.6c-7.6,40.2,20,73.6,60.7,73.6c44.5-0.1,87.6-39.6,91.4-84.1
	C580,445.7,554.6,417.7,515.7,417.4z M542.8,514.9c0,1.5-1.2,2.7-2.7,2.7c-1.3,0-2.9-1.3-2.7-2.7c0.2-1.7,0.3-3.4,0.2-5.1
	c0-3.5,5.5-3.5,5.5,0C543.1,511.5,543,513.2,542.8,514.9z M541.9,469.3c-0.5,8.1-1.7,16.2-3.5,24.1c-0.2,1.1-1.1,1.9-2.1,1.9
	c0,0.3,0.1,0.6,0.1,0.8c1.3,2.7,1.5,5.8,0.6,8.6c-0.2,0.7-0.5,1.3-0.8,2c-0.5,3.6-1.2,7.2-2.3,10.8c-0.3,1-1.1,1.7-2.2,1.9v0.1
	c1.4,1.7,3.1,3.3,3.7,5.6c0.6,2.5-0.6,5.1-3,6.1c-3.5,1.7-9.1,2.2-12-0.9c-0.7-0.7-1.2-1.6-1.5-2.5c-2.1,3.6-5.3,6.5-9.1,8.2
	c-3.8,1.9-8.2,2.2-12.3,1.1c-4.9-1.5-8.2-5.3-11.2-9.2c-12.9-17.1-14.8-41.5-4.6-60.1c3.2-11.3,12.2-20,23.5-23
	c0.6-0.2,1.3-0.1,1.9,0.2c0.4-0.9,1.4-1.4,2.3-1.3c1,0.1,2,0.3,3,0.5c1.7-0.5,3.6-0.4,5.3,0.2c0.9-1.1,2.2-1.8,3.7-1.9
	c0.2,0,0.4-0.1,0.7-0.1c0.4,0,0.9,0,1.3,0c1.5,0,2.7,1.2,2.7,2.7v2.2c0,0.8-0.4,1.5-0.9,2l0.4,0.4l0.1,0.1
	c5.9-3.9,15.2-7.6,19.9-0.9c3.5,4.8,3.4,11.3-0.2,16C544.5,466.4,543.2,467.9,541.9,469.3L541.9,469.3z M552.6,468.5
	c0,1.3-1,2.5-2.4,2.7c-1.3,0.2-2.6-0.6-3-2c-0.3-0.8-0.5-1.5-0.7-2.3c-0.2-1,0.1-2,0.8-2.7v-0.8c0-3.5,5.5-3.5,5.5,0
	C552.8,465.1,552.8,466.8,552.6,468.5L552.6,468.5z"/>
<path class="st2" d="M526.6,485.2c-0.3-2.6,0.2-5.3,1.4-7.7c1.3-2.5,2.9-4.8,4.9-6.8c-0.1-0.1-0.2-0.2-0.3-0.3
	c-0.4-0.5-0.9-0.9-1.4-1.3c-1,1.2-2.7,1.3-3.8,0.4c0,0-0.1,0-0.1-0.1c0,0,0,0.1,0,0.1c0.2,3.1-0.2,6.2-1.1,9.1c-0.3,1-0.6,1.9-1,2.9
	c-0.1,11.8-0.9,23.5-2.5,35.2c1.7-1.1,3.7-1.5,5.7-1c0-0.3,0-0.7,0-1c-0.9-0.2-1.5-0.9-1.8-1.8c-1.9-6.8-1-13.3,3.3-19
	c0.1-0.2,0.3-0.4,0.5-0.5c0-0.1-0.1-0.3-0.1-0.4C529.4,490.1,527.1,488.1,526.6,485.2z"/>
<path class="st2" d="M536.6,450.9c-2.5,0.7-4.8,1.7-7,3c0.5,0.6,1,1.3,1.5,1.9v-0.2c-0.1-1.5,1.1-2.8,2.6-2.9
	c1.5-0.1,2.8,1.1,2.9,2.6c0,0.1,0,0.2,0,0.3v2.9c0,1.3-0.9,2.3-2.1,2.6c0.8,1.6,1.6,3.2,2.2,4.9c0.2-4.1,0.3-8.3,0.3-12.4
	c0-1.5,1.2-2.7,2.6-2.7c0.2,0,0.4,0,0.6,0.1C539.1,450.6,537.8,450.5,536.6,450.9z"/>
<path class="st2" d="M529.4,525c-0.9,0.5-2,0.6-3,0.5c-1.2-0.1-2.1-1.2-2-2.5c0-0.1,0-0.2,0.1-0.3c-0.6,1.2-0.6,2.7,0,3.9
	c0.4,0.6,0,0.2,0.5,0.4c0.5,0.1,1,0.1,1.5,0.1c1.2,0,2.4-0.2,3.5-0.6l0.2-0.1l0,0C530,525.8,529.8,525.3,529.4,525z"/>
<path class="st2" d="M532.2,485.1c0.5,1.1,1.1,2.1,1.8,3c0.8-4.1,1.4-8.3,1.9-12.5c-0.6,0.7-1.1,1.3-1.6,2.1
	C532.9,479.6,531.2,482.6,532.2,485.1z"/>
<path class="st2" d="M542.4,453.8c0,2,0,4-0.1,6c0.8-1.7,1-3.6,0.3-5.4C542.6,454.3,542.5,454,542.4,453.8z"/>
<path class="st2" d="M647.6,635.3"/>
<path class="st2" d="M647.8,632.1"/>
<path class="st2" d="M648.1,668.5"/>
<path class="st2" d="M646.7,664.1"/>
<path class="st2" d="M874.8,312.1c-16,6-31.8,12.9-47.3,20.2c-8.3,3.9-7.7,9.7-2.4,17c3.8,5.5,6,11.8,6.7,18.4
	c0.8,8.7-0.8,17.6-1,26.4c-0.2,10-3.3,18.5-14.6,18c-12.6-0.6-11.7-10.7-11.2-19.9c0.9-15.3,2.3-30.6,1.9-45.9
	c-0.1-4.1-6.1-11.3-9.6-11.4c-24.2-0.7-42.7,11.5-60.3,28.6c21.1,16.3,12.5,37.4,11,56.5c-0.4,5.6-9.9,10.5-15.2,15.7
	c-3-6-6.4-11.9-8.7-18.2c-1.1-2.8-0.1-6.4,0-9.7c1.1-31.6,2.3-63.2,3.1-94.8c0.3-13-5.4-18-17.2-12.9c-16.5,7.1-32.2,16.3-48.1,25
	c-6.9,3.8-7.1,8.6-1.3,14.5c4.1,4.2,10.2,9.6,10.1,14.4c-0.7,30.1-2.2,60.3-5.1,90.3c-0.5,4.9-9.8,8.9-15,13.4
	c-2.5-5.9-7.2-11.7-7.2-17.5c0.3-34.4,1.9-68.8,2.8-103.2c0.4-14.3-3.3-17.9-16.3-13.2c-16.5,6-32.3,14-48.2,21.5
	c-7.7,3.6-9.3,9.3-2.2,15.1c9,7.2,11,16.5,10.2,27.3c-2.4,35.7-4.1,71.4-6.8,107.1c-1.5,20,6.8,28.1,26.3,22.6
	c23.7-6.8,42.6-21.1,57.6-40.8c12,13.8,20,16.4,37.3,7.2c16.6-8.8,31.7-20.5,47.9-31.2c22.5,20.3,47.9,13.7,78.8-22.1
	c-1.3,22.8-14,39.9-36.3,44.5c-13.4,2.8-27.7,1.3-41.5,3c-4.1,0.5-7.7,5.1-11.6,7.9c3,3.9,5.5,10.9,8.9,11.3
	c35.7,4.5,70.5,1.8,103-15.8c20.6-11.2,34-27.3,34.7-51.7c1-35.3,1.8-70.7,2.5-106C890.5,312.9,884.1,308.6,874.8,312.1z"/>
<path class="st2" d="M830.7,430.3c-30.8,35.8-56.3,42.4-78.8,22.1c-16.2,10.7-31.2,22.4-47.8,31.2c-17.4,9.2-25.3,6.6-37.3-7.2
	c-14.9,19.6-33.8,34-57.6,40.8c-19.5,5.6-27.9-2.5-26.3-22.6c2.7-35.7,4.4-71.4,6.8-107.1c0.7-10.9-1.3-20.1-10.2-27.3
	c-7.1-5.8-5.4-11.5,2.2-15.1c15.9-7.5,31.7-15.5,48.2-21.5c13-4.7,16.7-1.1,16.3,13.2c-0.9,34.4-2.5,68.8-2.8,103.2
	c-0.1,5.8,4.7,11.7,7.2,17.5c5.2-4.4,14.5-8.5,15-13.4c3-30,4.5-60.1,5.1-90.3c0.1-4.8-5.9-10.2-10.1-14.4
	c-5.8-5.9-5.5-10.7,1.3-14.5c15.8-8.7,31.5-17.9,48.1-25c11.8-5.1,17.5-0.2,17.2,12.9c-0.8,31.6-2.1,63.2-3.1,94.8
	c-0.1,3.2-1.1,6.9,0,9.7c2.3,6.3,5.7,12.1,8.7,18.2c5.3-5.2,14.8-10.1,15.2-15.7c1.5-19.1,10.1-40.2-11-56.5
	c17.7-17.1,36.2-29.3,60.3-28.6c3.5,0.1,9.5,7.4,9.6,11.4c0.4,15.3-1,30.6-1.9,45.9c-0.5,9.1-1.4,19.3,11.2,19.9
	c11.3,0.5,14.4-8,14.6-18c0.2-8.8,1.8-17.7,1-26.4c-0.6-6.6-2.9-12.9-6.7-18.4c-5.3-7.3-6-13,2.4-17c15.5-7.3,31.2-14.2,47.3-20.2
	c9.3-3.5,15.7,0.8,15.5,11.4c-0.7,35.3-1.5,70.7-2.5,106c-0.7,24.4-14,40.5-34.7,51.7c-32.4,17.7-67.2,20.3-103,15.8
	c-3.4-0.4-5.9-7.4-8.9-11.3c3.8-2.7,7.5-7.4,11.6-7.9c13.8-1.7,28-0.2,41.5-3C816.7,470.2,829.5,453.1,830.7,430.3z"/>
<path class="st2" d="M305.7,621.8c23-1.6,40.5-18.7,46-46.1c2.9-14.5,3-29.5,3.9-44.3c1.6-26,2.4-52,4.4-78
	c0.9-11.6-1.5-20.9-10.9-28.2c-8.6-6.8-7.9-13.3,1.8-18.1c16.6-8.2,33-16.9,50.2-23.6c13.3-5.2,18.1-1,17.9,13.2
	c-0.8,49.3-1.1,98.6-3.1,147.8c-2,48.9-51.2,100.5-99.9,105.6c-23.8,2.5-45.7-2.9-59.5-25c-10.7-17.2-7.1-34,3.9-49.5
	c10.7-15.1,25.3-23.5,44.4-20.1c11.7,2,20.1,8.4,23.4,20.9c3.8,14.1,0.6,25.7-9.8,35.5C314.8,615.3,310.6,618.1,305.7,621.8z"/>
<path class="st2" d="M513.8,451.4c-0.1-0.2-0.1-0.3-0.2-0.4c-0.2-0.2-0.5-0.5-0.8-0.7h-0.1c-0.3,0.3-0.5,0.6-0.8,0.9
	c0.2,0.2,0.5,0.5,0.7,0.7L513.8,451.4z"/>
<path class="st2" d="M517.7,469.4c0.2-0.6,0.4-1.1,0.6-1.6c0.2-0.4,0.4-0.7,0.7-1c-0.3-2.6-0.8-5.2-1.5-7.8c-0.2-0.3-0.3-0.7-0.3-1
	c-0.2-0.6-0.4-1.2-0.6-1.8c-0.2,0.1-0.5,0.2-0.7,0.3c1.1,1.6,1.7,3.5,1.9,5.5C517.8,464.4,517.7,466.9,517.7,469.4z"/>
<path class="st2" d="M517.3,484.8c0.9-1.4,1.8-2.8,2.4-4.4c0-0.3,0-0.6,0-1C519.1,481.3,518.2,483.1,517.3,484.8z"/>
<path class="st2" d="M516.5,494.8l-0.2,0.2c-0.8,9.6-2,19.2-3.5,28.7c-0.4,2.5-3.3,5.6-6.8,8c4.3-1.5,7.8-4.7,9.7-8.9
	c1.8-4,1.9-9.1,2.3-13.5c0.7-6.1,1.2-12.3,1.5-18.5C518.5,492.2,517.5,493.5,516.5,494.8z"/>
<path class="st2" d="M529.4,525c-0.9,0.5-2,0.6-3,0.5c-1.2-0.1-2.1-1.2-2-2.5c0-0.1,0-0.2,0.1-0.3c-0.6,1.2-0.6,2.7,0,3.9
	c0.4,0.6,0,0.2,0.5,0.4c0.5,0.1,1,0.1,1.5,0.1c1.2,0,2.4-0.2,3.5-0.6l0.2-0.1l0,0C530,525.8,529.8,525.3,529.4,525z"/>
<path class="st2" d="M526.6,485.2c-0.3-2.6,0.2-5.3,1.4-7.7c1.3-2.5,2.9-4.8,4.9-6.8c-0.1-0.1-0.2-0.2-0.3-0.3
	c-0.4-0.5-0.9-0.9-1.4-1.3c-1,1.2-2.7,1.3-3.8,0.4c0,0-0.1,0-0.1-0.1c0,0,0,0.1,0,0.1c0.2,3.1-0.2,6.2-1.1,9.1c-0.3,1-0.6,1.9-1,2.9
	c-0.1,11.8-0.9,23.5-2.5,35.2c1.7-1.1,3.7-1.5,5.7-1c0-0.3,0-0.7,0-1c-0.9-0.2-1.5-0.9-1.8-1.8c-1.9-6.8-1-13.3,3.3-19
	c0.1-0.2,0.3-0.4,0.5-0.5c0-0.1-0.1-0.3-0.1-0.4C529.4,490.1,527.1,488.1,526.6,485.2z"/>
<path class="st2" d="M536.6,450.9c-2.5,0.7-4.8,1.7-7,3c0.5,0.6,1,1.3,1.5,1.9v-0.2c-0.1-1.5,1.1-2.8,2.6-2.9
	c1.5-0.1,2.8,1.1,2.9,2.6c0,0.1,0,0.2,0,0.3v2.9c0,1.3-0.9,2.3-2.1,2.6c0.8,1.6,1.6,3.2,2.2,4.9c0.2-4.1,0.3-8.3,0.3-12.4
	c0-1.5,1.2-2.7,2.6-2.7c0.2,0,0.4,0,0.6,0.1C539.1,450.6,537.8,450.5,536.6,450.9z"/>
<path class="st2" d="M515.7,417.4c-42.6-0.3-83,34-91.2,77.6c-7.6,40.2,20,73.6,60.7,73.6c44.5-0.1,87.6-39.6,91.4-84.1
	C580,445.7,554.6,417.7,515.7,417.4z M542.8,514.9c0,1.5-1.2,2.7-2.7,2.7c-1.3,0-2.9-1.3-2.7-2.7c0.2-1.7,0.3-3.4,0.2-5.1
	c0-3.5,5.5-3.5,5.5,0C543.1,511.5,543,513.2,542.8,514.9z M541.9,469.3c-0.5,8.1-1.7,16.2-3.5,24.1c-0.2,1.1-1.1,1.9-2.1,1.9
	c0,0.3,0.1,0.6,0.1,0.8c1.3,2.7,1.5,5.8,0.6,8.6c-0.2,0.7-0.5,1.3-0.8,2c-0.5,3.6-1.2,7.2-2.3,10.8c-0.3,1-1.1,1.7-2.2,1.9v0.1
	c1.4,1.7,3.1,3.3,3.7,5.6c0.6,2.5-0.6,5.1-3,6.1c-3.5,1.7-9.1,2.2-12-0.9c-0.7-0.7-1.2-1.6-1.5-2.5c-2.1,3.6-5.3,6.5-9.1,8.2
	c-3.8,1.9-8.2,2.2-12.3,1.1c-4.9-1.5-8.2-5.3-11.2-9.2c-12.9-17.1-14.8-41.5-4.6-60.1c3.2-11.3,12.2-20,23.5-23
	c0.6-0.2,1.3-0.1,1.9,0.2c0.4-0.9,1.4-1.4,2.3-1.3c1,0.1,2,0.3,3,0.5c1.7-0.5,3.6-0.4,5.3,0.2c0.9-1.1,2.2-1.8,3.7-1.9
	c0.2,0,0.4-0.1,0.7-0.1c0.4,0,0.9,0,1.3,0c1.5,0,2.7,1.2,2.7,2.7v2.2c0,0.8-0.4,1.5-0.9,2l0.4,0.4l0.1,0.1
	c5.9-3.9,15.2-7.6,19.9-0.9c3.5,4.8,3.4,11.3-0.2,16C544.5,466.4,543.2,467.9,541.9,469.3L541.9,469.3z M552.6,468.5
	c0,1.3-1,2.5-2.4,2.7c-1.3,0.2-2.6-0.6-3-2c-0.3-0.8-0.5-1.5-0.7-2.3c-0.2-1,0.1-2,0.8-2.7v-0.8c0-3.5,5.5-3.5,5.5,0
	C552.8,465.1,552.8,466.8,552.6,468.5L552.6,468.5z"/>
<path class="st2" d="M532.2,485.1c0.5,1.1,1.1,2.1,1.8,3c0.8-4.1,1.4-8.3,1.9-12.5c-0.6,0.7-1.1,1.3-1.6,2.1
	C532.9,479.6,531.2,482.6,532.2,485.1z"/>
<path class="st2" d="M542.4,453.8c0,2,0,4-0.1,6c0.8-1.7,1-3.6,0.3-5.4C542.6,454.3,542.5,454,542.4,453.8z"/>
<circle class="st3" cx="386.7" cy="330.3" r="38.4"/>
<g class="st9">
	<path class="st0" d="M418.6,632.6c0.6,1.8,1.9,2.4,3.7,1.8l0.5,1.4l-2.1,0.7l0.3,0.7c2.3-0.8,3.6-0.7,3.9,0.2l0.3,0.7l-2.7,0.9
		c0.5,1.4,2.1,1.6,4.8,0.7l0.5,1.4l-2.1,0.7l0.2,0.6l8.2-2.9l7.4,1.3l-0.5,1l0.2,0.6c2.3-0.8,3.6-0.7,3.9,0.2
		c0.6,1.7-7.3,6.4-23.5,14.3c-5.7,2-15.6,9-29.5,21l-2.3,17.7l0.7-0.3c2.1-1.8,9-4.9,20.5-9.5l2.1,1.6l-1.8,1.4l0.2,0.6
		c3.7-1.3,5.7-1.5,6-0.6l-2.9,2.6l0.2,0.6l1.4-0.5l0.1,2.3c0.8,2.3,3.2,3.5,7.4,3.6l0.2,0.6l-0.4,0.9l0.2,0.6
		c2.3-0.8,3.6-0.7,3.9,0.2l0.2,0.6c0.5,1.4-12.6,10.1-39.4,26c-3.6,1.2-5.7,9.7-6.5,25.4l46.5-25.4l0.5,1.4l0.7-0.2l3.2-1.9
		c1.4,2.1,2.9,2.8,4.6,2.2l0.7,2.1c-1.1,0.4-2,1.5-2.7,3.3l-1.4,0.5l0.2,0.6l4.2-1.4l0.5,1.4l-3.4,1.2l0.9,0.4l0.3,0.7l-0.5,0.9
		c6.8-2.4,10.8-2.5,12.1-0.4l-0.4,0.9c2.4-0.5,3.8-0.2,4.2,0.9c-3.1,4-15.7,12.2-37.6,24.6c-25.8,14.2-38.1,23.1-36.8,26.7
		c0.2,2.6-1.1,5.4-4,8.3l-0.7,0.2l-5.3-2l-1.4,0.5l-3.2,1.9c-0.4-1.2-3.1-1.5-8-1.1l-1.9,1.4l-0.9-0.4l-0.3-0.7l0-2.3l-1.4,0.5
		l-0.5,1l-0.6,0.2l-1-0.5l-0.2-0.6c-1-14.9,2.5-59.2,10.5-132.8c-1.6-4.6,0.6-8.4,6.7-11.6l27-8.6L418.6,632.6z"/>
	<path class="st0" d="M534.7,588.7l5-1.8c6.4-2.2,12.7-1.2,18.8,3.1l0.8,2.2l-2.8,79.9c-2.4,14.7-3,34.6-1.8,59.5l-1.4,2.9l-2.2,0.8
		l-3.6-1.2l-0.5,1l-3.6,1.3l-4.3-0.9l-6.9,3.2l-8-4.5l-1.8-5c-0.7-2.1-0.8-7.7-0.2-16.8l-34.1-38L476.3,659l-0.7,0.3l-7.7,70.3
		c-1,8-0.6,16.8,1.1,26.2l1,0.5l0.3,0.7c0.5,4.1,0.2,6.4-0.9,6.8l-2.2,0.8l-8.7-1.8l-1.4,0.5l-2.6,1.7l-2.4,0l-0.9,1.9l-1-0.5
		l-0.7,0.3l-0.5,1l-9.5-6.4l-1-2.9c-3-8.6-0.9-38.9,6.2-90.8l4.5-42.7c1.9-3,9.5-7.3,22.8-12.8c3.2-1.1,7.4,0.1,12.6,3.7l0.3,0.7
		c4.7,13.6,18,31.5,39.7,53.8c2.7-13.8,3.3-36,1.7-66.6c-0.5-6.8,1.3-10.9,5.4-12.4C531.3,590.5,532.4,589.6,534.7,588.7z"/>
	<path class="st0" d="M634.6,557.2c0.6,1.8,1.9,2.4,3.7,1.8l0.5,1.4l-2.1,0.7l0.3,0.7c2.3-0.8,3.6-0.7,3.9,0.2l0.3,0.7l-2.7,0.9
		c0.5,1.4,2.1,1.6,4.8,0.7l0.5,1.4l-2.1,0.7l0.2,0.6l8.2-2.9l7.4,1.3l-0.5,1l0.2,0.6c2.3-0.8,3.6-0.7,3.9,0.2
		c0.6,1.7-7.3,6.4-23.5,14.3c-5.7,2-15.6,9-29.5,21l-2.3,17.7l0.7-0.3c2.1-1.8,9-4.9,20.5-9.5l2.1,1.6l-1.8,1.4l0.2,0.6
		c3.7-1.3,5.7-1.5,6-0.6l-2.9,2.6l0.2,0.6l1.4-0.5l0.1,2.3c0.8,2.3,3.2,3.5,7.4,3.6l0.2,0.6l-0.4,0.9l0.2,0.6
		c2.3-0.8,3.6-0.7,3.9,0.2l0.2,0.6c0.5,1.4-12.6,10.1-39.4,26c-3.6,1.2-5.7,9.7-6.5,25.4l46.5-25.4l0.5,1.4l0.7-0.2l3.2-1.9
		c1.4,2.1,2.9,2.8,4.6,2.2l0.7,2.1c-1.1,0.4-2,1.5-2.7,3.3l-1.4,0.5l0.2,0.6l4.2-1.4l0.5,1.4l-3.4,1.2l0.9,0.4l0.3,0.7l-0.5,0.9
		c6.8-2.4,10.8-2.5,12.1-0.4l-0.4,0.9c2.4-0.5,3.8-0.2,4.2,0.9c-3.1,4-15.7,12.2-37.6,24.6c-25.8,14.2-38.1,23.1-36.8,26.7
		c0.2,2.6-1.1,5.4-4,8.3l-0.7,0.3l-5.3-2l-1.4,0.5l-3.2,1.9c-0.4-1.2-3.1-1.5-8-1.1l-1.9,1.4l-0.9-0.4l-0.3-0.7l0-2.3l-1.4,0.5
		l-0.5,1l-0.6,0.2l-1-0.5l-0.2-0.6c-1-14.9,2.5-59.2,10.5-132.8c-1.6-4.6,0.6-8.4,6.7-11.6l27-8.6L634.6,557.2z"/>
	<path class="st0" d="M695.3,530.6l6.2-2.2c31-10.8,52.9-7,65.6,11.4l2.2,4l0.7,2.1c2.1,6.1-8.2,21.2-31.1,45.2
		c17.3,27.1,28,46.5,32.1,58.2l1,0.5l0.2,0.6l0,2.4l2.9,6l-0.5,1l-1.4,0.5c-0.7-1.9-1.5-2.6-2.4-2.3c0.5,1.4,0.3,2.2-0.6,2.5
		l-1.4,0.5l-0.9-0.5l-0.7,0.3c0,2.1-0.4,3.3-1.1,3.5l-3.8,0.5l-0.9,1.9c-1.1-2.2-2.7-3-4.7-2.3c-13.4-14.7-26.8-32.3-40.3-53
		l-27.7,21.4c-0.6,7.6-1.6,12.1-3.1,13.5l0.5,3.8l-2.1,0.7l0.1-8.6l-0.3-0.7l-0.7,0.3l-0.8,8.9l1.9,0.9c-1.8,0.6-3.6,6.7-5.4,18.2
		c-0.6,0.3-0.9,3.8-1,10.6c-1,0.3-1.7,5.8-2.1,16.3l-0.7,0.3c-0.7-2.1-3.7-3.2-8.9-3.2l-0.9,1.9c-0.3-1-1.2-1.2-2.7-0.7l-1.8,1.4
		c-1.9-2.2-3.8-3.1-5.6-2.7l-0.8-2.2c-3.9-11.2-2-46.7,5.7-106.5c-12-3.2-18.8-6.8-20.2-10.9l-1.2-3.4c-0.5-2.6,6.6-9.7,21.3-21.5
		C661.4,544.5,673,538.3,695.3,530.6z M692.2,593.3l1.4-0.5c23.7-21.6,37.3-37,40.8-46.2l-0.3-0.7l-14.1,4.2l-1.4,0.5
		c-17.6,6.1-25.7,11.3-24.3,15.5C693.8,581.9,693.1,591,692.2,593.3z"/>
	<path class="st0" d="M835,488.9l2.3-0.8c13.4-4.7,24.8-2.1,34,7.7c2.5,11,2.6,16.9,0.3,17.7l-0.8,0.3c-3.1,1.1-9,1.4-17.5,1
		l-15.6,3.8c-27.5,9.6-46.7,29-57.7,58.3c-4.3,13.8-4.2,27,0.3,39.8c2.5,7.1,9,8.8,19.6,5.1c6.4-2.2,14.8-7.4,25.1-15.6l-0.3-0.7
		l-0.8,0.3l-21.4,9.2c-0.5-1.4-3.1-2.5-7.9-3.2l0.5-1l-0.3-0.8l-4.5,1.6l-0.5-1.5l4.2-2.3l-0.3-0.7l-6.3,1.3l-0.5-1.5l2.2-0.8
		l-0.3-0.7l-3.8,1.3l-0.3-0.8l0.7-2.8c-3.6,1.2-5.5,1.4-5.9,0.3c-1.2-3.4,27.4-21.2,85.6-53.6c5.8-2,11.3,0,16.5,6.1l1.6,2
		c1.8,5.2,0.2,12-4.8,20.3c1.7,5-7.3,19.4-27.2,43.4c-9.5,10.7-20,18-31.4,22l-6.8,2.4c-22.6,7.9-41.8,1.6-57.6-19l-3.1-6.5
		l-1.6-4.6c-6.4-18.2,0.1-45.1,19.4-80.6C786.5,513.7,808,498.3,835,488.9z"/>
	<path class="st0" d="M960.9,441.4l3-1c3.6-1.3,9.4,0.5,17.5,5.4l1,3c-38.9,77.8-61.3,119.7-67.5,125.9c0.7,2-0.2,3.4-2.6,4.2
		c0.5,1.5-2.8,9.2-9.9,23.1c-4.9,9-7.2,16.6-6.8,22.9l-3.4,2c-2.8,1-5.6,0.8-8.3-0.4l-0.9,2c-1.7-2.7-4.9-3.2-9.6-1.6l-7.1-4
		l-0.5-1.5c-2.6-7.6,8.8-32.6,34.4-75.1c6.3-13.4,9.2-20.6,8.8-21.9c-25-12.1-39.7-24.4-44.1-37.1l-1.5-4.4c1.5-3.7,5.1-6.6,11-8.7
		l2.9-1c9-3.1,18.2,1.3,27.6,13.3c1.7,4.9,7.9,10.1,18.6,15.6c3.6-5,11.7-21.8,24.2-50.3C951.9,446.4,956.4,442.9,960.9,441.4z"/>
</g>
<g class="st9">
	<path class="st6" d="M418.6,632.6c0.6,1.8,1.9,2.4,3.7,1.8l0.5,1.4l-2.1,0.7l0.3,0.7c2.3-0.8,3.6-0.7,3.9,0.2l0.3,0.7l-2.7,0.9
		c0.5,1.4,2.1,1.6,4.8,0.7l0.5,1.4l-2.1,0.7l0.2,0.6l8.2-2.9l7.4,1.3l-0.5,1l0.2,0.6c2.3-0.8,3.6-0.7,3.9,0.2
		c0.6,1.7-7.3,6.4-23.5,14.3c-5.7,2-15.6,9-29.5,21l-2.3,17.7l0.7-0.3c2.1-1.8,9-4.9,20.5-9.5l2.1,1.6l-1.8,1.4l0.2,0.6
		c3.7-1.3,5.7-1.5,6-0.6l-2.9,2.6l0.2,0.6l1.4-0.5l0.1,2.3c0.8,2.3,3.2,3.5,7.4,3.6l0.2,0.6l-0.4,0.9l0.2,0.6
		c2.3-0.8,3.6-0.7,3.9,0.2l0.2,0.6c0.5,1.4-12.6,10.1-39.4,26c-3.6,1.2-5.7,9.7-6.5,25.4l46.5-25.4l0.5,1.4l0.7-0.2l3.2-1.9
		c1.4,2.1,2.9,2.8,4.6,2.2l0.7,2.1c-1.1,0.4-2,1.5-2.7,3.3l-1.4,0.5l0.2,0.6l4.2-1.4l0.5,1.4l-3.4,1.2l0.9,0.4l0.3,0.7l-0.5,0.9
		c6.8-2.4,10.8-2.5,12.1-0.4l-0.4,0.9c2.4-0.5,3.8-0.2,4.2,0.9c-3.1,4-15.7,12.2-37.6,24.6c-25.8,14.2-38.1,23.1-36.8,26.7
		c0.2,2.6-1.1,5.4-4,8.3l-0.7,0.2l-5.3-2l-1.4,0.5l-3.2,1.9c-0.4-1.2-3.1-1.5-8-1.1l-1.9,1.4l-0.9-0.4l-0.3-0.7l0-2.3l-1.4,0.5
		l-0.5,1l-0.6,0.2l-1-0.5l-0.2-0.6c-1-14.9,2.5-59.2,10.5-132.8c-1.6-4.6,0.6-8.4,6.7-11.6l27-8.6L418.6,632.6z"/>
	<path class="st6" d="M534.7,588.7l5-1.8c6.4-2.2,12.7-1.2,18.8,3.1l0.8,2.2l-2.8,79.9c-2.4,14.7-3,34.6-1.8,59.5l-1.4,2.9l-2.2,0.8
		l-3.6-1.2l-0.5,1l-3.6,1.3l-4.3-0.9l-6.9,3.2l-8-4.5l-1.8-5c-0.7-2.1-0.8-7.7-0.2-16.8l-34.1-38L476.3,659l-0.7,0.3l-7.7,70.3
		c-1,8-0.6,16.8,1.1,26.2l1,0.5l0.3,0.7c0.5,4.1,0.2,6.4-0.9,6.8l-2.2,0.8l-8.7-1.8l-1.4,0.5l-2.6,1.7l-2.4,0l-0.9,1.9l-1-0.5
		l-0.7,0.3l-0.5,1l-9.5-6.4l-1-2.9c-3-8.6-0.9-38.9,6.2-90.8l4.5-42.7c1.9-3,9.5-7.3,22.8-12.8c3.2-1.1,7.4,0.1,12.6,3.7l0.3,0.7
		c4.7,13.6,18,31.5,39.7,53.8c2.7-13.8,3.3-36,1.7-66.6c-0.5-6.8,1.3-10.9,5.4-12.4C531.3,590.5,532.4,589.6,534.7,588.7z"/>
	<path class="st6" d="M634.6,557.2c0.6,1.8,1.9,2.4,3.7,1.8l0.5,1.4l-2.1,0.7l0.3,0.7c2.3-0.8,3.6-0.7,3.9,0.2l0.3,0.7l-2.7,0.9
		c0.5,1.4,2.1,1.6,4.8,0.7l0.5,1.4l-2.1,0.7l0.2,0.6l8.2-2.9l7.4,1.3l-0.5,1l0.2,0.6c2.3-0.8,3.6-0.7,3.9,0.2
		c0.6,1.7-7.3,6.4-23.5,14.3c-5.7,2-15.6,9-29.5,21l-2.3,17.7l0.7-0.3c2.1-1.8,9-4.9,20.5-9.5l2.1,1.6l-1.8,1.4l0.2,0.6
		c3.7-1.3,5.7-1.5,6-0.6l-2.9,2.6l0.2,0.6l1.4-0.5l0.1,2.3c0.8,2.3,3.2,3.5,7.4,3.6l0.2,0.6l-0.4,0.9l0.2,0.6
		c2.3-0.8,3.6-0.7,3.9,0.2l0.2,0.6c0.5,1.4-12.6,10.1-39.4,26c-3.6,1.2-5.7,9.7-6.5,25.4l46.5-25.4l0.5,1.4l0.7-0.2l3.2-1.9
		c1.4,2.1,2.9,2.8,4.6,2.2l0.7,2.1c-1.1,0.4-2,1.5-2.7,3.3l-1.4,0.5l0.2,0.6l4.2-1.4l0.5,1.4l-3.4,1.2l0.9,0.4l0.3,0.7l-0.5,0.9
		c6.8-2.4,10.8-2.5,12.1-0.4l-0.4,0.9c2.4-0.5,3.8-0.2,4.2,0.9c-3.1,4-15.7,12.2-37.6,24.6c-25.8,14.2-38.1,23.1-36.8,26.7
		c0.2,2.6-1.1,5.4-4,8.3l-0.7,0.3l-5.3-2l-1.4,0.5l-3.2,1.9c-0.4-1.2-3.1-1.5-8-1.1l-1.9,1.4l-0.9-0.4l-0.3-0.7l0-2.3l-1.4,0.5
		l-0.5,1l-0.6,0.2l-1-0.5l-0.2-0.6c-1-14.9,2.5-59.2,10.5-132.8c-1.6-4.6,0.6-8.4,6.7-11.6l27-8.6L634.6,557.2z"/>
	<path class="st6" d="M695.3,530.6l6.2-2.2c31-10.8,52.9-7,65.6,11.4l2.2,4l0.7,2.1c2.1,6.1-8.2,21.2-31.1,45.2
		c17.3,27.1,28,46.5,32.1,58.2l1,0.5l0.2,0.6l0,2.4l2.9,6l-0.5,1l-1.4,0.5c-0.7-1.9-1.5-2.6-2.4-2.3c0.5,1.4,0.3,2.2-0.6,2.5
		l-1.4,0.5l-0.9-0.5l-0.7,0.3c0,2.1-0.4,3.3-1.1,3.5l-3.8,0.5l-0.9,1.9c-1.1-2.2-2.7-3-4.7-2.3c-13.4-14.7-26.8-32.3-40.3-53
		l-27.7,21.4c-0.6,7.6-1.6,12.1-3.1,13.5l0.5,3.8l-2.1,0.7l0.1-8.6l-0.3-0.7l-0.7,0.3l-0.8,8.9l1.9,0.9c-1.8,0.6-3.6,6.7-5.4,18.2
		c-0.6,0.3-0.9,3.8-1,10.6c-1,0.3-1.7,5.8-2.1,16.3l-0.7,0.3c-0.7-2.1-3.7-3.2-8.9-3.2l-0.9,1.9c-0.3-1-1.2-1.2-2.7-0.7l-1.8,1.4
		c-1.9-2.2-3.8-3.1-5.6-2.7l-0.8-2.2c-3.9-11.2-2-46.7,5.7-106.5c-12-3.2-18.8-6.8-20.2-10.9l-1.2-3.4c-0.5-2.6,6.6-9.7,21.3-21.5
		C661.4,544.5,673,538.3,695.3,530.6z M692.2,593.3l1.4-0.5c23.7-21.6,37.3-37,40.8-46.2l-0.3-0.7l-14.1,4.2l-1.4,0.5
		c-17.6,6.1-25.7,11.3-24.3,15.5C693.8,581.9,693.1,591,692.2,593.3z"/>
	<path class="st6" d="M835,488.9l2.3-0.8c13.4-4.7,24.8-2.1,34,7.7c2.5,11,2.6,16.9,0.3,17.7l-0.8,0.3c-3.1,1.1-9,1.4-17.5,1
		l-15.6,3.8c-27.5,9.6-46.7,29-57.7,58.3c-4.3,13.8-4.2,27,0.3,39.8c2.5,7.1,9,8.8,19.6,5.1c6.4-2.2,14.8-7.4,25.1-15.6l-0.3-0.7
		l-0.8,0.3l-21.4,9.2c-0.5-1.4-3.1-2.5-7.9-3.2l0.5-1l-0.3-0.8l-4.5,1.6l-0.5-1.5l4.2-2.3l-0.3-0.7l-6.3,1.3l-0.5-1.5l2.2-0.8
		l-0.3-0.7l-3.8,1.3l-0.3-0.8l0.7-2.8c-3.6,1.2-5.5,1.4-5.9,0.3c-1.2-3.4,27.4-21.2,85.6-53.6c5.8-2,11.3,0,16.5,6.1l1.6,2
		c1.8,5.2,0.2,12-4.8,20.3c1.7,5-7.3,19.4-27.2,43.4c-9.5,10.7-20,18-31.4,22l-6.8,2.4c-22.6,7.9-41.8,1.6-57.6-19l-3.1-6.5
		l-1.6-4.6c-6.4-18.2,0.1-45.1,19.4-80.6C786.5,513.7,808,498.3,835,488.9z"/>
	<path class="st6" d="M960.9,441.4l3-1c3.6-1.3,9.4,0.5,17.5,5.4l1,3c-38.9,77.8-61.3,119.7-67.5,125.9c0.7,2-0.2,3.4-2.6,4.2
		c0.5,1.5-2.8,9.2-9.9,23.1c-4.9,9-7.2,16.6-6.8,22.9l-3.4,2c-2.8,1-5.6,0.8-8.3-0.4l-0.9,2c-1.7-2.7-4.9-3.2-9.6-1.6l-7.1-4
		l-0.5-1.5c-2.6-7.6,8.8-32.6,34.4-75.1c6.3-13.4,9.2-20.6,8.8-21.9c-25-12.1-39.7-24.4-44.1-37.1l-1.5-4.4c1.5-3.7,5.1-6.6,11-8.7
		l2.9-1c9-3.1,18.2,1.3,27.6,13.3c1.7,4.9,7.9,10.1,18.6,15.6c3.6-5,11.7-21.8,24.2-50.3C951.9,446.4,956.4,442.9,960.9,441.4z"/>
</g>
<path class="st2" d="M424.9,543.5c2-49.2,2.3-98.5,3.1-147.8c0.2-14.2-4.6-18.4-17.9-13.2c-17.2,6.7-33.6,15.4-50.2,23.6
	c-9.7,4.8-10.4,11.3-1.8,18.1c9.3,7.3,11.8,16.6,10.9,28.2c-2,26-2.8,52-4.4,78c-0.9,14.8-1,29.9-3.9,44.3
	c-5.5,27.4-23,44.5-46,46.1c4.8-3.7,9.1-6.5,12.7-9.9c10.4-9.8,13.6-21.4,9.8-35.5c-3.3-12.5-11.8-18.9-23.4-20.9
	c-19.1-3.3-33.6,5-44.3,20.2c-11,15.5-14.7,32.3-3.9,49.5c13.8,22.1,35.7,27.5,59.5,25C373.7,644,422.8,592.3,424.9,543.5z"/>
<path class="st2" d="M506.8,489.3c0-1.6,0.1-3.1,0.1-4.6c0-0.8,0.3-1.5,0.9-2c0-1.2,0.3-2.5,0.7-3.6c-0.1-0.6-0.1-1.2-0.1-1.8
	c-0.4,1-0.7,2-1,3c-0.2,3.1-0.6,6.2-1,9.2c0,0.1,0,0.1,0,0.2L506.8,489.3z"/>
<path class="st2" d="M513,471.5c0-1.2-0.1-2.4-0.1-3.5c-1.2,2-2.3,4-3.3,6.1c0.5-0.4,1.1-0.6,1.7-0.6
	C511.9,472.8,512.5,472.1,513,471.5z"/>
<path class="st2" d="M518.4,494.5c0,0.1,0,0.2,0,0.3v2.3c0.2,0.6,0.3,1.2,0.4,1.8c0.2-1.8,0.4-3.6,0.6-5.4
	C519.2,494,518.8,494.3,518.4,494.5z"/>
<path class="st2" d="M513.7,452.7c0.2-0.1,0.5-0.3,0.7-0.3c-0.2-0.1-0.3-0.2-0.5-0.2c-0.2-0.1-0.4-0.1-0.6-0.1
	c-1.5,0.7-3,1.6-4.3,2.5v0.1C510.5,453.9,512.1,453.2,513.7,452.7z"/>
<path class="st2" d="M499.7,513.9c-0.4-0.2-0.7-0.5-1-0.8c-1.1-1.1-1-2.9,0.1-3.9c0.3-0.3,0.7-0.5,1.1-0.6c0.1,0,0.2-0.1,0.2-0.1
	c-0.1-0.4-0.1-0.9-0.2-1.3c-1.9-4.7-3.2-9.7-3.7-14.8c-0.8,6.2-0.8,12.4-0.1,18.6c0,0.5,0.1,0.9,0.2,1.4c0.7,1.5,1.2,3.1,1.7,4.7
	c0.3,0.2,0.7,0.3,1.1,0.4C499.3,516.2,499.5,515.1,499.7,513.9z"/>
<path class="st2" d="M514.9,521l0.2,0.2c0.4-0.8,0.8-1.6,1-2.4c0.2-0.6,0.3-1.2,0.4-1.9c-0.3,0.1-0.7,0.2-1,0.2
	C515.7,518.5,515.5,519.8,514.9,521z"/>
<path class="st2" d="M510.1,525.1c-0.6,0.6-1.3,0.8-2.1,0.8c0,0.1-0.1,0.2-0.1,0.3c1.2-0.1,2.4-0.4,3.4-1c-0.2-0.3-0.3-0.5-0.5-0.8
	C510.5,524.6,510.3,524.9,510.1,525.1z"/>
<path class="st2" d="M510.6,461.1c-1.1,1-2,2.1-2.7,3.4c0,0.5,0,0.9,0,1.4c0.3-0.5,0.6-1,1-1.6c0.4-0.7,1.2-1.2,2.1-1.3
	C510.6,462.5,510.4,461.8,510.6,461.1z"/>
<path class="st2" d="M528.4,471.7c-0.7,0.4-1.5,0.4-2.2,0.2c0,1.7,0,3.4,0,5c-0.4,9.8-1.4,19.6-2.9,29.3l-0.1,0.8
	c0.8,0.5,1.2,1.3,1.2,2.2c0,1.7,0,3.4-0.2,5.1c-0.1,1.2-0.9,2.3-2.1,2.7c-0.6,3.7-1.8,7.3-4.3,10.1c-0.5,0.6-1.1,1.2-1.8,1.7
	c-0.6,0.8-1.3,1.4-2.2,1.8c-0.4,0.2-0.9,0.4-1.3,0.5c5.2-0.5,10-4.7,12.1-9.4c1.8-4,1.9-9.1,2.3-13.5
	C528.3,496.1,529.1,483.9,528.4,471.7z"/>
<path class="st2" d="M524.6,416.3c-42.6-0.3-82.9,34-91.2,77.6c-7.6,40.2,20,73.6,60.7,73.6c44.6,0,87.6-39.6,91.4-84.1
	C588.9,444.5,563.5,416.6,524.6,416.3z M534,472.7c0,1.4,0.1,2.6,0.1,3.8c0.3,13.1-0.9,26.3-2.5,39.3c-1,8.1-4.9,15.5-12.6,19.1
	c-3.8,1.9-8.2,2.2-12.3,1.1c-4.9-1.5-8.2-5.3-11.2-9.2c-12.9-17.1-14.8-41.5-4.6-60.1c2-6.7,6-12.7,11.5-17c0.4-0.6,1-1.1,1.7-1.2
	c3.2-2.2,6.7-3.8,10.4-4.8c0.6-0.2,1.3-0.1,1.9,0.2c0.4-0.9,1.4-1.4,2.3-1.3c2.1,0.1,4.2,0.8,6,2c0.5,0.3,0.9,0.6,1.3,1
	c3.9,3.4,5.9,9.2,6.9,15.1c0.8,0.4,1.3,1.3,1.3,2.3c0,1.2,0,2.4-0.1,3.6c0.4,1.1,0.8,2.2,1.1,3.3C535.4,470.8,535,472,534,472.7z"/>
<path class="st2" d="M656.5,634.2"/>
<path class="st2" d="M656.7,631"/>
<path class="st2" d="M657.1,667.4"/>
<path class="st2" d="M655.7,663"/>
<path class="st2" d="M883.7,310.9c-16.1,6-31.8,12.9-47.3,20.2c-8.3,3.9-7.7,9.7-2.4,17c3.8,5.5,6,11.8,6.7,18.4
	c0.8,8.7-0.8,17.6-1.1,26.4c-0.2,10-3.3,18.5-14.6,18c-12.5-0.6-11.7-10.7-11.2-19.9c0.9-15.3,2.3-30.6,1.9-45.9
	c-0.1-4.1-6.1-11.3-9.6-11.4c-24.2-0.7-42.7,11.5-60.3,28.6c21.1,16.3,12.5,37.4,11,56.5c-0.4,5.6-9.9,10.5-15.2,15.7
	c-3-6-6.4-11.9-8.7-18.2c-1.1-2.8-0.1-6.4,0-9.7c1.1-31.6,2.3-63.2,3.1-94.8c0.3-13-5.4-18-17.2-12.9c-16.5,7.1-32.2,16.3-48.1,25
	c-6.9,3.8-7.1,8.6-1.3,14.5c4.1,4.2,10.2,9.6,10.1,14.4c-0.7,30.1-2.2,60.3-5.1,90.3c-0.5,4.9-9.8,8.9-15,13.4
	c-2.5-5.9-7.2-11.7-7.2-17.5c0.3-34.4,1.9-68.8,2.8-103.2c0.4-14.3-3.3-17.9-16.3-13.2c-16.5,6-32.3,13.9-48.2,21.5
	c-7.6,3.6-9.3,9.3-2.2,15.1c9,7.2,11,16.5,10.2,27.3c-2.4,35.7-4.1,71.5-6.8,107.1c-1.5,20,6.9,28.1,26.3,22.6
	c23.7-6.8,42.6-21.1,57.6-40.8c12,13.8,20,16.4,37.3,7.2c16.6-8.8,31.7-20.5,47.9-31.2c22.5,20.3,47.9,13.7,78.8-22.1
	c-1.3,22.8-14,39.9-36.3,44.5c-13.4,2.8-27.7,1.3-41.5,3c-4.1,0.5-7.7,5.1-11.6,7.9c2.9,3.9,5.5,10.9,8.9,11.3
	c35.7,4.5,70.5,1.8,102.9-15.8c20.6-11.2,34-27.3,34.7-51.7c1-35.3,1.8-70.7,2.5-106C899.5,311.7,893.1,307.5,883.7,310.9z"/>
<path class="st2" d="M839.6,429.2c-30.8,35.8-56.3,42.3-78.8,22.1c-16.2,10.7-31.2,22.4-47.9,31.2c-17.4,9.2-25.3,6.6-37.3-7.2
	c-14.9,19.6-33.8,34-57.6,40.8c-19.5,5.6-27.9-2.5-26.3-22.6c2.7-35.7,4.4-71.4,6.8-107.1c0.7-10.9-1.3-20.1-10.2-27.3
	c-7.1-5.8-5.4-11.5,2.2-15.1c15.9-7.5,31.7-15.5,48.2-21.5c13-4.7,16.7-1.1,16.3,13.2c-0.9,34.4-2.5,68.8-2.8,103.2
	c-0.1,5.8,4.6,11.7,7.2,17.5c5.2-4.4,14.5-8.5,15-13.4c3-30,4.5-60.1,5.1-90.3c0.1-4.8-5.9-10.2-10.1-14.4
	c-5.8-5.9-5.6-10.7,1.3-14.5c15.8-8.7,31.5-17.9,48.1-25c11.8-5.1,17.5-0.2,17.2,12.9c-0.8,31.6-2,63.2-3.1,94.8
	c-0.1,3.3-1.1,6.9,0,9.7c2.3,6.3,5.7,12.1,8.7,18.2c5.3-5.2,14.8-10.1,15.2-15.7c1.5-19.1,10.1-40.2-11-56.5
	c17.7-17.1,36.2-29.3,60.3-28.6c3.5,0.1,9.5,7.4,9.6,11.4c0.4,15.3-1,30.6-1.9,45.9c-0.5,9.1-1.4,19.3,11.2,19.9
	c11.3,0.5,14.4-8,14.6-18c0.2-8.8,1.9-17.7,1.1-26.4c-0.6-6.6-2.9-12.9-6.7-18.4c-5.3-7.3-6-13,2.4-17c15.5-7.3,31.2-14.2,47.3-20.2
	c9.3-3.5,15.7,0.8,15.5,11.4c-0.7,35.3-1.5,70.7-2.5,106c-0.7,24.4-14,40.5-34.7,51.7c-32.4,17.7-67.2,20.3-102.9,15.8
	c-3.4-0.4-6-7.4-8.9-11.3c3.8-2.7,7.5-7.4,11.6-7.9c13.8-1.7,28-0.2,41.5-3C825.7,469,838.4,452,839.6,429.2z"/>
<path class="st2" d="M314.6,620.7c23-1.6,40.5-18.7,46-46.1c2.9-14.5,3-29.5,3.9-44.3c1.6-26,2.4-52,4.4-78
	c0.9-11.6-1.5-20.9-10.9-28.2c-8.6-6.8-7.9-13.3,1.8-18.1c16.6-8.2,33-16.9,50.2-23.6c13.3-5.2,18.1-1,17.9,13.2
	c-0.8,49.3-1.1,98.6-3.1,147.8c-2,48.9-51.2,100.5-99.9,105.6c-23.8,2.5-45.7-2.9-59.5-25c-10.8-17.2-7.1-34,3.9-49.5
	c10.7-15.1,25.3-23.5,44.3-20.2c11.7,2,20.1,8.4,23.4,20.9c3.8,14.1,0.6,25.7-9.8,35.5C323.7,614.2,319.5,616.9,314.6,620.7z"/>
<path class="st2" d="M528.4,471.7c-0.6,0.3-1.3,0.4-2,0.2c-0.4,11.9-1.2,23.8-2.6,35.6c0.4,0.5,0.6,1,0.5,1.6c0,1.7,0,3.4-0.2,5.1
	c-0.1,1-0.7,1.9-1.5,2.4c-0.3,2-0.6,3.9-0.9,5.9c-0.4,2.5-3.3,5.6-6.8,8c4.3-1.5,7.8-4.7,9.7-8.9c1.8-4,1.9-9.1,2.3-13.5
	C528.3,496.1,529.1,483.9,528.4,471.7z"/>
<path class="st2" d="M524.6,416.3c-42.6-0.3-82.9,34-91.2,77.6c-7.6,40.2,20,73.6,60.7,73.6c44.6,0,87.6-39.6,91.4-84.1
	C588.9,444.5,563.5,416.6,524.6,416.3z M534,472.7c0,1.4,0.1,2.6,0.1,3.8c0.3,13.1-0.9,26.3-2.5,39.3c-1,8.1-4.9,15.5-12.6,19.1
	c-3.8,1.9-8.2,2.2-12.3,1.1c-4.9-1.5-8.2-5.3-11.2-9.2c-12.9-17.1-14.8-41.5-4.6-60.1c2-6.7,6-12.7,11.5-17c0.4-0.6,1-1.1,1.7-1.2
	c3.2-2.2,6.7-3.8,10.4-4.8c0.6-0.2,1.3-0.1,1.9,0.2c0.4-0.9,1.4-1.4,2.3-1.3c2.1,0.1,4.2,0.8,6,2c0.5,0.3,0.9,0.6,1.3,1
	c3.9,3.4,5.9,9.2,6.9,15.1c0.8,0.4,1.3,1.3,1.3,2.3c0,1.2,0,2.4-0.1,3.6c0.4,1.1,0.8,2.2,1.1,3.3C535.4,470.8,535,472,534,472.7z"/>
<g class="st9">
	<path class="st0" d="M412.7,635.5c0.7,1.9,1.9,2.4,3.8,1.8l0.5,1.4l-2.1,0.8l0.3,0.7c2.3-0.8,3.7-0.8,4,0.1l0.3,0.7l-2.8,1
		c0.5,1.4,2.2,1.6,4.9,0.6l0.5,1.4l-2.1,0.8l0.2,0.7l8.4-3l7.6,1.2l-0.5,1l0.2,0.7c2.3-0.8,3.7-0.8,4,0.2c0.6,1.7-7.4,6.7-24,14.9
		c-5.9,2.1-15.9,9.4-30.1,21.9l-2.2,18.2l0.7-0.3c2.2-1.8,9.2-5.1,21-9.9l2.2,1.6l-1.9,1.5l0.2,0.7c3.8-1.4,5.8-1.6,6.1-0.6l-3,2.7
		l0.2,0.7l1.4-0.5l0.1,2.4c0.8,2.3,3.4,3.6,7.6,3.6l0.2,0.7l-0.4,1l0.2,0.7c2.3-0.8,3.7-0.8,4,0.2l0.2,0.7
		c0.5,1.4-12.9,10.5-40.2,27.1c-3.7,1.3-5.8,10-6.5,26.1l47.5-26.6l0.5,1.4l0.7-0.3l3.2-2c1.4,2.1,3,2.9,4.8,2.3l0.8,2.1
		c-1.1,0.4-2.1,1.5-2.8,3.4l-1.5,0.5l0.2,0.7l4.2-1.5l0.5,1.5l-3.5,1.3l1,0.4l0.3,0.7l-0.5,0.9c6.9-2.5,11.1-2.7,12.5-0.5l-0.4,1
		c2.5-0.5,3.9-0.2,4.3,0.9c-3.2,4.2-16,12.7-38.3,25.6c-26.4,14.8-38.9,24.1-37.5,27.8c0.2,2.7-1.1,5.5-4,8.6l-0.7,0.3l-5.4-2
		l-1.5,0.5l-3.2,2c-0.4-1.2-3.2-1.5-8.2-1l-1.9,1.4l-1-0.4l-0.3-0.7l0-2.4l-1.4,0.5l-0.5,1l-0.7,0.2l-1-0.5l-0.2-0.7
		c-1.1-15.3,2-60.8,9.5-136.5c-1.7-4.7,0.6-8.7,6.8-11.9l27.6-9.1L412.7,635.5z"/>
	<path class="st0" d="M531.5,589.3l5.1-1.9c6.5-2.4,13-1.3,19.4,3l0.8,2.2l-2.1,82.1c-2.3,15.2-2.7,35.5-1.3,61.1l-1.4,3l-2.2,0.8
		l-3.7-1.1l-0.5,1l-3.7,1.3l-4.5-0.9l-7.1,3.4l-8.3-4.5l-1.9-5.1c-0.8-2.2-0.9-7.9-0.4-17.3l-35.4-38.7l-12.2-15.5l-0.7,0.3
		l-7.2,72.3c-0.9,8.3-0.4,17.2,1.4,26.9l1,0.5l0.3,0.7c0.6,4.2,0.3,6.5-0.8,6.9l-2.2,0.8l-8.9-1.8l-1.5,0.5l-2.7,1.8l-2.5,0.1
		l-0.9,2l-1-0.5l-0.7,0.3l-0.5,1l-9.8-6.4l-1.1-2.9c-3.2-8.8-1.3-39.9,5.5-93.3l4.2-43.9c1.9-3.1,9.7-7.5,23.3-13.4
		c3.3-1.2,7.6,0,12.9,3.7l0.3,0.7c5,13.9,18.8,32.2,41.3,54.8c2.6-14.2,3-37,1.1-68.4c-0.6-7,1.2-11.2,5.4-12.7
		C528,591.2,529.1,590.3,531.5,589.3z"/>
	<path class="st0" d="M633.8,556c0.7,1.9,1.9,2.4,3.8,1.8l0.5,1.4l-2.1,0.8l0.3,0.7c2.3-0.8,3.7-0.8,4,0.1l0.3,0.7l-2.8,1
		c0.5,1.4,2.2,1.6,4.9,0.6l0.5,1.4l-2.1,0.8l0.2,0.7l8.4-3l7.6,1.2l-0.5,1l0.2,0.7c2.3-0.8,3.7-0.8,4,0.2c0.6,1.7-7.4,6.7-24,14.9
		c-5.9,2.1-15.9,9.4-30.1,21.9l-2.2,18.2l0.7-0.3c2.2-1.8,9.2-5.1,21-9.9l2.2,1.6l-1.9,1.5l0.2,0.7c3.8-1.4,5.8-1.6,6.1-0.6l-3,2.7
		l0.2,0.7l1.4-0.5l0.1,2.4c0.8,2.3,3.4,3.6,7.6,3.6l0.2,0.7l-0.4,1l0.2,0.7c2.3-0.8,3.7-0.8,4,0.2l0.2,0.7
		c0.5,1.4-12.9,10.5-40.2,27.1c-3.7,1.3-5.8,10-6.5,26.1l47.5-26.6l0.5,1.4l0.7-0.3l3.2-2c1.4,2.1,3,2.9,4.8,2.2l0.8,2.1
		c-1.1,0.4-2.1,1.5-2.8,3.4l-1.5,0.5l0.2,0.7l4.2-1.5l0.5,1.5l-3.5,1.3l1,0.4l0.3,0.7l-0.5,0.9c6.9-2.5,11.1-2.7,12.5-0.5l-0.4,1
		c2.5-0.5,3.9-0.2,4.3,0.9c-3.2,4.2-16,12.7-38.3,25.6c-26.4,14.8-38.9,24.1-37.5,27.8c0.2,2.7-1.1,5.5-4,8.6l-0.7,0.3l-5.4-2
		l-1.5,0.5l-3.2,2c-0.4-1.2-3.2-1.5-8.2-1l-1.9,1.4l-1-0.4l-0.3-0.7l0-2.4l-1.4,0.5l-0.5,1l-0.7,0.2l-1-0.5l-0.2-0.7
		c-1.1-15.3,2-60.8,9.5-136.5c-1.7-4.7,0.6-8.7,6.8-11.9l27.6-9.1L633.8,556z"/>
	<path class="st0" d="M695.8,528.1l6.4-2.3c31.8-11.4,54.3-7.7,67.5,11.1l2.3,4.1l0.8,2.1c2.3,6.3-8.2,21.8-31.5,46.7
		c18,27.7,29.2,47.5,33.5,59.5l1,0.5l0.2,0.7l0.1,2.5l3,6.1l-0.5,1l-1.4,0.5c-0.7-1.9-1.5-2.7-2.5-2.3c0.5,1.4,0.3,2.3-0.6,2.6
		l-1.5,0.5l-0.9-0.5L771,661c0,2.2-0.4,3.4-1.1,3.6l-3.9,0.6l-0.9,2c-1.2-2.3-2.8-3-4.9-2.3c-13.9-14.9-27.9-33-41.9-54.1L690.2,633
		c-0.5,7.8-1.5,12.4-3,13.9l0.6,3.9l-2.1,0.8l0-8.9l-0.3-0.7l-0.7,0.3l-0.8,9.1l2,0.9c-1.8,0.6-3.6,6.9-5.4,18.7
		c-0.6,0.3-0.9,3.9-0.9,10.8c-1,0.4-1.6,5.9-2,16.8l-0.7,0.3c-0.8-2.2-3.8-3.2-9.2-3.2l-0.9,2c-0.4-1-1.3-1.2-2.7-0.7l-1.9,1.5
		c-2-2.2-3.9-3.1-5.8-2.7l-0.8-2.2c-4.1-11.5-2.5-48,4.8-109.5c-12.4-3.2-19.3-6.8-20.8-11l-1.3-3.5c-0.5-2.6,6.7-10.1,21.7-22.3
		C661.2,542.7,673.1,536.3,695.8,528.1z M693.3,592.5l1.5-0.5c24.1-22.5,37.9-38.4,41.4-47.8l-0.3-0.7l-14.5,4.5l-1.4,0.5
		c-18,6.5-26.3,11.9-24.8,16.1C694.8,580.8,694.1,590.2,693.3,592.5z"/>
	<path class="st0" d="M838.9,483.9l2.4-0.9c13.7-4.9,25.4-2.4,35,7.5c2.6,11.3,2.8,17.4,0.5,18.2l-0.8,0.3
		c-3.2,1.2-9.2,1.6-17.9,1.2l-16,4c-28.2,10.1-47.7,30.3-58.7,60.4c-4.2,14.2-4,27.8,0.7,40.8c2.6,7.2,9.3,8.9,20.2,5
		c6.5-2.4,15.1-7.8,25.6-16.2l-0.3-0.7l-0.8,0.3l-21.8,9.6c-0.5-1.4-3.2-2.5-8.2-3.2l0.5-1l-0.3-0.8l-4.6,1.6l-0.6-1.6l4.3-2.4
		l-0.3-0.7l-6.4,1.4l-0.6-1.6l2.3-0.8l-0.3-0.7l-3.8,1.4l-0.3-0.8l0.7-2.8c-3.7,1.3-5.7,1.5-6,0.4c-1.2-3.4,27.9-22.1,87.4-55.9
		c5.9-2.1,11.6-0.1,17,6.1l1.7,2.1c1.9,5.3,0.3,12.3-4.8,20.9c1.8,5.1-7.3,20-27.5,44.9c-9.7,11.1-20.4,18.7-32,22.9l-6.9,2.5
		c-23.2,8.3-42.9,2-59.3-18.9l-3.2-6.7l-1.7-4.7c-6.7-18.6-0.3-46.3,19.1-82.9C789.3,509.9,811.2,493.9,838.9,483.9z"/>
	<path class="st0" d="M967.7,433.9l3-1.1c3.7-1.3,9.7,0.5,18,5.3l1.1,3c-39.1,80.2-61.8,123.6-68.1,130c0.7,2-0.2,3.5-2.7,4.4
		c0.6,1.6-2.8,9.5-10,23.8c-5,9.3-7.2,17.1-6.8,23.6l-3.5,2.1c-2.9,1-5.7,0.9-8.5-0.3l-0.9,2.1c-1.8-2.7-5.1-3.3-9.9-1.5l-7.4-4.1
		l-0.6-1.6c-2.8-7.7,8.8-33.6,34.6-77.4c6.3-13.8,9.2-21.3,8.8-22.5c-25.8-12.1-41-24.7-45.7-37.7l-1.6-4.5c1.5-3.9,5.2-6.9,11.2-9
		l2.9-1.1c9.2-3.3,18.7,1.2,28.4,13.4c1.8,5,8.2,10.3,19.3,15.9c3.7-5.2,11.8-22.5,24.4-51.9C958.5,439.2,963.2,435.5,967.7,433.9z"
		/>
</g>
<g class="st9">
	<path class="st8" d="M412.7,635.5c0.7,1.9,1.9,2.4,3.8,1.8l0.5,1.4l-2.1,0.8l0.3,0.7c2.3-0.8,3.7-0.8,4,0.1l0.3,0.7l-2.8,1
		c0.5,1.4,2.2,1.6,4.9,0.6l0.5,1.4l-2.1,0.8l0.2,0.7l8.4-3l7.6,1.2l-0.5,1l0.2,0.7c2.3-0.8,3.7-0.8,4,0.2c0.6,1.7-7.4,6.7-24,14.9
		c-5.9,2.1-15.9,9.4-30.1,21.9l-2.2,18.2l0.7-0.3c2.2-1.8,9.2-5.1,21-9.9l2.2,1.6l-1.9,1.5l0.2,0.7c3.8-1.4,5.8-1.6,6.1-0.6l-3,2.7
		l0.2,0.7l1.4-0.5l0.1,2.4c0.8,2.3,3.4,3.6,7.6,3.6l0.2,0.7l-0.4,1l0.2,0.7c2.3-0.8,3.7-0.8,4,0.2l0.2,0.7
		c0.5,1.4-12.9,10.5-40.2,27.1c-3.7,1.3-5.8,10-6.5,26.1l47.5-26.6l0.5,1.4l0.7-0.3l3.2-2c1.4,2.1,3,2.9,4.8,2.3l0.8,2.1
		c-1.1,0.4-2.1,1.5-2.8,3.4l-1.5,0.5l0.2,0.7l4.2-1.5l0.5,1.5l-3.5,1.3l1,0.4l0.3,0.7l-0.5,0.9c6.9-2.5,11.1-2.7,12.5-0.5l-0.4,1
		c2.5-0.5,3.9-0.2,4.3,0.9c-3.2,4.2-16,12.7-38.3,25.6c-26.4,14.8-38.9,24.1-37.5,27.8c0.2,2.7-1.1,5.5-4,8.6l-0.7,0.3l-5.4-2
		l-1.5,0.5l-3.2,2c-0.4-1.2-3.2-1.5-8.2-1l-1.9,1.4l-1-0.4l-0.3-0.7l0-2.4l-1.4,0.5l-0.5,1l-0.7,0.2l-1-0.5l-0.2-0.7
		c-1.1-15.3,2-60.8,9.5-136.5c-1.7-4.7,0.6-8.7,6.8-11.9l27.6-9.1L412.7,635.5z"/>
	<path class="st8" d="M531.5,589.3l5.1-1.9c6.5-2.4,13-1.3,19.4,3l0.8,2.2l-2.1,82.1c-2.3,15.2-2.7,35.5-1.3,61.1l-1.4,3l-2.2,0.8
		l-3.7-1.1l-0.5,1l-3.7,1.3l-4.5-0.9l-7.1,3.4l-8.3-4.5l-1.9-5.1c-0.8-2.2-0.9-7.9-0.4-17.3l-35.4-38.7l-12.2-15.5l-0.7,0.3
		l-7.2,72.3c-0.9,8.3-0.4,17.2,1.4,26.9l1,0.5l0.3,0.7c0.6,4.2,0.3,6.5-0.8,6.9l-2.2,0.8l-8.9-1.8l-1.5,0.5l-2.7,1.8l-2.5,0.1
		l-0.9,2l-1-0.5l-0.7,0.3l-0.5,1l-9.8-6.4l-1.1-2.9c-3.2-8.8-1.3-39.9,5.5-93.3l4.2-43.9c1.9-3.1,9.7-7.5,23.3-13.4
		c3.3-1.2,7.6,0,12.9,3.7l0.3,0.7c5,13.9,18.8,32.2,41.3,54.8c2.6-14.2,3-37,1.1-68.4c-0.6-7,1.2-11.2,5.4-12.7
		C528,591.2,529.1,590.3,531.5,589.3z"/>
	<path class="st8" d="M633.8,556c0.7,1.9,1.9,2.4,3.8,1.8l0.5,1.4l-2.1,0.8l0.3,0.7c2.3-0.8,3.7-0.8,4,0.1l0.3,0.7l-2.8,1
		c0.5,1.4,2.2,1.6,4.9,0.6l0.5,1.4l-2.1,0.8l0.2,0.7l8.4-3l7.6,1.2l-0.5,1l0.2,0.7c2.3-0.8,3.7-0.8,4,0.2c0.6,1.7-7.4,6.7-24,14.9
		c-5.9,2.1-15.9,9.4-30.1,21.9l-2.2,18.2l0.7-0.3c2.2-1.8,9.2-5.1,21-9.9l2.2,1.6l-1.9,1.5l0.2,0.7c3.8-1.4,5.8-1.6,6.1-0.6l-3,2.7
		l0.2,0.7l1.4-0.5l0.1,2.4c0.8,2.3,3.4,3.6,7.6,3.6l0.2,0.7l-0.4,1l0.2,0.7c2.3-0.8,3.7-0.8,4,0.2l0.2,0.7
		c0.5,1.4-12.9,10.5-40.2,27.1c-3.7,1.3-5.8,10-6.5,26.1l47.5-26.6l0.5,1.4l0.7-0.3l3.2-2c1.4,2.1,3,2.9,4.8,2.2l0.8,2.1
		c-1.1,0.4-2.1,1.5-2.8,3.4l-1.5,0.5l0.2,0.7l4.2-1.5l0.5,1.5l-3.5,1.3l1,0.4l0.3,0.7l-0.5,0.9c6.9-2.5,11.1-2.7,12.5-0.5l-0.4,1
		c2.5-0.5,3.9-0.2,4.3,0.9c-3.2,4.2-16,12.7-38.3,25.6c-26.4,14.8-38.9,24.1-37.5,27.8c0.2,2.7-1.1,5.5-4,8.6l-0.7,0.3l-5.4-2
		l-1.5,0.5l-3.2,2c-0.4-1.2-3.2-1.5-8.2-1l-1.9,1.4l-1-0.4l-0.3-0.7l0-2.4l-1.4,0.5l-0.5,1l-0.7,0.2l-1-0.5l-0.2-0.7
		c-1.1-15.3,2-60.8,9.5-136.5c-1.7-4.7,0.6-8.7,6.8-11.9l27.6-9.1L633.8,556z"/>
	<path class="st8" d="M695.8,528.1l6.4-2.3c31.8-11.4,54.3-7.7,67.5,11.1l2.3,4.1l0.8,2.1c2.3,6.3-8.2,21.8-31.5,46.7
		c18,27.7,29.2,47.5,33.5,59.5l1,0.5l0.2,0.7l0.1,2.5l3,6.1l-0.5,1l-1.4,0.5c-0.7-1.9-1.5-2.7-2.5-2.3c0.5,1.4,0.3,2.3-0.6,2.6
		l-1.5,0.5l-0.9-0.5L771,661c0,2.2-0.4,3.4-1.1,3.6l-3.9,0.6l-0.9,2c-1.2-2.3-2.8-3-4.9-2.3c-13.9-14.9-27.9-33-41.9-54.1L690.2,633
		c-0.5,7.8-1.5,12.4-3,13.9l0.6,3.9l-2.1,0.8l0-8.9l-0.3-0.7l-0.7,0.3l-0.8,9.1l2,0.9c-1.8,0.6-3.6,6.9-5.4,18.7
		c-0.6,0.3-0.9,3.9-0.9,10.8c-1,0.4-1.6,5.9-2,16.8l-0.7,0.3c-0.8-2.2-3.8-3.2-9.2-3.2l-0.9,2c-0.4-1-1.3-1.2-2.7-0.7l-1.9,1.5
		c-2-2.2-3.9-3.1-5.8-2.7l-0.8-2.2c-4.1-11.5-2.5-48,4.8-109.5c-12.4-3.2-19.3-6.8-20.8-11l-1.3-3.5c-0.5-2.6,6.7-10.1,21.7-22.3
		C661.2,542.7,673.1,536.3,695.8,528.1z M693.3,592.5l1.5-0.5c24.1-22.5,37.9-38.4,41.4-47.8l-0.3-0.7l-14.5,4.5l-1.4,0.5
		c-18,6.5-26.3,11.9-24.8,16.1C694.8,580.8,694.1,590.2,693.3,592.5z"/>
	<path class="st8" d="M838.9,483.9l2.4-0.9c13.7-4.9,25.4-2.4,35,7.5c2.6,11.3,2.8,17.4,0.5,18.2l-0.8,0.3
		c-3.2,1.2-9.2,1.6-17.9,1.2l-16,4c-28.2,10.1-47.7,30.3-58.7,60.4c-4.2,14.2-4,27.8,0.7,40.8c2.6,7.2,9.3,8.9,20.2,5
		c6.5-2.4,15.1-7.8,25.6-16.2l-0.3-0.7l-0.8,0.3l-21.8,9.6c-0.5-1.4-3.2-2.5-8.2-3.2l0.5-1l-0.3-0.8l-4.6,1.6l-0.6-1.6l4.3-2.4
		l-0.3-0.7l-6.4,1.4l-0.6-1.6l2.3-0.8l-0.3-0.7l-3.8,1.4l-0.3-0.8l0.7-2.8c-3.7,1.3-5.7,1.5-6,0.4c-1.2-3.4,27.9-22.1,87.4-55.9
		c5.9-2.1,11.6-0.1,17,6.1l1.7,2.1c1.9,5.3,0.3,12.3-4.8,20.9c1.8,5.1-7.3,20-27.5,44.9c-9.7,11.1-20.4,18.7-32,22.9l-6.9,2.5
		c-23.2,8.3-42.9,2-59.3-18.9l-3.2-6.7l-1.7-4.7c-6.7-18.6-0.3-46.3,19.1-82.9C789.3,509.9,811.2,493.9,838.9,483.9z"/>
	<path class="st8" d="M967.7,433.9l3-1.1c3.7-1.3,9.7,0.5,18,5.3l1.1,3c-39.1,80.2-61.8,123.6-68.1,130c0.7,2-0.2,3.5-2.7,4.4
		c0.6,1.6-2.8,9.5-10,23.8c-5,9.3-7.2,17.1-6.8,23.6l-3.5,2.1c-2.9,1-5.7,0.9-8.5-0.3l-0.9,2.1c-1.8-2.7-5.1-3.3-9.9-1.5l-7.4-4.1
		l-0.6-1.6c-2.8-7.7,8.8-33.6,34.6-77.4c6.3-13.8,9.2-21.3,8.8-22.5c-25.8-12.1-41-24.7-45.7-37.7l-1.6-4.5c1.5-3.9,5.2-6.9,11.2-9
		l2.9-1.1c9.2-3.3,18.7,1.2,28.4,13.4c1.8,5,8.2,10.3,19.3,15.9c3.7-5.2,11.8-22.5,24.4-51.9C958.5,439.2,963.2,435.5,967.7,433.9z"
		/>
</g>
<circle class="st3" cx="389.4" cy="332.5" r="38.4"/>
</svg>
